<svg width="24" height="24" viewBox="0 0 24 24" fill="none" xmlns="http://www.w3.org/2000/svg">
<path d="M5.4408 17.32C4.70747 17.32 4.06697 17.1811 3.5193 16.9033C2.97163 16.6256 2.54927 16.2413 2.25223 15.7506C2.14536 15.5683 2.05834 15.3771 1.99116 15.177C1.79583 14.5951 2.3193 14.0839 2.9345 14.0839H3.12858C3.63659 14.0839 4.04466 14.5528 4.42435 14.8895C4.68427 15.1117 5.02308 15.2228 5.4408 15.2228C5.83995 15.2228 6.15091 15.1256 6.3737 14.9311C6.60576 14.7367 6.72179 14.4959 6.72179 14.2089C6.72179 13.8848 6.60112 13.6209 6.35977 13.4172C6.12771 13.2135 5.79818 13.1117 5.37118 13.1117C5.00975 13.1117 4.71675 12.8194 4.71675 12.4589V11.945C4.71675 11.5845 5.00975 11.2922 5.37118 11.2922C5.76105 11.2922 6.05809 11.1996 6.26231 11.0145C6.47581 10.82 6.58256 10.5793 6.58256 10.2922C6.58256 10.0515 6.47581 9.84779 6.26231 9.68112C6.05809 9.50519 5.77497 9.41723 5.41295 9.41723C5.04165 9.41723 4.7446 9.50982 4.52182 9.69501C4.17482 9.96903 3.82887 10.3895 3.38629 10.3895H3.07374C2.45854 10.3895 1.93475 9.87397 2.16119 9.3034C2.22349 9.14641 2.30025 8.99454 2.39147 8.84779C2.68851 8.37556 3.10158 8.00519 3.63069 7.73667C4.16908 7.4589 4.78637 7.32001 5.48257 7.32001C6.14163 7.32001 6.72179 7.44964 7.22305 7.7089C7.72431 7.96816 8.11418 8.31538 8.39266 8.75056C8.67114 9.18575 8.81038 9.66723 8.81038 10.195C8.81038 10.695 8.68042 11.1209 8.42051 11.4728C8.16059 11.8246 7.86819 12.0607 7.5433 12.1811V12.2506C7.89604 12.3709 8.21629 12.6256 8.50405 13.0145C8.80109 13.3941 8.94962 13.8617 8.94962 14.4172C8.94962 14.9357 8.80574 15.4172 8.51797 15.8617C8.23021 16.3061 7.81714 16.6626 7.27875 16.9311C6.74964 17.1904 6.13699 17.32 5.4408 17.32Z" fill="#222222"/>
<path d="M9.94962 11.32L11.9496 13.32M11.9496 13.32L13.9496 15.32M11.9496 13.32L13.9496 11.32M11.9496 13.32L9.94962 15.32" stroke="#222222" stroke-width="1.5" stroke-linecap="round"/>
<path d="M18.4408 17.32C17.7075 17.32 17.067 17.1811 16.5193 16.9033C15.9716 16.6256 15.5493 16.2413 15.2522 15.7506C15.1454 15.5683 15.0583 15.3771 14.9912 15.177C14.7958 14.5951 15.3193 14.0839 15.9345 14.0839H16.1286C16.6366 14.0839 17.0447 14.5528 17.4244 14.8895C17.6843 15.1117 18.0231 15.2228 18.4408 15.2228C18.84 15.2228 19.1509 15.1256 19.3737 14.9311C19.6058 14.7367 19.7218 14.4959 19.7218 14.2089C19.7218 13.8848 19.6011 13.6209 19.3598 13.4172C19.1277 13.2135 18.7982 13.1117 18.3712 13.1117C18.0098 13.1117 17.7168 12.8194 17.7168 12.4589V11.945C17.7168 11.5845 18.0098 11.2922 18.3712 11.2922C18.7611 11.2922 19.0581 11.1996 19.2623 11.0145C19.4758 10.82 19.5826 10.5793 19.5826 10.2922C19.5826 10.0515 19.4758 9.84779 19.2623 9.68112C19.0581 9.50519 18.775 9.41723 18.413 9.41723C18.0417 9.41723 17.7446 9.50982 17.5218 9.69501C17.1748 9.96903 16.8289 10.3895 16.3863 10.3895H16.0737C15.4585 10.3895 14.9348 9.87397 15.1612 9.3034C15.2235 9.14641 15.3003 8.99454 15.3915 8.84779C15.6885 8.37556 16.1016 8.00519 16.6307 7.73667C17.1691 7.4589 17.7864 7.32001 18.4826 7.32001C19.1416 7.32001 19.7218 7.44964 20.2231 7.7089C20.7243 7.96816 21.1142 8.31538 21.3927 8.75056C21.6711 9.18575 21.8104 9.66723 21.8104 10.195C21.8104 10.695 21.6804 11.1209 21.4205 11.4728C21.1606 11.8246 20.8682 12.0607 20.5433 12.1811V12.2506C20.896 12.3709 21.2163 12.6256 21.5041 13.0145C21.8011 13.3941 21.9496 13.8617 21.9496 14.4172C21.9496 14.9357 21.8057 15.4172 21.518 15.8617C21.2302 16.3061 20.8171 16.6626 20.2788 16.9311C19.7496 17.1904 19.137 17.32 18.4408 17.32Z" fill="#222222"/>
</svg>
