<svg width="24" height="24" viewBox="0 0 24 24" fill="none" xmlns="http://www.w3.org/2000/svg">
<path fill-rule="evenodd" clip-rule="evenodd" d="M18.0145 3.14251C18.3157 3.32323 18.5 3.64874 18.5 4V7.12602C20.2252 7.57006 21.5 9.13616 21.5 11C21.5 12.8638 20.2252 14.4299 18.5 14.874V18C18.5 18.3513 18.3157 18.6768 18.0145 18.8575C17.7133 19.0382 17.3393 19.0477 17.0294 18.8824L9.74998 15H9.5H8V19.5C8 20.3284 7.32843 21 6.5 21C5.67157 21 5 20.3284 5 19.5V14.9585C3.58114 14.7205 2.5 13.4865 2.5 12V9.99999C2.5 8.34313 3.84315 6.99999 5.5 6.99999H9.5H9.75003L17.0294 3.11765C17.3393 2.95235 17.7133 2.96178 18.0145 3.14251ZM18.5 12.7324C19.0978 12.3866 19.5 11.7403 19.5 11C19.5 10.2597 19.0978 9.61338 18.5 9.26757V12.7324ZM10.5 13.1333V8.86667L12.5 7.8V10C12.5 10.5523 12.9477 11 13.5 11C14.0523 11 14.5 10.5523 14.5 10V7C14.5 6.91372 14.4891 6.82999 14.4685 6.75012L16.5 5.66667V16.3333L10.5 13.1333ZM5.5 8.99999C4.94772 8.99999 4.5 9.4477 4.5 9.99999V12C4.5 12.5523 4.94772 13 5.5 13H8.5V8.99999H5.5Z" fill="#222222"/>
</svg>
