<svg width="24" height="24" viewBox="0 0 24 24" fill="none" xmlns="http://www.w3.org/2000/svg">
<path fill-rule="evenodd" clip-rule="evenodd" d="M13.6461 7.33848C11.2217 6.83023 9.32673 4.93527 8.81856 2.51082C8.75614 2.2132 8.49364 2 8.18946 2C7.88528 2 7.62278 2.2132 7.5604 2.51086C7.0522 4.93527 5.15724 6.8302 2.73282 7.33836C2.43517 7.40074 2.22192 7.66328 2.22192 7.96742C2.22192 8.27156 2.43513 8.5341 2.73282 8.59648C5.1572 9.10473 7.05208 10.9996 7.56028 13.4241C7.62267 13.7217 7.88517 13.935 8.18935 13.935C8.49349 13.935 8.75603 13.7218 8.81841 13.4241C9.32665 10.9996 11.2217 9.10473 13.6461 8.5966C13.9437 8.53422 14.157 8.27172 14.157 7.96754C14.1569 7.6634 13.9437 7.40086 13.6461 7.33848ZM12.5836 17.9564C11.4413 17.717 10.5485 16.8242 10.309 15.6818C10.2466 15.3842 9.98413 15.1709 9.67995 15.1709C9.37581 15.1709 9.11327 15.3841 9.05089 15.6818C8.8114 16.8241 7.91854 17.7169 6.77628 17.9564C6.47862 18.0187 6.26538 18.2813 6.26538 18.5854C6.26538 18.8896 6.47858 19.1521 6.77628 19.2145C7.91851 19.4539 8.81136 20.3468 9.05081 21.4891C9.11319 21.7867 9.37569 22 9.67987 22C9.98401 22 10.2466 21.7868 10.3089 21.4891C10.5484 20.3468 11.4413 19.454 12.5836 19.2145C12.8812 19.1521 13.0945 18.8896 13.0945 18.5855C13.0945 18.2813 12.8813 18.0188 12.5836 17.9564ZM18.193 8.93085C18.5167 10.4748 19.7234 11.6816 21.2674 12.0053C21.5651 12.0676 21.7783 12.3302 21.7783 12.6343C21.7783 12.9385 21.565 13.201 21.2674 13.2634C19.7234 13.587 18.5167 14.7937 18.193 16.3377C18.1306 16.6355 17.868 16.8486 17.5639 16.8486C17.2597 16.8486 16.9972 16.6354 16.9348 16.3377C16.6112 14.7937 15.4045 13.587 13.8605 13.2633C13.5628 13.2009 13.3496 12.9384 13.3496 12.6342C13.3496 12.3301 13.5629 12.0676 13.8605 12.0052C15.4045 11.6816 16.6112 10.4748 16.9349 8.93081C16.9973 8.63312 17.2598 8.41995 17.564 8.41995C17.8682 8.41995 18.1307 8.63319 18.193 8.93085Z" fill="#222222"/>
</svg>
