<svg width="24" height="24" viewBox="0 0 24 24" fill="none" xmlns="http://www.w3.org/2000/svg">
<mask id="mask0_11462_22" style="mask-type:alpha" maskUnits="userSpaceOnUse" x="0" y="0" width="24" height="24">
<rect width="24" height="24" fill="#D9D9D9"/>
</mask>
<g mask="url(#mask0_11462_22)">
<path d="M8.4875 21.2875C7.39583 20.8125 6.44583 20.1708 5.6375 19.3625C4.82917 18.5542 4.1875 17.6042 3.7125 16.5125C3.2375 15.4208 3 14.25 3 13C3 11.75 3.2375 10.5792 3.7125 9.4875C4.1875 8.39583 4.82917 7.44583 5.6375 6.6375C6.44583 5.82917 7.39583 5.1875 8.4875 4.7125C9.57917 4.2375 10.75 4 12 4C13.25 4 14.4208 4.2375 15.5125 4.7125C16.6042 5.1875 17.5542 5.82917 18.3625 6.6375C19.1708 7.44583 19.8125 8.39583 20.2875 9.4875C20.7625 10.5792 21 11.75 21 13C21 14.25 20.7625 15.4208 20.2875 16.5125C19.8125 17.6042 19.1708 18.5542 18.3625 19.3625C17.5542 20.1708 16.6042 20.8125 15.5125 21.2875C14.4208 21.7625 13.25 22 12 22C10.75 22 9.57917 21.7625 8.4875 21.2875ZM14.8 17.2L16.2 15.8L13 12.6V8H11V13.4L14.8 17.2ZM5.6 2.35L7 3.75L2.75 8L1.35 6.6L5.6 2.35ZM18.4 2.35L22.65 6.6L21.25 8L17 3.75L18.4 2.35ZM12 20C13.95 20 15.6042 19.3208 16.9625 17.9625C18.3208 16.6042 19 14.95 19 13C19 11.05 18.3208 9.39583 16.9625 8.0375C15.6042 6.67917 13.95 6 12 6C10.05 6 8.39583 6.67917 7.0375 8.0375C5.67917 9.39583 5 11.05 5 13C5 14.95 5.67917 16.6042 7.0375 17.9625C8.39583 19.3208 10.05 20 12 20Z" fill="#1C1B1F"/>
</g>
</svg>
