<svg width="24" height="24" viewBox="0 0 24 24" fill="none" xmlns="http://www.w3.org/2000/svg">
<path fill-rule="evenodd" clip-rule="evenodd" d="M5 4C4.44772 4 4 4.44772 4 5V7C4 7.55228 4.44772 8 5 8H7C7.55228 8 8 7.55228 8 7V5C8 4.44772 7.55228 4 7 4H5ZM5 10C4.44772 10 4 10.4477 4 11V13C4 13.5523 4.44772 14 5 14H7C7.55228 14 8 13.5523 8 13V11C8 10.4477 7.55228 10 7 10H5ZM4 17C4 16.4477 4.44772 16 5 16H7C7.55228 16 8 16.4477 8 17V19C8 19.5523 7.55228 20 7 20H5C4.44772 20 4 19.5523 4 19V17ZM11 4C10.4477 4 10 4.44772 10 5V7C10 7.55228 10.4477 8 11 8H13C13.5523 8 14 7.55228 14 7V5C14 4.44772 13.5523 4 13 4H11ZM10 11C10 10.4477 10.4477 10 11 10H13C13.5523 10 14 10.4477 14 11V13C14 13.5523 13.5523 14 13 14H11C10.4477 14 10 13.5523 10 13V11ZM11 16C10.4477 16 10 16.4477 10 17V19C10 19.5523 10.4477 20 11 20H13C13.5523 20 14 19.5523 14 19V17C14 16.4477 13.5523 16 13 16H11ZM16 5C16 4.44772 16.4477 4 17 4H19C19.5523 4 20 4.44772 20 5V7C20 7.55228 19.5523 8 19 8H17C16.4477 8 16 7.55228 16 7V5ZM17 10C16.4477 10 16 10.4477 16 11V13C16 13.5523 16.4477 14 17 14H19C19.5523 14 20 13.5523 20 13V11C20 10.4477 19.5523 10 19 10H17ZM16 17C16 16.4477 16.4477 16 17 16H19C19.5523 16 20 16.4477 20 17V19C20 19.5523 19.5523 20 19 20H17C16.4477 20 16 19.5523 16 19V17Z" fill="#222222"/>
</svg>
