<svg width="24" height="24" viewBox="0 0 24 24" fill="none" xmlns="http://www.w3.org/2000/svg">
<path fill-rule="evenodd" clip-rule="evenodd" d="M17 19.22H5V7H11.5V5H5C3.9 5 3 5.9 3 7V19C3 20.1 3.9 21 5 21H17C18.1 21 19 20.1 19 19V9H17V19.22Z" fill="#222222"/>
<path d="M14 16C14 15.4477 13.5523 15 13 15H8C7.44772 15 7 15.4477 7 16C7 16.5523 7.44772 17 8 17H13C13.5523 17 14 16.5523 14 16Z" fill="#222222"/>
<path d="M15 13C15 12.4477 14.4883 12 13.8571 12H8.14286C7.51167 12 7 12.4477 7 13C7 13.5523 7.51167 14 8.14286 14H13.8571C14.4883 14 15 13.5523 15 13Z" fill="#222222"/>
<path d="M15 10C15 9.44772 14.4883 9 13.8571 9H8.14286C7.51167 9 7 9.44772 7 10C7 10.5523 7.51167 11 8.14286 11H13.8571C14.4883 11 15 10.5523 15 10Z" fill="#222222"/>
<path d="M17.9999 5.50003C17.9999 6.05232 17.5522 6.50003 16.9999 6.50003C16.4476 6.50003 15.9999 6.05232 15.9999 5.50003C15.9999 4.94775 16.4476 4.50003 16.9999 4.50003C17.5522 4.50003 17.9999 4.94775 17.9999 5.50003Z" fill="#222222"/>
<path fill-rule="evenodd" clip-rule="evenodd" d="M18.1664 4.12756C18.3721 3.94332 18.6882 3.96072 18.8724 4.16641C19.2008 4.53311 19.3358 5.04018 19.3358 5.50001C19.3358 5.95983 19.2008 6.46691 18.8724 6.8336C18.6882 7.0393 18.3721 7.05669 18.1664 6.87245C17.9607 6.68821 17.9433 6.37211 18.1275 6.16641C18.2469 6.03311 18.3358 5.79018 18.3358 5.50001C18.3358 5.20983 18.2469 4.96691 18.1275 4.8336C17.9433 4.62791 17.9607 4.3118 18.1664 4.12756Z" fill="#222222"/>
<path fill-rule="evenodd" clip-rule="evenodd" d="M15.8336 4.12756C15.6279 3.94332 15.3118 3.96072 15.1275 4.16641C14.7991 4.53311 14.6641 5.04018 14.6641 5.50001C14.6641 5.95983 14.7991 6.46691 15.1275 6.8336C15.3118 7.0393 15.6279 7.05669 15.8336 6.87245C16.0393 6.68821 16.0566 6.37211 15.8724 6.16641C15.753 6.03311 15.6641 5.79018 15.6641 5.50001C15.6641 5.20983 15.753 4.96691 15.8724 4.8336C16.0566 4.62791 16.0393 4.3118 15.8336 4.12756Z" fill="#222222"/>
<path fill-rule="evenodd" clip-rule="evenodd" d="M19.122 3.17268C19.3028 2.96394 19.6185 2.94127 19.8273 3.12204C20.8253 3.98633 21.1011 5.03216 20.9691 5.94644C20.843 6.82048 20.3381 7.59343 19.75 7.93302C19.5108 8.07109 19.205 7.98915 19.0669 7.75001C18.9289 7.51086 19.0108 7.20507 19.25 7.067C19.5278 6.90658 19.889 6.42954 19.9794 5.80358C20.0639 5.21786 19.9067 4.51368 19.1726 3.87797C18.9639 3.69719 18.9412 3.38143 19.122 3.17268Z" fill="#222222"/>
<path fill-rule="evenodd" clip-rule="evenodd" d="M14.8779 3.17268C14.6971 2.96394 14.3814 2.94127 14.1726 3.12204C13.1746 3.98633 12.8988 5.03216 13.0308 5.94644C13.157 6.82048 13.6618 7.59343 14.25 7.93302C14.4891 8.07109 14.7949 7.98915 14.933 7.75001C15.071 7.51086 14.9891 7.20507 14.75 7.067C14.4721 6.90658 14.1109 6.42954 14.0206 5.80358C13.936 5.21786 14.0932 4.51368 14.8273 3.87797C15.036 3.69719 15.0587 3.38143 14.8779 3.17268Z" fill="#222222"/>
</svg>
