<svg width="24" height="24" viewBox="0 0 24 24" fill="none" xmlns="http://www.w3.org/2000/svg">
<path d="M9.15979 19.1545L4.82157 14.8163C4.69374 15.4874 4.6498 16.2344 4.68975 17.0573C4.72969 17.8802 4.81358 18.5153 4.94141 18.9627C5.38881 19.0906 6.02796 19.1864 6.85886 19.2504C7.68975 19.3143 8.45672 19.2823 9.15979 19.1545ZM11.2929 18.8429C12.2836 18.6352 13.1984 18.3116 14.0373 17.8722C14.8762 17.4328 15.6156 16.893 16.2557 16.253C16.878 15.6467 17.4008 14.9401 17.8242 14.1332C18.2477 13.3263 18.5872 12.3795 18.8429 11.293L12.7071 5.15715C11.6684 5.42879 10.7337 5.77633 9.9028 6.19976C9.0719 6.6232 8.34487 7.1465 7.7217 7.76967C7.08256 8.40882 6.55526 9.14384 6.13981 9.97473C5.72437 10.8056 5.3968 11.7164 5.15712 12.7071L11.2929 18.8429ZM8.91594 15.0758C8.74295 14.9028 8.65646 14.7004 8.65646 14.4687C8.65646 14.237 8.74434 14.0333 8.92011 13.8576L13.8815 8.89617C14.0376 8.73638 14.2324 8.66048 14.4659 8.66847C14.6995 8.67646 14.9055 8.76174 15.0841 8.92431C15.2411 9.09729 15.3196 9.30363 15.3196 9.54331C15.3196 9.78299 15.2397 9.98272 15.0799 10.1425L10.1185 15.1039C9.96244 15.2637 9.76763 15.3436 9.53407 15.3436C9.30053 15.3436 9.09448 15.2543 8.91594 15.0758ZM19.1784 9.18379C19.3063 8.52866 19.3462 7.78964 19.2983 6.96674C19.2503 6.14384 19.1704 5.5007 19.0586 5.03731C18.5952 4.92546 17.9481 4.83359 17.1172 4.76168C16.2863 4.68978 15.5273 4.71774 14.8402 4.84557L19.1784 9.18379ZM7.50599 21C6.57923 21 5.76431 20.9361 5.06125 20.8083C4.35819 20.6805 3.9028 20.5175 3.69507 20.3196C3.48735 20.1181 3.31957 19.6578 3.19174 18.9388C3.06391 18.2197 3 17.3809 3 16.4221C3 14.3769 3.2904 12.4721 3.87119 10.7078C4.45198 8.94353 5.29607 7.50875 6.40346 6.40349C7.50599 5.31694 8.93402 4.47806 10.6876 3.88685C12.4411 3.29564 14.3526 3.00003 16.4221 3.00003C17.3489 3.00003 18.1806 3.06894 18.9172 3.20675C19.6538 3.34457 20.1244 3.50353 20.3289 3.68365C20.5201 3.89559 20.6797 4.36622 20.8078 5.09553C20.9359 5.82483 21 6.66029 21 7.60189C21 9.64717 20.7004 11.5486 20.1012 13.3063C19.502 15.0639 18.6591 16.486 17.5726 17.5726C16.4731 18.6865 15.0356 19.5362 13.26 20.1217C11.4845 20.7073 9.56648 21 7.50599 21Z" fill="#222222"/>
</svg>
