<svg width="24" height="24" viewBox="0 0 24 24" fill="none" xmlns="http://www.w3.org/2000/svg">
<path fill-rule="evenodd" clip-rule="evenodd" d="M4.04833 5.62604C4.39453 5.39628 4.86228 5.48941 5.09308 5.83405L7.56481 9.52505C8.90238 8.86872 10.4079 8.50001 12 8.50001C13.592 8.50001 15.0976 8.86872 16.4351 9.52505L18.9069 5.83405C19.1377 5.48941 19.6054 5.39628 19.9516 5.62604C20.2978 5.85581 20.3914 6.32146 20.1606 6.6661L17.7346 10.2887C20.0818 11.9163 21.6982 14.5158 21.9955 17.5014C22.0502 18.051 21.5952 18.5 21.0405 18.5H2.95948C2.40471 18.5 1.94971 18.051 2.00444 17.5014C2.30178 14.5158 3.91818 11.9163 6.26532 10.2887L3.83939 6.6661C3.60859 6.32146 3.70214 5.85581 4.04833 5.62604ZM12 10.5C15.744 10.5 18.8917 13.0502 19.7832 16.5H4.21675C5.10826 13.0502 8.25596 10.5 12 10.5ZM8.98647 14.5C8.98647 15.0523 8.53675 15.5 7.98198 15.5C7.42721 15.5 6.97748 15.0523 6.97748 14.5C6.97748 13.9477 7.42721 13.5 7.98198 13.5C8.53675 13.5 8.98647 13.9477 8.98647 14.5ZM17.0225 14.5C17.0225 15.0523 16.5727 15.5 16.018 15.5C15.4632 15.5 15.0135 15.0523 15.0135 14.5C15.0135 13.9477 15.4632 13.5 16.018 13.5C16.5727 13.5 17.0225 13.9477 17.0225 14.5Z" fill="#222222"/>
</svg>
