<svg width="24" height="24" viewBox="0 0 24 24" fill="none" xmlns="http://www.w3.org/2000/svg">
<path fill-rule="evenodd" clip-rule="evenodd" d="M7 3.5H17V4.5H7V3.5ZM19 3.5V4.5V5.5V6.5V17.5V18.5V19.5V20.5C19 21.6046 18.1046 22.5 17 22.5H7C5.89543 22.5 5 21.6046 5 20.5V19.5V18.5V17.5V6.5V5.5V4.5V3.5C5 2.39543 5.89543 1.5 7 1.5H17C18.1046 1.5 19 2.39543 19 3.5ZM7 6.5H17V17.5H7L7 6.5ZM17 19.5V20.5H7V19.5H17ZM9 7.5C8.44772 7.5 8 7.94772 8 8.5V10C8 10.5523 8.44772 11 9 11H10.5C11.0523 11 11.5 10.5523 11.5 10V8.5C11.5 7.94772 11.0523 7.5 10.5 7.5H9ZM8 13.5C8 12.9477 8.44772 12.5 9 12.5H10.5C11.0523 12.5 11.5 12.9477 11.5 13.5V15C11.5 15.5523 11.0523 16 10.5 16H9C8.44772 16 8 15.5523 8 15V13.5ZM13.5 7.5C12.9477 7.5 12.5 7.94772 12.5 8.5V10C12.5 10.5523 12.9477 11 13.5 11H15C15.5523 11 16 10.5523 16 10V8.5C16 7.94772 15.5523 7.5 15 7.5H13.5Z" fill="#222222"/>
</svg>
