<svg width="24" height="24" viewBox="0 0 24 24" fill="none" xmlns="http://www.w3.org/2000/svg">
<path fill-rule="evenodd" clip-rule="evenodd" d="M20.5577 3.01246C20.8184 2.94211 21.0574 3.18105 20.9878 3.44255L20.0624 6.92017C19.9929 7.18167 19.6669 7.26962 19.4757 7.07848L18.7347 6.33753L15.575 9.50426C15.8049 9.62613 16.066 9.77713 16.3377 9.95814C17.1721 10.5141 18.1988 11.4145 18.6297 12.7056C18.9935 13.7956 19.0931 14.6839 19.1549 15.5216C19.2169 16.3628 19.2401 17.1021 19.4298 18.0134C19.5581 18.6296 19.8484 19.0509 20.1027 19.3184C20.2306 19.453 20.3489 19.5479 20.4311 19.6069C20.472 19.6362 20.5033 19.6562 20.5216 19.6674C20.5307 19.673 20.5366 19.6763 20.5386 19.6774C20.5396 19.678 20.5396 19.678 20.5387 19.6775C20.5382 19.6773 20.5375 19.6769 20.5365 19.6763C20.536 19.6761 20.5355 19.6758 20.5348 19.6754C20.5345 19.6753 20.5342 19.6751 20.5339 19.6749C20.5337 19.6748 20.5334 19.6747 20.5333 19.6747C20.8758 19.8556 21.0075 20.2804 20.8273 20.6239C20.647 20.9676 20.2228 21.0998 19.8798 20.9191L20.2063 20.2967C19.8839 20.9113 19.8796 20.9188 19.8792 20.9188C19.8791 20.9187 19.8788 20.9186 19.8786 20.9185C19.8782 20.9183 19.8778 20.918 19.8773 20.9178C19.8764 20.9173 19.8755 20.9168 19.8744 20.9162C19.8723 20.9151 19.87 20.9138 19.8673 20.9124C19.862 20.9095 19.8556 20.906 19.8482 20.9018C19.8333 20.8933 19.8142 20.8822 19.7915 20.8683C19.746 20.8405 19.6855 20.8014 19.6143 20.7503C19.4721 20.6483 19.2846 20.4965 19.0868 20.2884C18.8143 20.0017 18.521 19.6066 18.3018 19.0894C18.2917 19.0804 18.2817 19.071 18.272 19.0612L12.1557 12.9312L9.07777 16.0161L9.4205 17.7667C9.44198 17.8764 9.4101 17.9898 9.33466 18.0722L7.24107 20.3576C7.03452 20.583 6.65909 20.4546 6.63315 20.1497L6.43789 17.8533L4.14992 17.8144C3.84184 17.8092 3.68969 17.4369 3.90557 17.2166L6.07401 15.0033C6.14879 14.927 6.25417 14.8889 6.36033 14.8999L8.03435 15.0731L11.1635 11.9369L5.05063 5.81027C4.41403 5.59133 3.95445 5.24895 3.63906 4.92626C3.44095 4.72357 3.30118 4.53046 3.20872 4.38315C3.16239 4.30931 3.12753 4.24635 3.10284 4.19857C3.09048 4.17466 3.08065 4.15444 3.07314 4.13849C3.06938 4.13051 3.06619 4.12359 3.06358 4.11778C3.06228 4.11488 3.06111 4.11226 3.06009 4.10992C3.05957 4.10876 3.05909 4.10765 3.05865 4.10663C3.05842 4.10611 3.0582 4.10559 3.058 4.10511C3.05789 4.10488 3.05774 4.10455 3.05769 4.10443C3.05756 4.10409 3.06028 4.10251 3.70175 3.82557L3.05741 4.10374C2.90413 3.74709 3.06835 3.33343 3.4242 3.1798C3.77963 3.02635 4.19181 3.19036 4.34553 3.54614C4.34535 3.54573 4.34518 3.54531 4.34502 3.54493C4.34469 3.5442 4.34439 3.54352 4.34412 3.54291C4.34358 3.54168 4.34315 3.54069 4.34282 3.53996C4.34248 3.53919 4.34225 3.53868 4.34214 3.53844C4.34258 3.53938 4.34481 3.54404 4.34889 3.55194C4.35709 3.56781 4.37265 3.59646 4.39647 3.63441C4.44433 3.71067 4.52381 3.82189 4.6414 3.9422C4.82452 4.12955 5.1041 4.34377 5.51642 4.48364C5.58122 4.49326 5.64494 4.51198 5.70552 4.53981C5.75825 4.55335 5.81285 4.5657 5.8694 4.57665C6.78424 4.75377 7.5243 4.76533 8.36705 4.81458C9.20639 4.86362 10.097 4.95006 11.1936 5.30019C12.505 5.71893 13.4771 6.84504 14.0892 7.75C14.274 8.02331 14.4336 8.28805 14.5671 8.52572L17.7414 5.3443L16.9334 4.53648C16.7423 4.34533 16.8293 4.01846 17.09 3.94811L20.5577 3.01246ZM13.1479 11.9368L17.826 16.6254C17.7977 16.275 17.779 15.9434 17.7555 15.6253C17.6975 14.8387 17.6096 14.0823 17.299 13.1517C17.0141 12.2982 16.2941 11.6179 15.5608 11.1292C15.2035 10.8912 14.8649 10.7132 14.616 10.5951C14.585 10.5804 14.5555 10.5667 14.5277 10.554L13.1479 11.9368ZM12.1557 10.9425L13.5312 9.56393C13.3882 9.28403 13.185 8.91944 12.9277 8.53908C12.3603 7.70019 11.6135 6.91023 10.7676 6.64014C9.83152 6.34125 9.0733 6.26454 8.28534 6.2185C8.00032 6.20184 7.70458 6.18909 7.39406 6.17016L12.1557 10.9425Z" fill="#222222"/>
</svg>
