<svg width="24" height="24" viewBox="0 0 24 24" fill="none" xmlns="http://www.w3.org/2000/svg">
<g clip-path="url(#clip0_6906_16)">
<path fill-rule="evenodd" clip-rule="evenodd" d="M4 10.6187V11C6.61243 11 8.8349 12.5271 9.65858 14.9198H19.4593C19.7579 14.9198 20 14.6712 20 14.3646C20 14.1672 19.8979 13.9846 19.7317 13.8851L10.5311 8.37452L10.1354 8.91622C8.71195 10.8649 6.11544 11.4064 4.0779 10.2361C4.02738 10.3547 4 10.4845 4 10.6187ZM4 14.9198V13C5.48055 13 6.77323 13.6922 7.46486 14.9198H4ZM2 10.6187V12.4556V14.9198V16C2 16.5523 2.44772 17 3 17H4V18H6V17H7V18H9V17H10H11H12V18H14V17H15V18H17V17H18V18H20V17C21.1434 16.7455 22 15.6148 22 14.3646C22 13.4368 21.52 12.5788 20.7395 12.1113L10.7694 6.13994C10.3309 5.87727 9.77018 5.99373 9.46555 6.41077L8.5354 7.68413C7.67398 8.8634 6.06536 9.14631 4.87079 8.32864L4.35372 7.97471C4.13499 7.82499 3.85489 7.80708 3.61977 7.92779C2.62707 8.43741 2 9.47916 2 10.6187Z" fill="#222222"/>
</g>
<defs>
<clipPath id="clip0_6906_16">
<rect width="24" height="24" rx="12" fill="white"/>
</clipPath>
</defs>
</svg>
