<svg width="24" height="24" viewBox="0 0 24 24" fill="none" xmlns="http://www.w3.org/2000/svg">
<path fill-rule="evenodd" clip-rule="evenodd" d="M19 6.5C19 7.32843 18.3285 8 17.5 8C16.6716 8 16 7.32843 16 6.5C16 5.67157 16.6716 5 17.5 5C18.3285 5 19 5.67157 19 6.5ZM14 10L12.2094 12.3875L8.21917 17.3753C7.87416 17.8066 7.94408 18.4359 8.37534 18.7809C8.8066 19.1259 9.4359 19.056 9.78091 18.6247L13.4807 14H16.1315L15.168 15.4453C14.8616 15.9048 14.9858 16.5257 15.4453 16.8321C15.9049 17.1384 16.5257 17.0142 16.8321 16.5547L18.8321 13.5547C19.0367 13.2478 19.0557 12.8533 18.8817 12.5281C18.7077 12.203 18.3688 12 18 12H15L16.3676 10.1766L18.6838 10.9487C19.0431 11.0685 19.4393 10.9749 19.7071 10.7071L21.7071 8.70711C22.0976 8.31658 22.0976 7.68342 21.7071 7.29289C21.3166 6.90237 20.6834 6.90237 20.2929 7.29289L18.7299 8.85588L16.3386 8.05877C16.2712 8.0345 16.202 8.01784 16.1322 8.0086C16.0802 8.00159 16.0282 7.9988 15.9767 8H12C11.6212 8 11.275 8.214 11.1056 8.55279L10.1056 10.5528C9.85858 11.0468 10.0588 11.6474 10.5528 11.8944C11.0468 12.1414 11.6474 11.9412 11.8944 11.4472L12.618 10H14ZM5 6C4.44772 6 4 6.44772 4 7C4 7.55228 4.44772 8 5 8H9C9.55228 8 10 7.55228 10 7C10 6.44772 9.55228 6 9 6H5ZM3 10C3 9.44771 3.44772 9 4 9H8C8.55228 9 9 9.44771 9 10C9 10.5523 8.55228 11 8 11H4C3.44772 11 3 10.5523 3 10ZM3 12C2.44772 12 2 12.4477 2 13C2 13.5523 2.44772 14 3 14H7C7.55228 14 8 13.5523 8 13C8 12.4477 7.55228 12 7 12H3Z" fill="#222222"/>
</svg>
