<svg width="24" height="24" viewBox="0 0 24 24" fill="none" xmlns="http://www.w3.org/2000/svg">
<path fill-rule="evenodd" clip-rule="evenodd" d="M13.6554 14.6944L11.0842 17.7586C10.0236 19.0226 8.12168 19.189 6.85771 18.1284C5.59374 17.0678 5.42734 15.1658 6.48794 13.9019L9.05909 10.8377L7.527 9.5521L4.95585 12.6163C3.18176 14.7306 3.45785 17.8863 5.57214 19.6604C7.68642 21.4345 10.8422 21.1584 12.6163 19.0442L15.1874 15.98L13.6554 14.6944ZM11.3837 4.95584L8.81258 8.02001L10.3447 9.30559L12.9158 6.24141C13.9764 4.97744 15.8783 4.81104 17.1423 5.87164C18.4063 6.93224 18.5727 8.83416 17.5121 10.0981L14.9409 13.1623L16.473 14.4479L19.0442 11.3837C20.8183 9.26943 20.5422 6.11365 18.4279 4.33955C16.3136 2.56546 13.1578 2.84155 11.3837 4.95584ZM13.8051 8.29303L8.66282 14.4214L10.1949 15.707L15.3372 9.57861L13.8051 8.29303Z" fill="#222222"/>
</svg>
