<svg width="24" height="24" viewBox="0 0 24 24" fill="none" xmlns="http://www.w3.org/2000/svg">
<path fill-rule="evenodd" clip-rule="evenodd" d="M12 3C7.0368 3 3 7.0368 3 12C3 16.6252 6.50577 20.446 11 20.9448V18.9265C10.4301 18.8418 9.8832 18.6863 9.36654 18.4709L8.72276 16.383L6.56281 16.3449C5.5878 15.1151 5 13.5516 5 11.8498C5 11.7773 5.00519 11.7047 5.0103 11.6332C5.01358 11.5873 5.01684 11.5418 5.01866 11.4971L6.93136 10.3578L6.35288 7.64556C7.24392 6.39666 8.51749 5.45284 10.001 5L12.0023 6.48723L14.0037 5C15.4872 5.45284 16.7561 6.39666 17.6518 7.64556L17.1487 10H20.7761C19.8644 5.99636 16.276 3 12 3ZM11.1141 14.8293C11.5118 12.8187 12.914 11.1692 14.776 10.4257L12 8.40967L8.625 10.8607L9.91277 14.8293H11.1141ZM18.9905 19.9762L19.3991 21H21L17.7539 13H17.2571L14 21H15.6009L16.0095 19.9762H18.9905ZM17.5 16L18.4716 18.6548H16.5284L17.5 16Z" fill="#222222"/>
</svg>
