<svg width="24" height="24" viewBox="0 0 24 24" fill="none" xmlns="http://www.w3.org/2000/svg">
<path fill-rule="evenodd" clip-rule="evenodd" d="M12 2C10.3467 2 9.00649 3.3454 9.00649 5.00503V6.61083H14.9935V5.00503C14.9935 3.3454 13.6533 2 12 2ZM6.69508 18.8615L9.59488 11.9136L8.59499 18.7585C7.9646 18.66 7.31724 18.6937 6.69508 18.8615ZM10.5036 19.4779L11.8665 10.1478H12.1335L13.4964 19.4779L12.9072 19.7804C12.3375 20.0729 11.6625 20.0729 11.0928 19.7804L10.5036 19.4779ZM15.405 18.7585C16.0354 18.66 16.6827 18.6937 17.3049 18.8615L14.4051 11.9135L15.405 18.7585ZM6.9006 20.8984C7.60397 20.6095 8.39791 20.6432 9.07452 20.9906L10.1855 21.561C11.325 22.146 12.675 22.146 13.8145 21.561L14.9255 20.9906C15.6021 20.6432 16.396 20.6095 17.0994 20.8984C18.532 21.4869 19.9582 20.0431 19.3601 18.61L15.1216 8.45456C15.044 8.26872 14.8629 8.14777 14.6622 8.14777H9.33783C9.13711 8.14777 8.956 8.26872 8.87843 8.45456L4.6399 18.61C4.04177 20.0431 5.46802 21.4869 6.9006 20.8984Z" fill="#222222"/>
</svg>
