<svg width="24" height="24" viewBox="0 0 24 24" fill="none" xmlns="http://www.w3.org/2000/svg">
<path d="M18.9965 17.0879L20.5457 7.10568C20.6394 6.50206 20.2264 5.93686 19.6232 5.84324L19.1863 5.77544L18.7881 17.5827C18.8939 17.442 18.9676 17.274 18.9965 17.0879Z" fill="#222222"/>
<path fill-rule="evenodd" clip-rule="evenodd" d="M3.47477 5.01469C3.40171 4.11823 4.06921 3.33229 4.96567 3.25924L13.7308 2.54494C14.6272 2.47189 15.4132 3.13938 15.4862 4.03583L16.6943 18.8608C16.7674 19.7572 16.0999 20.5432 15.2035 20.6162L14.9239 20.639L14.9341 19.9846C15.5816 19.9318 16.0636 19.3642 16.0109 18.7168L14.8351 4.28859C14.7823 3.64116 14.2147 3.15908 13.5673 3.21185L5.21697 3.89234C4.56953 3.9451 4.08745 4.51271 4.14021 5.16015L5.31601 19.5883C5.36877 20.2358 5.93639 20.7179 6.58383 20.6651L7.20605 20.6144L7.41225 21.2512L6.43835 21.3305C5.54189 21.4036 4.75595 20.7361 4.68291 19.8396L3.47477 5.01469Z" fill="#222222"/>
<path d="M18.3472 17.6506L18.5466 5.80643C18.5586 5.09023 17.9882 4.49985 17.2726 4.48781L16.1388 4.46873L17.3148 18.899C17.8957 18.7789 18.3368 18.2689 18.3472 17.6506Z" fill="#222222"/>
<path d="M12.9096 7.8405C13.0606 9.69316 11.6811 11.3174 9.82846 11.4684C7.9758 11.6194 6.35152 10.2399 6.20054 8.38724C6.04956 6.53458 7.42906 4.9103 9.28172 4.75932C11.1344 4.60834 12.7587 5.98784 12.9096 7.8405Z" fill="#222222"/>
<path d="M6.05184 14.8132C5.77348 13.7925 6.4264 12.7517 7.46654 12.5581L12.4877 11.6237C13.6097 11.4149 14.6424 12.2841 14.6282 13.4252L14.5386 20.6102C14.5375 20.7016 14.4683 20.7778 14.3775 20.7878L8.03014 21.4869C7.94162 21.4966 7.85918 21.4405 7.83574 21.3546L6.05184 14.8132Z" fill="#222222"/>
</svg>
