<svg width="24" height="24" viewBox="0 0 24 24" fill="none" xmlns="http://www.w3.org/2000/svg">
<path fill-rule="evenodd" clip-rule="evenodd" d="M7.22132 17.3857C8.49255 18.5145 10.1662 19.2 12 19.2C13.8128 19.2 15.4692 18.53 16.735 17.4242C16.5048 17.2429 16.2865 17.0474 16.0812 16.8387L15.6179 17.1062C15.2831 17.2995 14.855 17.1848 14.6617 16.85C14.4684 16.5152 14.5831 16.0871 14.9179 15.8938L15.1963 15.7331C15.0176 15.4559 14.8583 15.165 14.7201 14.8624L14.4493 14.935C14.0758 15.0351 13.692 14.8134 13.592 14.44C13.4919 14.0666 13.7135 13.6828 14.0869 13.5827L14.2711 13.5334C14.2094 13.2613 14.1637 12.9832 14.1351 12.7L14 12.7C13.6134 12.7 13.3 12.3866 13.3 12C13.3 11.6134 13.6134 11.3 14 11.3L14.1351 11.3C14.1637 11.0168 14.2093 10.7387 14.2711 10.4667L14.0869 10.4174C13.7135 10.3173 13.4919 9.93346 13.592 9.56004C13.692 9.18661 14.0758 8.965 14.4493 9.06506L14.7201 9.13762C14.8582 8.835 15.0176 8.54413 15.1963 8.26692L14.9179 8.10622C14.5831 7.91292 14.4684 7.4848 14.6617 7.15C14.855 6.81519 15.2831 6.70048 15.6179 6.89378L16.0812 7.16124C16.2864 6.95262 16.5048 6.75703 16.7349 6.57581C15.4692 5.46997 13.8128 4.8 12 4.8C10.1662 4.8 8.49258 5.48554 7.22135 6.61431C7.44181 6.79112 7.65122 6.98123 7.84834 7.18341L8.35 6.89378C8.6848 6.70048 9.11292 6.81519 9.30622 7.15C9.49952 7.4848 9.3848 7.91292 9.05 8.10622L8.72779 8.29224C8.90271 8.56624 9.05883 8.85344 9.19433 9.15201L9.51883 9.06506C9.89225 8.965 10.2761 9.18661 10.3761 9.56004C10.4762 9.93346 10.2546 10.3173 9.88117 10.4174L9.6402 10.4819C9.70019 10.7491 9.7447 11.0221 9.7727 11.3L10 11.3C10.3866 11.3 10.7 11.6134 10.7 12C10.7 12.3866 10.3866 12.7 10 12.7L9.7727 12.7C9.74469 12.9779 9.70018 13.251 9.64017 13.5181L9.88117 13.5827C10.2546 13.6828 10.4762 14.0666 10.3761 14.44C10.2761 14.8134 9.89225 15.0351 9.51883 14.935L9.19428 14.848C9.05879 15.1466 8.90268 15.4338 8.72777 15.7077L9.05 15.8938C9.3848 16.0871 9.49952 16.5152 9.30622 16.85C9.11292 17.1848 8.6848 17.2995 8.35 17.1062L7.84831 16.8166C7.65119 17.0188 7.44178 17.2089 7.22132 17.3857ZM16.7638 9.15906C17.0764 9.27153 17.4342 9.14787 17.6062 8.85C17.7299 8.63584 17.7275 8.3835 17.6221 8.17886C17.723 8.08959 17.8275 8.00423 17.9353 7.92304C18.733 9.08215 19.2 10.4865 19.2 12C19.2 13.5134 18.733 14.9178 17.9353 16.0769C17.8275 15.9957 17.723 15.9104 17.6221 15.8211C17.7275 15.6165 17.7299 15.3641 17.6062 15.15C17.4342 14.8521 17.0764 14.7285 16.7638 14.8409C16.664 14.6924 16.5718 14.5384 16.4878 14.3794C16.7954 14.2411 16.9662 13.8963 16.8761 13.56C16.776 13.1866 16.3922 12.965 16.0188 13.0651L16.0118 13.0669C15.9861 12.9461 15.9647 12.8238 15.9477 12.7L16 12.7C16.3866 12.7 16.7 12.3866 16.7 12C16.7 11.6134 16.3866 11.3 16 11.3L15.9477 11.3C15.9647 11.1762 15.9861 11.0539 16.0118 10.9331L16.0188 10.935C16.3922 11.0351 16.776 10.8134 16.8761 10.44C16.9662 10.1037 16.7954 9.75893 16.4878 9.62065C16.5718 9.46163 16.664 9.30759 16.7638 9.15906ZM6.32786 8.21653C6.24064 8.41391 6.24557 8.6488 6.36173 8.85C6.52468 9.13224 6.8545 9.25807 7.15462 9.17482C7.2553 9.32587 7.34813 9.48258 7.43253 9.64437C7.15529 9.7955 7.00666 10.1215 7.092 10.44C7.18756 10.7967 7.54195 11.0148 7.89891 10.9466C7.92342 11.0633 7.94394 11.1816 7.96032 11.3011C7.59218 11.3217 7.3 11.6267 7.3 12C7.3 12.3733 7.59218 12.6783 7.96031 12.6989C7.94393 12.8185 7.92341 12.9367 7.89889 13.0535C7.54193 12.9853 7.18756 13.2034 7.092 13.56C7.00667 13.8785 7.15528 14.2045 7.43248 14.3557C7.34809 14.5174 7.25527 14.6741 7.15459 14.8252C6.85448 14.7419 6.52468 14.8678 6.36173 15.15C6.24558 15.3512 6.24064 15.5861 6.32785 15.7834C6.23278 15.8694 6.13444 15.9519 6.03304 16.0306C5.25463 14.8805 4.8 13.4933 4.8 12C4.8 10.5066 5.25464 9.11947 6.03307 7.96935C6.13446 8.04809 6.2328 8.13055 6.32786 8.21653ZM3 12C3 16.9706 7.02944 21 12 21C16.9706 21 21 16.9706 21 12C21 7.02944 16.9706 3 12 3C7.02944 3 3 7.02944 3 12Z" fill="#222222"/>
</svg>
