<svg width="24" height="24" viewBox="0 0 24 24" fill="none" xmlns="http://www.w3.org/2000/svg">
<path fill-rule="evenodd" clip-rule="evenodd" d="M11.5517 19.1863C11.8647 17.5576 12.59 16.0253 13.6841 14.7341L12.0033 13.0543L7.46318 17.5911C8.593 18.509 10.0064 19.0913 11.5517 19.1863ZM6.40004 16.5259L10.9392 11.9913L9.27437 10.3287C7.98918 11.4499 6.45546 12.2001 4.81957 12.535C4.93022 14.0414 5.50439 15.4191 6.40004 16.5259ZM4.87161 10.9806L4.94724 10.9622C6.13688 10.6517 7.25051 10.0771 8.20741 9.26282L6.40746 7.46493C5.60469 8.45367 5.05886 9.65943 4.87161 10.9806ZM7.47198 6.40174L9.26106 8.18875L9.44306 7.95811C10.1433 7.03756 10.6348 5.99124 10.8983 4.88375C9.61252 5.08118 8.43882 5.61877 7.47198 6.40174ZM12.4515 4.81393C12.1398 6.43873 11.418 7.96727 10.3294 9.2566L12.0033 10.9282L16.5315 6.40454C15.4033 5.48978 13.9931 4.90932 12.4515 4.81393ZM17.5955 7.46855L13.0673 11.9913L14.7412 13.6636L14.9852 13.4584C16.2157 12.457 17.6543 11.782 19.1807 11.4692C19.0707 9.95859 18.4945 8.57733 17.5955 7.46855ZM19.1277 13.0241L19.0103 13.0534C17.8436 13.365 16.7505 13.9313 15.8082 14.7298L17.6026 16.5227C18.3989 15.5374 18.9406 14.3379 19.1277 13.0241ZM16.5404 17.5882L14.7524 15.8016C13.9499 16.7782 13.3926 17.9107 13.1052 19.1157C14.3951 18.917 15.5721 18.3759 16.5404 17.5882ZM17.8071 18.8761C16.2397 20.2012 14.2132 21 12 21C11.9981 21 11.9962 21 11.9943 21C9.92484 21.0015 7.85493 20.2917 6.18167 18.8706L6.16566 18.8857L5.90176 18.6228C5.81067 18.5388 5.72089 18.4525 5.6325 18.364C5.5441 18.2754 5.45793 18.1855 5.37399 18.0943L5.10642 17.8251L5.12246 17.8093C4.33964 16.8837 3.77336 15.8372 3.42363 14.7367C3.14952 13.8769 3.00111 12.961 3.00001 12.0107C3 12.0071 3 12.0036 3 12C3 11.9967 3 11.9934 3.00001 11.9901C3.00103 11.0386 3.1497 10.1217 3.42433 9.26114C3.7752 8.15796 4.34368 7.10914 5.12976 6.1821L5.10642 6.1578L6.16566 5.09714L6.19045 5.12191C7.86204 3.70594 9.92813 2.99864 11.9938 3C11.9959 3 11.9979 3 12 3C14.209 3 16.2321 3.79581 17.7982 5.11638L17.8172 5.09714L18.13 5.41034C18.2916 5.56077 18.4477 5.71707 18.5979 5.87891L18.8765 6.1578L18.8605 6.17449C20.0477 7.57125 20.816 9.3352 20.971 11.2721L20.9815 11.2718L20.9838 11.4549C20.9945 11.6352 21 11.817 21 12C21 12.107 20.9981 12.2136 20.9944 12.3197L21 12.7717L20.9673 12.7724C20.8045 14.6877 20.0419 16.432 18.8681 17.8166L18.8765 17.8251L18.7581 17.9439C18.5062 18.2301 18.2364 18.5002 17.9504 18.7524L17.8172 18.8857L17.8071 18.8761Z" fill="#222222"/>
</svg>
