<svg width="24" height="24" viewBox="0 0 24 24" fill="none" xmlns="http://www.w3.org/2000/svg">
<path fill-rule="evenodd" clip-rule="evenodd" d="M13.5002 7C14.6047 7 15.5002 6.10457 15.5002 5C15.5002 3.89543 14.6047 3 13.5002 3C12.3956 3 11.5002 3.89543 11.5002 5C11.5002 6.10457 12.3956 7 13.5002 7ZM11.3164 7.05132C11.1513 6.99628 10.9747 6.98529 10.804 7.01942L8.30403 7.51942C8.11044 7.55814 7.93265 7.65329 7.79305 7.79289L5.79305 9.79289C5.40253 10.1834 5.40253 10.8166 5.79305 11.2071C6.18356 11.5976 6.81674 11.5976 7.20726 11.2071L8.99317 9.4212L10.9359 9.03266L10.979 9.04704L9.21251 11.8734L6.15694 14.929L3.66455 14.5136C3.11978 14.4228 2.60455 14.7908 2.51376 15.3356C2.42296 15.8804 2.79099 16.3956 3.33576 16.4864L6.33576 16.9864C6.65431 17.0395 6.9789 16.9355 7.20726 16.7071L8.61853 15.2958L8.00893 19.8678C7.93593 20.4153 8.32056 20.9182 8.868 20.9912C9.41544 21.0642 9.9184 20.6796 9.99138 20.1322L10.9628 12.8466L12.9309 9.69766L13.3754 9.84585L15.6864 13.0812C16.0074 13.5307 16.632 13.6347 17.0814 13.3137C17.5308 12.9927 17.6349 12.3682 17.3139 11.9188L14.8139 8.41876C14.691 8.24679 14.5169 8.11815 14.3164 8.05132L12.8164 7.55132L11.3164 7.05132ZM5.50012 19.5C5.50012 20.3284 4.82855 21 4.00012 21C3.17169 21 2.50012 20.3284 2.50012 19.5C2.50012 18.6716 3.17169 18 4.00012 18C4.82855 18 5.50012 18.6716 5.50012 19.5ZM13.5119 18.5975C13.8321 18.9177 14.3419 18.946 14.6955 18.6631C15.7506 17.819 17.2497 17.819 18.3048 18.6631C18.6584 18.946 19.1682 18.9177 19.4884 18.5975L19.793 18.2929C20.1836 17.9024 20.8167 17.9024 21.2073 18.2929C21.5978 18.6834 21.5978 19.3166 21.2073 19.7071L20.9027 20.0117C19.8618 21.0526 18.2048 21.1443 17.0554 20.2248C16.7308 19.9651 16.2695 19.9651 15.9449 20.2248C14.7955 21.1443 13.1385 21.0526 12.0977 20.0117L11.793 19.7071C11.4025 19.3166 11.4025 18.6834 11.793 18.2929C12.1836 17.9024 12.8167 17.9024 13.2073 18.2929L13.5119 18.5975Z" fill="#222222"/>
</svg>
