<svg width="24" height="24" viewBox="0 0 24 24" fill="none" xmlns="http://www.w3.org/2000/svg">
<path fill-rule="evenodd" clip-rule="evenodd" d="M15 4.5C15 5.32843 14.3284 6 13.5 6C12.6716 6 12 5.32843 12 4.5C12 3.67157 12.6716 3 13.5 3C14.3284 3 15 3.67157 15 4.5ZM10.3564 6.35898C10.5547 5.84351 10.2975 5.26491 9.78206 5.06666C9.26659 4.8684 8.688 5.12555 8.48974 5.64102L6.68078 10.3443L5.4453 11.168C4.98577 11.4743 4.8616 12.0952 5.16795 12.5547C5.4743 13.0142 6.09517 13.1384 6.5547 12.8321L8.05471 11.8321C8.22681 11.7173 8.3591 11.552 8.43335 11.359L10.3564 6.35898ZM12.8944 6.55279C12.7172 6.19841 12.3475 5.98206 11.9518 6.00116C11.556 6.02027 11.2089 6.27122 11.0667 6.64102L9.14358 11.641L6.3132 19H3V21H6.97668C6.99212 21.0004 7.00753 21.0004 7.0229 21H12.5H17.1972C18.6578 21 20.0218 20.27 20.8321 19.0547C21.1384 18.5952 21.0143 17.9743 20.5547 17.668C20.0952 17.3616 19.4743 17.4858 19.168 17.9453C18.7287 18.6042 17.9891 19 17.1972 19H13.5V16C13.5 15.8173 13.45 15.6381 13.3553 15.4819L11.1863 11.9013L12.1195 9.47503L13.1056 11.4472C13.275 11.786 13.6212 12 14 12H16C16.5523 12 17 11.5523 17 11C17 10.4477 16.5523 10 16 10H14.618L12.8944 6.55279ZM11.5 19V16.2793L10.2782 14.2623L8.45604 19H11.5ZM16.5 7C16.5 6.72386 16.2762 6.5 16 6.5C15.7239 6.5 15.5 6.72386 15.5 7V9C15.5 9.27614 15.7239 9.5 16 9.5C16.2762 9.5 16.5 9.27614 16.5 9V7ZM16.5 13C16.5 12.7239 16.2762 12.5 16 12.5C15.7239 12.5 15.5 12.7239 15.5 13V17C15.5 17.2761 15.7239 17.5 16 17.5C16.2762 17.5 16.5 17.2761 16.5 17V13Z" fill="#222222"/>
</svg>
