<svg width="24" height="24" viewBox="0 0 24 24" fill="none" xmlns="http://www.w3.org/2000/svg">
<path fill-rule="evenodd" clip-rule="evenodd" d="M11.1576 5.96326C11.5505 5.34558 12.4522 5.34558 12.8451 5.96326L19.8416 16.9617C20.2651 17.6275 19.7868 18.4985 18.9978 18.4985H5.00486C4.21585 18.4985 3.73762 17.6275 4.16112 16.9617L11.1576 5.96326ZM14.5326 4.88979C13.3538 3.03674 10.6489 3.03673 9.47009 4.88979L2.47362 15.8882C1.20314 17.8854 2.63781 20.4985 5.00486 20.4985H18.9978C21.3649 20.4985 22.7996 17.8855 21.5291 15.8883L14.5326 4.88979ZM12.0013 12.5466C13.0697 12.5466 13.9357 11.6803 13.9357 10.6116C13.9357 9.54294 13.0697 8.67661 12.0013 8.67661C10.933 8.67661 10.0669 9.54294 10.0669 10.6116C10.0669 11.6803 10.933 12.5466 12.0013 12.5466ZM9.09976 17.4656C10.1681 17.4656 11.0341 16.5993 11.0341 15.5306C11.0341 14.4619 10.1681 13.5956 9.09976 13.5956C8.03143 13.5956 7.16537 14.4619 7.16537 15.5306C7.16537 16.5993 8.03143 17.4656 9.09976 17.4656ZM16.8373 15.5306C16.8373 16.5993 15.9712 17.4656 14.9029 17.4656C13.8346 17.4656 12.9685 16.5993 12.9685 15.5306C12.9685 14.4619 13.8346 13.5956 14.9029 13.5956C15.9712 13.5956 16.8373 14.4619 16.8373 15.5306Z" fill="#222222"/>
</svg>
