<svg width="24" height="24" viewBox="0 0 24 24" fill="none" xmlns="http://www.w3.org/2000/svg">
<path fill-rule="evenodd" clip-rule="evenodd" d="M12 20C13.8487 20 15.5509 19.3729 16.9056 18.3199L12 13.4142L7.09434 18.3198C8.44903 19.3729 10.1513 20 12 20ZM6.36363 17.6773L6.32274 17.6364C6.33632 17.6501 6.34995 17.6637 6.36363 17.6773ZM5.68013 16.9056L10.5858 12L5.68013 7.09437C4.62708 8.44905 4 10.1513 4 12C4 13.8487 4.62708 15.5509 5.68013 16.9056ZM12 10.5858L7.09434 5.68016C8.44902 4.62709 10.1513 4 12 4C13.8487 4 15.5509 4.62708 16.9056 5.68013L12 10.5858ZM13.4142 12L18.3198 7.09434C19.3729 8.44902 20 10.1513 20 12C20 13.8487 19.3729 15.551 18.3198 16.9057L13.4142 12ZM12 22C17.5228 22 22 17.5228 22 12C22 6.47715 17.5228 2 12 2C6.47715 2 2 6.47715 2 12C2 17.5228 6.47715 22 12 22Z" fill="#222222"/>
</svg>
