<svg width="24" height="24" viewBox="0 0 24 24" fill="none" xmlns="http://www.w3.org/2000/svg">
<path fill-rule="evenodd" clip-rule="evenodd" d="M14.0606 14.2534C14.0235 14.5445 13.9797 14.827 13.9298 15.1H10.0702C9.89913 14.165 9.8 13.1186 9.8 12C9.8 11.918 9.80053 11.8363 9.80159 11.7551L14.0606 14.2534ZM16.6671 15.7825L15.7338 15.235C15.1563 18.6073 13.7023 21 12 21C9.79086 21 8 16.9706 8 12C8 11.5661 8.01365 11.1393 8.04004 10.7217L6.43893 9.78251L5.89937 10.732L4.51929 9.92248L2.50014 8.73802C2.02377 8.45858 1.85878 7.84279 2.13164 7.36261L3.11198 5.63738C3.38483 5.1572 3.9922 4.99448 4.46857 5.27392L6.48772 6.45838L7.86779 7.26794L7.32821 8.21753L8.26575 8.7675C8.84297 5.3939 10.2972 3 12 3C14.2091 3 16 7.02944 16 12C16 12.4349 15.9863 12.8625 15.9598 13.2809L17.5564 14.2175L18.096 13.268L19.4761 14.0775L21.4952 15.262C21.9716 15.5414 22.1366 16.1572 21.8637 16.6374L20.8834 18.3626C20.6105 18.8428 20.0032 19.0055 19.5268 18.7261L17.5076 17.5416L16.1276 16.7321L16.6671 15.7825ZM9.93912 9.74911C9.9762 9.45718 10.0201 9.17382 10.0702 8.9H13.9298C14.1009 9.83504 14.2 10.8814 14.2 12C14.2 12.0829 14.1995 12.1655 14.1984 12.2476L9.93912 9.74911ZM10.8164 17.6329C10.7157 17.4062 10.6201 17.1613 10.5307 16.9H13.4693C13.3799 17.1613 13.2843 17.4062 13.1836 17.6329C12.8827 18.3098 12.5712 18.7461 12.3161 18.9888C12.1934 19.1055 12.1032 19.1592 12.0533 19.1821C12.0292 19.1933 12.0143 19.1973 12.008 19.1988C12.0024 19.2 12.0003 19.2 12 19.2H12H12L11.9974 19.1998L11.992 19.1988C11.9857 19.1973 11.9708 19.1933 11.9467 19.1821C11.8968 19.1592 11.8066 19.1055 11.6839 18.9888C11.4288 18.7461 11.1173 18.3098 10.8164 17.6329ZM13.4693 7.1C13.3799 6.83866 13.2843 6.59383 13.1836 6.36709C12.8827 5.69023 12.5712 5.25391 12.3161 5.01118C12.1934 4.89446 12.1032 4.84083 12.0533 4.81787C12.0292 4.80673 12.0143 4.80267 12.008 4.80124C12.0024 4.79996 12.0003 4.79999 12 4.8L12 4.8L12 4.8C11.9997 4.79999 11.9976 4.79996 11.992 4.80124C11.9857 4.80267 11.9708 4.80673 11.9467 4.81787C11.8968 4.84083 11.8066 4.89446 11.6839 5.01118C11.4288 5.25391 11.1173 5.69023 10.8164 6.36709C10.7157 6.59383 10.6201 6.83866 10.5307 7.1H13.4693ZM4.19562 6.96861L3.80814 7.65051L5.30977 8.53138L5.69725 7.84948L4.19562 6.96861ZM20.1872 16.3495L19.7997 17.0314L18.2981 16.1505L18.6856 15.4686L20.1872 16.3495Z" fill="#222222"/>
</svg>
