<svg width="24" height="24" viewBox="0 0 24 24" fill="none" xmlns="http://www.w3.org/2000/svg">
<path d="M5.60001 20V4H12.2719C13.4698 4 14.4724 4.16927 15.2797 4.50781C16.0922 4.84635 16.7016 5.32031 17.1078 5.92969C17.5193 6.53906 17.725 7.24479 17.725 8.04688C17.725 8.65625 17.5974 9.20052 17.3422 9.67969C17.087 10.1536 16.7354 10.5469 16.2875 10.8594C15.8396 11.1719 15.3214 11.4727 14.7328 11.5977C15.3787 11.6289 15.975 11.8776 16.5219 12.1953C17.074 12.513 17.5167 12.9557 17.85 13.5234C18.1833 14.0859 18.35 14.7526 18.35 15.5234C18.35 16.3828 18.1313 17.151 17.6938 17.8281C17.2563 18.5 16.6234 19.0312 15.7953 19.4219C14.9672 19.8073 13.962 20 12.7797 20H5.60001ZM9.46719 16.8828H11.8578C12.6964 16.8828 13.3135 16.724 13.7094 16.4062C14.1104 16.0885 14.3109 15.6458 14.3109 15.0781C14.3109 14.6667 14.2146 14.3125 14.0219 14.0156C13.8292 13.7135 13.5557 13.4818 13.2016 13.3203C12.8474 13.1536 12.4229 13.0703 11.9281 13.0703H9.46719V16.8828ZM9.46719 10.5781H11.6078C12.0297 10.5781 12.4047 10.5078 12.7328 10.3672C13.0609 10.2266 13.3162 10.0234 13.4984 9.75781C13.6859 9.49219 13.7797 9.17188 13.7797 8.79687C13.7797 8.26042 13.5896 7.83854 13.2094 7.53125C12.8292 7.22396 12.3162 7.07031 11.6703 7.07031H9.46719V10.5781Z" fill="#222222"/>
</svg>
