<svg width="24" height="24" viewBox="0 0 24 24" fill="none" xmlns="http://www.w3.org/2000/svg">
<path fill-rule="evenodd" clip-rule="evenodd" d="M5.1384 5.5H4C2.89543 5.5 2 6.39543 2 7.5V9.5C2 10.6046 2.89543 11.5 4 11.5L4 19.5C4 20.6046 4.89543 21.5 6 21.5H18C19.1046 21.5 20 20.6046 20 19.5V11.5C21.1046 11.5 22 10.6046 22 9.5V7.5C22 6.39543 21.1046 5.5 20 5.5H18.8615C18.5773 4.43474 17.881 3.45508 16.9987 2.94571C15.9476 2.33884 14.7329 2.39763 13.683 2.84608C13.075 3.10581 12.5007 3.50228 11.9987 4.00881C11.4968 3.50228 10.9225 3.10581 10.3145 2.84608C9.26462 2.39763 8.04988 2.33884 6.99873 2.94571C6.11563 3.45557 5.42164 4.43553 5.1384 5.5ZM7.27142 5.5H10.6585C10.3071 5.12417 9.91443 4.85002 9.52882 4.68531C8.91448 4.42289 8.38247 4.45621 7.99873 4.67776C7.72766 4.83427 7.46096 5.137 7.27142 5.5ZM13.339 5.5H16.7276C16.5375 5.13736 16.2703 4.83456 15.9987 4.67776C15.615 4.45621 15.083 4.42289 14.4687 4.68531C14.0831 4.85002 13.6903 5.12417 13.339 5.5ZM4 7.5H11V9.5H6H4V7.5ZM13 9.5V7.5H20V9.5H18H13ZM6 11.5H11V19.5H6V11.5ZM13 11.5V19.5H18V11.5H13Z" fill="#222222"/>
</svg>
