<svg width="24" height="24" viewBox="0 0 24 24" fill="none" xmlns="http://www.w3.org/2000/svg">
<path d="M16.6321 3H9.89615C8.03705 3 6.52821 4.61237 6.52821 6.59904C6.52821 7.70275 7.00421 8.67689 7.73618 9.33911C7.61493 9.32471 7.49369 9.30072 7.36795 9.30072C5.50884 9.30072 4 10.9131 4 12.8998C4 13.6963 4.25596 14.4593 4.70053 15.0832L4.69604 15.088L5.80971 16.6764C6.39349 17.5113 7.26466 17.9288 8.21218 18.1064V21H18.316V18.1064C19.2995 17.7033 20 16.6907 20 15.5007V6.59904C20 4.61237 18.4912 3 16.6321 3ZM9.89615 4.79952H16.6321C17.5616 4.79952 18.316 5.60571 18.316 6.59904C18.316 7.59238 17.5616 8.39856 16.6321 8.39856H9.89615C8.9666 8.39856 8.21218 7.59238 8.21218 6.59904C8.21218 5.60571 8.9666 4.79952 9.89615 4.79952ZM16.6321 19.5716H9.89615L9.90065 18.1064H16.6365L16.6321 19.5716ZM16.8023 16.0362L8.91881 16.0334C8.25869 16.0334 7.56104 16.1629 7.16138 15.5966L6.22734 14.2626L6.24979 14.2386C5.89503 13.8979 5.68846 13.4084 5.68846 12.8998C5.68846 11.9064 6.44289 11.1002 7.37244 11.1002C8.30199 11.1002 9.05641 11.9064 9.05641 12.8998C9.05641 13.346 8.90373 13.7731 8.62532 14.0994L9.87819 15.3039C10.435 14.6417 10.7404 13.7875 10.7404 12.8998C10.7404 11.7961 10.2644 10.8219 9.53242 10.1597C9.65366 10.1741 9.77491 10.1981 9.90065 10.1981L15.9407 10.2142C16.5559 10.2142 17.5059 10.123 18.0044 9.81593V15.0908C17.9999 15.6427 17.3187 16.0362 16.8023 16.0362Z" fill="#222222"/>
</svg>
