<svg width="24" height="24" viewBox="0 0 24 24" fill="none" xmlns="http://www.w3.org/2000/svg">
<path d="M14.5877 11.8936C14.5877 13.2743 13.4684 14.3936 12.0877 14.3936C10.707 14.3936 9.58771 13.2743 9.58771 11.8936C9.58771 10.5128 10.707 9.39355 12.0877 9.39355C13.4684 9.39355 14.5877 10.5128 14.5877 11.8936Z" fill="#222222"/>
<path d="M6.33666 5.41406C2.82234 8.92838 2.82234 14.6283 6.33666 18.1426L4.92162 19.5566C0.629681 15.2645 0.622604 8.29917 4.92162 4L6.33666 5.41406Z" fill="#222222"/>
<path d="M9.16479 8.24316C7.21336 10.1947 7.21337 13.3619 9.16479 15.3135L7.75072 16.7285C5.01422 13.992 5.01422 9.56463 7.75072 6.82812L9.16479 8.24316Z" fill="#222222"/>
<path d="M19.1942 4.17188C23.4862 8.46402 23.4933 15.4293 19.1942 19.7285L17.7801 18.3135C21.2942 14.7992 21.2943 9.10018 17.7801 5.58594L19.1942 4.17188Z" fill="#222222"/>
<path d="M16.366 7C19.1024 9.73643 19.1023 14.1629 16.366 16.8994L14.952 15.4854C16.9033 13.5337 16.9035 10.3656 14.952 8.41406L16.366 7Z" fill="#222222"/>
</svg>
