<svg width="24" height="24" viewBox="0 0 24 24" fill="none" xmlns="http://www.w3.org/2000/svg">
<path fill-rule="evenodd" clip-rule="evenodd" d="M7 4C7 3.44772 7.44772 3 8 3C8.55228 3 9 3.44772 9 4V4.05884H15V4C15 3.44772 15.4477 3 16 3C16.5523 3 17 3.44772 17 4V4.05884H20C20.5523 4.05884 21 4.50655 21 5.05884V10V20C21 20.5523 20.5523 21 20 21H4C3.44772 21 3 20.5523 3 20V10V5.05884C3 4.50655 3.44772 4.05884 4 4.05884H7V4ZM19 6.05884V9H5V6.05884H7V7.29412C7 7.8464 7.44772 8.29412 8 8.29412C8.55228 8.29412 9 7.8464 9 7.29412V6.05884H15V7.29412C15 7.8464 15.4477 8.29412 16 8.29412C16.5523 8.29412 17 7.8464 17 7.29412V6.05884H19ZM19 11H5V19H19V11ZM8 14C7.44772 14 7 14.4477 7 15C7 15.5523 7.44772 16 8 16C8.55228 16 9 15.5523 9 15C9 14.4477 8.55228 14 8 14ZM11 15C11 14.4477 11.4477 14 12 14C12.5523 14 13 14.4477 13 15C13 15.5523 12.5523 16 12 16C11.4477 16 11 15.5523 11 15ZM16 14C15.4477 14 15 14.4477 15 15C15 15.5523 15.4477 16 16 16C16.5523 16 17 15.5523 17 15C17 14.4477 16.5523 14 16 14Z" fill="#222222"/>
</svg>
