<svg width="24" height="24" viewBox="0 0 24 24" fill="none" xmlns="http://www.w3.org/2000/svg">
<path fill-rule="evenodd" clip-rule="evenodd" d="M8 6V4C8 3.44772 8.44772 3 9 3H15C15.5523 3 16 3.44772 16 4V6H20C21.1046 6 22 6.89543 22 8V19C22 20.1046 21.1046 21 20 21H4C2.89543 21 2 20.1046 2 19V8C2 6.89543 2.89543 6 4 6H8ZM10 6V5H14V6H10ZM5.04403 8L6.03024 11.2873C6.15713 11.7103 6.54645 12 6.98806 12H8C8 11.4477 8.44772 11 9 11H15C15.5523 11 16 11.4477 16 12H17.0119C17.4535 12 17.8429 11.7103 17.9698 11.2873L18.956 8H5.04403ZM20 11.4801L19.8854 11.862C19.5047 13.131 18.3368 14 17.0119 14H16V15C16 15.5523 15.5523 16 15 16H9C8.44772 16 8 15.5523 8 15V14H6.98806C5.66324 14 4.49527 13.131 4.11458 11.862L4 11.4801V19H20V11.4801ZM10 13V14H14V13H10Z" fill="#222222"/>
</svg>
