<svg width="24" height="24" viewBox="0 0 24 24" fill="none" xmlns="http://www.w3.org/2000/svg">
<path fill-rule="evenodd" clip-rule="evenodd" d="M12.6585 2.24742C12.2815 1.91753 11.7185 1.91753 11.3415 2.24742L3.34151 9.24742C2.92587 9.61111 2.88375 10.2429 3.24744 10.6585C3.61112 11.0741 4.24288 11.1163 4.65852 10.7526L12 4.32877L17.3386 9H17C16.4477 9 16 9.44772 16 10C16 10.5523 16.4477 11 17 11H20C20.5523 11 21 10.5523 21 10V7C21 6.44772 20.5523 6 20 6C19.4477 6 19 6.44772 19 7V7.79623L12.6585 2.24742ZM20.6585 14.7526C21.0742 14.3889 21.1163 13.7571 20.7526 13.3415C20.3889 12.9259 19.7571 12.8837 19.3415 13.2474L12 19.6712L6.66146 15H7.00001C7.5523 15 8.00001 14.5523 8.00001 14C8.00001 13.4477 7.5523 13 7.00001 13H4.00001C3.44773 13 3.00001 13.4477 3.00001 14V17C3.00001 17.5523 3.44773 18 4.00001 18C4.5523 18 5.00001 17.5523 5.00001 17V16.2038L11.3415 21.7526C11.7185 22.0825 12.2815 22.0825 12.6585 21.7526L20.6585 14.7526Z" fill="#222222"/>
</svg>
