<svg width="24" height="24" viewBox="0 0 24 24" fill="none" xmlns="http://www.w3.org/2000/svg">
<path fill-rule="evenodd" clip-rule="evenodd" d="M14 6C14 7.10457 13.1046 8 12 8C10.8954 8 10 7.10457 10 6C10 4.89543 10.8954 4 12 4C13.1046 4 14 4.89543 14 6ZM15.4649 8C15.8052 7.41165 16 6.72857 16 6C16 3.79086 14.2091 2 12 2C9.79086 2 8 3.79086 8 6C8 6.72857 8.19479 7.41165 8.53513 8H8C7.44772 8 7 8.44772 7 9C7 9.55228 7.44772 10 8 10H8.75338L7.19783 17H7C5.89543 17 5 17.8954 5 19V21C5 21.5523 5.44772 22 6 22H18C18.5523 22 19 21.5523 19 21V19C19 17.8954 18.1046 17 17 17H16.8022L15.2466 10H16C16.5523 10 17 9.55228 17 9C17 8.44772 16.5523 8 16 8H15.4649ZM12 10H10.8022L9.24662 17H14.7534L13.1978 10H12ZM7 19H8H16H17V20H7V19Z" fill="#222222"/>
</svg>
