<svg width="24" height="24" viewBox="0 0 24 24" fill="none" xmlns="http://www.w3.org/2000/svg">
<path d="M10.6345 2.93195L8.31055 2L8.5222 4.50486C8.53349 4.76073 8.49978 5.16418 8.37532 5.65945C8.19414 6.38045 7.86218 7.09865 7.34125 7.78487L7.08082 8.11219L6.12861 9.27258C4.20238 11.6701 3.54513 13.6075 4.31411 16.4489C4.72678 17.9738 5.5038 19.1781 6.534 20.0716C7.10144 20.5637 7.7083 20.9299 8.31886 21.1908C8.70089 21.3541 9.01709 21.4495 9.23744 21.4952L11.6702 22L11.0427 19.5584L11.0247 19.4572C11.0221 19.4405 11.0192 19.422 11.0162 19.4018L10.9922 19.2085L11.0309 19.2648C11.7952 20.347 12.8508 21.1465 14.2306 21.5352L14.7707 21.6874L15.2819 21.4541C15.8997 21.1721 16.7511 20.6444 17.6063 19.8351C19.1146 18.4075 20.0357 16.6025 19.9989 14.4383C19.9668 12.5479 19.5199 10.8908 18.7909 9.48372C18.3217 8.57828 17.8345 7.94592 17.465 7.58321L15.6779 5.82905L15.0224 7.89058L14.9816 7.71301L14.947 7.57551L14.9102 7.43732C14.6017 6.18354 13.8312 5.11461 12.775 4.23966C11.9838 3.58431 11.2028 3.15986 10.6345 2.93195ZM10.1597 5.18605L10.2718 5.23242L10.5001 5.33686L10.6512 5.41177L10.8224 5.50191L11.0102 5.60736C11.0753 5.64508 11.1425 5.68536 11.2115 5.72822L11.4227 5.86458C12.1754 6.369 13.049 7.15959 13.3916 8.2527L13.4368 8.41092C13.7605 9.53575 13.7517 10.4841 13.6666 11.1406L13.6375 11.3381L13.6051 11.5153L13.5712 11.6716L13.5376 11.806L13.4917 11.965L13.4368 12.1226C14.3552 11.7039 15.005 11.1456 15.4533 10.6294L15.6033 10.4492C15.6978 10.3307 15.7816 10.2156 15.8556 10.1065L15.9592 9.94743C15.9753 9.92176 15.9908 9.89652 16.0057 9.87176L16.0884 9.72926L16.158 9.6L16.2391 9.43482L16.3178 9.25088L16.3359 9.20192L16.4532 9.32299L16.5642 9.44865L16.6539 9.55688L16.7543 9.6846L16.8634 9.83175L16.9796 9.99829L17.1009 10.1842L17.2258 10.3893C17.7506 11.2841 18.319 12.6792 18.3526 14.5564C18.3926 16.796 16.8843 18.276 15.7768 19.0585L15.5802 19.1931L15.3952 19.3124L15.2241 19.4165L15.0697 19.5055L14.875 19.6108L14.6343 19.7284C12.7822 19.2317 11.9194 17.7799 11.5177 16.5597L11.4455 16.3267C11.4122 16.212 11.3828 16.1002 11.357 15.9923L11.3099 15.7822L11.2714 15.5845L11.2405 15.4012L11.2068 15.1575L11.1807 14.9006L11.1681 14.6781C10.2437 15.5705 9.82151 16.5639 9.64569 17.4279L9.60366 17.6602L9.57269 17.885L9.55163 18.1013C9.54339 18.2071 9.53844 18.3094 9.53612 18.4075L9.5348 18.598L9.53936 18.7764L9.54865 18.9416L9.56892 19.1625L9.60174 19.4012L9.62564 19.5339L9.65553 19.6675L9.51616 19.6329L9.43051 19.6079L9.26982 19.5554L9.14354 19.5093L9.00379 19.4535C8.97947 19.4434 8.95465 19.4328 8.92937 19.4218L8.7724 19.3502L8.60595 19.2673C7.72418 18.8084 6.52625 17.8667 6.00025 16.0167C5.38076 13.8379 6.06616 12.439 7.09662 11.125L7.28756 10.8868L7.48483 10.6496L8.4164 9.56903L8.52113 9.44531C9.10442 8.76564 9.4823 8.08597 9.72646 7.47553L9.81717 7.23521C9.85912 7.11706 9.89611 7.00205 9.92871 6.89073L9.98822 6.67318L10.037 6.46646L10.0762 6.27155L10.1067 6.08944L10.1295 5.92112L10.1458 5.76757L10.1564 5.62977L10.1641 5.45476L10.1635 5.25579L10.1597 5.18605Z" fill="#222222"/>
</svg>
