<svg width="24" height="24" viewBox="0 0 24 24" fill="none" xmlns="http://www.w3.org/2000/svg">
<path fill-rule="evenodd" clip-rule="evenodd" d="M8 5H6V20H18V5H16V6C16 7.10457 15.1046 8 14 8H10C8.89543 8 8 7.10457 8 6V5ZM15.7324 3H18.5C19.3284 3 20 3.67157 20 4.5V20.5C20 21.3284 19.3284 22 18.5 22H5.5C4.67157 22 4 21.3284 4 20.5V4.5C4 3.67157 4.67157 3 5.5 3H8.26756C8.61337 2.4022 9.25972 2 10 2H14C14.7403 2 15.3866 2.4022 15.7324 3ZM10 4H14V6H10V4ZM10 12C10 12.5523 9.55228 13 9 13C8.44772 13 8 12.5523 8 12C8 11.4477 8.44772 11 9 11C9.55228 11 10 11.4477 10 12ZM9 17C9.55228 17 10 16.5523 10 16C10 15.4477 9.55228 15 9 15C8.44772 15 8 15.4477 8 16C8 16.5523 8.44772 17 9 17ZM11 12C11 11.4477 11.4477 11 12 11H15C15.5523 11 16 11.4477 16 12C16 12.5523 15.5523 13 15 13H12C11.4477 13 11 12.5523 11 12ZM12 15C11.4477 15 11 15.4477 11 16C11 16.5523 11.4477 17 12 17H15C15.5523 17 16 16.5523 16 16C16 15.4477 15.5523 15 15 15H12Z" fill="#222222"/>
</svg>
