<svg width="24" height="24" viewBox="0 0 24 24" fill="none" xmlns="http://www.w3.org/2000/svg">
<path fill-rule="evenodd" clip-rule="evenodd" d="M15 3H10V5H15C15.5041 5 15.8305 5.1595 16.07 5.37241C16.3302 5.60367 16.5358 5.94348 16.6887 6.35112C16.7703 6.56878 16.8312 6.79058 16.8763 7H5V9H18H19V8H18C19 8 19 7.99962 19 7.99922V7.99835L19 7.99632L19 7.99115L18.9998 7.97643C18.9997 7.9647 18.9994 7.94917 18.999 7.93009C18.998 7.89194 18.9962 7.83945 18.9927 7.77463C18.9858 7.64529 18.9722 7.46523 18.9454 7.25097C18.8925 6.82763 18.785 6.24539 18.5613 5.64888C18.3392 5.05652 17.9823 4.39633 17.3987 3.87759C16.7945 3.3405 15.9959 3 15 3ZM6 12H18C19.1046 12 20 12.8954 20 14V17C20 18.1046 19.1046 19 18 19H6C4.89543 19 4 18.1046 4 17V14C4 12.8954 4.89543 12 6 12ZM2 14C2 11.7909 3.79086 10 6 10H18C20.2091 10 22 11.7909 22 14V17C22 19.2091 20.2091 21 18 21H6C3.79086 21 2 19.2091 2 17V14Z" fill="#222222"/>
</svg>
