<svg width="24" height="24" viewBox="0 0 24 24" fill="none" xmlns="http://www.w3.org/2000/svg">
<path fill-rule="evenodd" clip-rule="evenodd" d="M14.5 7C15.3284 7 16 6.32843 16 5.5C16 4.67157 15.3284 4 14.5 4C13.6716 4 13 4.67157 13 5.5C13 6.32843 13.6716 7 14.5 7ZM10.4707 7.24756C11.2762 6.30781 12.7333 6.31792 13.5257 7.26877L14.9684 9H16C16.5523 9 17 9.44772 17 10C17 10.5523 16.5523 11 16 11H14.5937C14.2375 11 13.8998 10.8418 13.6718 10.5682L11.9892 8.54914L10.4937 10.2939L12.5547 11.6679L13 11.9648V12.5V17H11V13.0352L9.38429 11.958C8.38583 11.2924 8.19423 9.90347 8.97518 8.99236L10.4707 7.24756ZM8 16C8 17.1046 7.10457 18 6 18C4.89543 18 4 17.1046 4 16C4 14.8954 4.89543 14 6 14C7.10457 14 8 14.8954 8 16ZM10 16C10 18.2091 8.20914 20 6 20C3.79086 20 2 18.2091 2 16C2 13.7909 3.79086 12 6 12C8.20914 12 10 13.7909 10 16ZM20 16C20 17.1046 19.1046 18 18 18C16.8954 18 16 17.1046 16 16C16 14.8954 16.8954 14 18 14C19.1046 14 20 14.8954 20 16ZM22 16C22 18.2091 20.2091 20 18 20C15.7909 20 14 18.2091 14 16C14 13.7909 15.7909 12 18 12C20.2091 12 22 13.7909 22 16Z" fill="#222222"/>
</svg>
