<svg width="16" height="16" viewBox="0 0 16 16" fill="none" xmlns="http://www.w3.org/2000/svg">
<path fill-rule="evenodd" clip-rule="evenodd" d="M6.90353 0.5C6.53458 0.5 6.20704 0.736083 6.09037 1.08609L5.7143 2.21429H2.85714C2.38376 2.21429 2 2.59805 2 3.07144C2 3.54482 2.38376 3.92858 2.85714 3.92858H13.1429C13.6162 3.92858 14 3.54482 14 3.07144C14 2.59805 13.6162 2.21429 13.1429 2.21429H10.2857L9.90967 1.08609C9.793 0.736083 9.46545 0.5 9.09651 0.5H6.90353ZM2.85718 4.78571H13.1429L12.4405 13.9172C12.3718 14.8103 11.627 15.5 10.7312 15.5H5.32506C4.43331 15.5 3.69049 14.8163 3.61666 13.9276L2.85718 4.78571Z" fill="#222222"/>
</svg>
