<svg width="16" height="16" viewBox="0 0 16 16" fill="none" xmlns="http://www.w3.org/2000/svg">
<path d="M14.5003 13.4997C14.9145 13.4997 15.2502 13.8356 15.2503 14.2497C15.2503 14.6639 14.9145 14.9997 14.5003 14.9997H1.50029C1.08614 14.9997 0.750292 14.6639 0.750292 14.2497C0.750362 13.8356 1.08618 13.4998 1.50029 13.4997H14.5003ZM3.5003 6.74973C3.91447 6.74973 4.25023 7.08558 4.2503 7.49973V11.9997C4.2503 12.4139 3.91451 12.7497 3.5003 12.7497C3.08614 12.7497 2.75029 12.4139 2.75029 11.9997V7.49973C2.75036 7.08562 3.08618 6.7498 3.5003 6.74973ZM8.0003 6.74973C8.41447 6.74973 8.75023 7.08558 8.7503 7.49973V11.9997C8.7503 12.4139 8.41452 12.7497 8.0003 12.7497C7.58616 12.7496 7.2503 12.4139 7.2503 11.9997V7.49973C7.25037 7.08563 7.58621 6.74982 8.0003 6.74973ZM12.5003 6.74973C12.9145 6.74973 13.2502 7.08558 13.2503 7.49973V11.9997C13.2503 12.4139 12.9145 12.7497 12.5003 12.7497C12.0862 12.7497 11.7503 12.4139 11.7503 11.9997V7.49973C11.7504 7.08562 12.0862 6.7498 12.5003 6.74973ZM7.72979 1.05051C7.93268 0.971984 8.16149 0.98503 8.35577 1.08957L14.8558 4.58957C15.1583 4.75246 15.3118 5.10018 15.2278 5.43332C15.1438 5.76641 14.8438 5.99973 14.5003 5.99973H1.50029C1.15681 5.99967 0.856795 5.76637 0.772753 5.43332C0.688845 5.10022 0.842376 4.75246 1.14482 4.58957L7.64483 1.08957L7.72979 1.05051ZM4.47491 4.49973H11.5257L8.0003 2.60129L4.47491 4.49973Z" fill="#222222"/>
</svg>
