<svg width="16" height="16" viewBox="0 0 16 16" fill="none" xmlns="http://www.w3.org/2000/svg">
<path d="M13 9.5C13.4142 9.5 13.75 9.83579 13.75 10.25V12.25C13.75 13.2165 12.9665 14 12 14H4C3.0335 14 2.25 13.2165 2.25 12.25V10.25C2.25 9.83579 2.58579 9.5 3 9.5C3.41421 9.5 3.75 9.83579 3.75 10.25V12.25C3.75 12.3881 3.86193 12.5 4 12.5H12C12.1381 12.5 12.25 12.3881 12.25 12.25V10.25C12.25 9.83579 12.5858 9.5 13 9.5ZM8 2C8.41421 2 8.75 2.33579 8.75 2.75V8.43945L10.4697 6.71973C10.7626 6.42683 11.2374 6.42683 11.5303 6.71973C11.8232 7.01262 11.8232 7.48738 11.5303 7.78027L8.53027 10.7803C8.23738 11.0732 7.76262 11.0732 7.46973 10.7803L4.46973 7.78027C4.17683 7.48738 4.17683 7.01262 4.46973 6.71973C4.74433 6.44512 5.17905 6.42766 5.47363 6.66797L5.53027 6.71973L7.25 8.43945V2.75C7.25 2.33579 7.58579 2 8 2Z" fill="#222222"/>
</svg>
