<svg width="16" height="16" viewBox="0 0 16 16" fill="none" xmlns="http://www.w3.org/2000/svg">
<mask id="mask0_11364_57" style="mask-type:alpha" maskUnits="userSpaceOnUse" x="0" y="0" width="16" height="16">
<rect width="16" height="16" fill="#D9D9D9"/>
</mask>
<g mask="url(#mask0_11364_57)">
<path d="M8.00004 14.6667C7.07782 14.6667 6.21115 14.4917 5.40004 14.1417C4.58893 13.7917 3.88337 13.3167 3.28337 12.7167C2.68337 12.1167 2.20837 11.4111 1.85837 10.6C1.50837 9.78891 1.33337 8.92224 1.33337 8.00002C1.33337 7.0778 1.50837 6.21113 1.85837 5.40002C2.20837 4.58891 2.68337 3.88335 3.28337 3.28335C3.88337 2.68335 4.58893 2.20835 5.40004 1.85835C6.21115 1.50835 7.07782 1.33335 8.00004 1.33335C8.47782 1.33335 8.93893 1.38058 9.38338 1.47502C9.82782 1.56946 10.2556 1.70558 10.6667 1.88335V3.38335C10.2778 3.16113 9.85838 2.98613 9.40837 2.85835C8.95837 2.73058 8.48893 2.66669 8.00004 2.66669C6.52226 2.66669 5.26393 3.18613 4.22504 4.22502C3.18615 5.26391 2.66671 6.52224 2.66671 8.00002C2.66671 9.4778 3.18615 10.7361 4.22504 11.775C5.26393 12.8139 6.52226 13.3334 8.00004 13.3334C9.47782 13.3334 10.7362 12.8139 11.775 11.775C12.8139 10.7361 13.3334 9.4778 13.3334 8.00002C13.3334 7.64446 13.2973 7.30002 13.225 6.96669C13.1528 6.63335 13.0556 6.31113 12.9334 6.00002H14.3667C14.4667 6.32224 14.5417 6.64724 14.5917 6.97502C14.6417 7.3028 14.6667 7.64446 14.6667 8.00002C14.6667 8.92224 14.4917 9.78891 14.1417 10.6C13.7917 11.4111 13.3167 12.1167 12.7167 12.7167C12.1167 13.3167 11.4112 13.7917 10.6 14.1417C9.78893 14.4917 8.92226 14.6667 8.00004 14.6667ZM13.3334 4.66669V3.33335H12V2.00002H13.3334V0.666687H14.6667V2.00002H16V3.33335H14.6667V4.66669H13.3334ZM10.3334 7.33335C10.6112 7.33335 10.8473 7.23613 11.0417 7.04169C11.2362 6.84724 11.3334 6.61113 11.3334 6.33335C11.3334 6.05558 11.2362 5.81947 11.0417 5.62502C10.8473 5.43058 10.6112 5.33335 10.3334 5.33335C10.0556 5.33335 9.81949 5.43058 9.62504 5.62502C9.4306 5.81947 9.33337 6.05558 9.33337 6.33335C9.33337 6.61113 9.4306 6.84724 9.62504 7.04169C9.81949 7.23613 10.0556 7.33335 10.3334 7.33335ZM5.66671 7.33335C5.94449 7.33335 6.1806 7.23613 6.37504 7.04169C6.56949 6.84724 6.66671 6.61113 6.66671 6.33335C6.66671 6.05558 6.56949 5.81947 6.37504 5.62502C6.1806 5.43058 5.94449 5.33335 5.66671 5.33335C5.38893 5.33335 5.15282 5.43058 4.95837 5.62502C4.76393 5.81947 4.66671 6.05558 4.66671 6.33335C4.66671 6.61113 4.76393 6.84724 4.95837 7.04169C5.15282 7.23613 5.38893 7.33335 5.66671 7.33335ZM10.0584 11.025C10.675 10.5972 11.1223 10.0334 11.4 9.33335H4.60004C4.87782 10.0334 5.32504 10.5972 5.94171 11.025C6.55837 11.4528 7.24449 11.6667 8.00004 11.6667C8.7556 11.6667 9.44171 11.4528 10.0584 11.025Z" fill="#222222"/>
</g>
</svg>
