<svg width="16" height="16" viewBox="0 0 16 16" fill="none" xmlns="http://www.w3.org/2000/svg">
<path d="M10.3333 7.33331C9.77996 7.33331 9.33329 6.88665 9.33329 6.33331C9.33329 5.77998 9.77996 5.33331 10.3333 5.33331C10.8866 5.33331 11.3333 5.77998 11.3333 6.33331C11.3333 6.88665 10.8866 7.33331 10.3333 7.33331Z" fill="#222222"/>
<path d="M5.66663 7.33331C5.11329 7.33331 4.66663 6.88665 4.66663 6.33331C4.66663 5.77998 5.11329 5.33331 5.66663 5.33331C6.21996 5.33331 6.66663 5.77998 6.66663 6.33331C6.66663 6.88665 6.21996 7.33331 5.66663 7.33331Z" fill="#222222"/>
<path fill-rule="evenodd" clip-rule="evenodd" d="M7.99984 2.66669C5.05432 2.66669 2.6665 5.0545 2.6665 8.00002C2.6665 10.9455 5.05432 13.3334 7.99984 13.3334C10.9454 13.3334 13.3332 10.9455 13.3332 8.00002C13.3332 5.0545 10.9454 2.66669 7.99984 2.66669ZM1.33317 8.00002C1.33317 4.31812 4.31794 1.33335 7.99984 1.33335C11.6817 1.33335 14.6665 4.31812 14.6665 8.00002C14.6665 11.6819 11.6817 14.6667 7.99984 14.6667C4.31794 14.6667 1.33317 11.6819 1.33317 8.00002Z" fill="#222222"/>
<path d="M5.33337 9.66669C5.33337 9.66669 6.00004 11 8.00004 11C10 11 10.6667 9.66669 10.6667 9.66669" stroke="#222222" stroke-width="1.33333" stroke-linecap="round"/>
</svg>
