<svg width="24" height="24" viewBox="0 0 24 24" fill="none" xmlns="http://www.w3.org/2000/svg">
<path d="M15.5 11C14.67 11 14 10.33 14 9.5C14 8.67 14.67 8 15.5 8C16.33 8 17 8.67 17 9.5C17 10.33 16.33 11 15.5 11Z" fill="#222222"/>
<path d="M8.5 11C7.67 11 7 10.33 7 9.5C7 8.67 7.67 8 8.5 8C9.33 8 10 8.67 10 9.5C10 10.33 9.33 11 8.5 11Z" fill="#222222"/>
<path fill-rule="evenodd" clip-rule="evenodd" d="M11.9998 4C7.58148 4 3.99976 7.58172 3.99976 12C3.99976 16.4183 7.58148 20 11.9998 20C16.418 20 19.9998 16.4183 19.9998 12C19.9998 7.58172 16.418 4 11.9998 4ZM1.99976 12C1.99976 6.47715 6.47691 2 11.9998 2C17.5226 2 21.9998 6.47715 21.9998 12C21.9998 17.5228 17.5226 22 11.9998 22C6.47691 22 1.99976 17.5228 1.99976 12Z" fill="#222222"/>
<path d="M8 14.5C8 14.5 9 16.5 12 16.5C15 16.5 16 14.5 16 14.5" stroke="#222222" stroke-width="2" stroke-linecap="round"/>
</svg>
