<svg width="24" height="24" viewBox="0 0 24 24" fill="none" xmlns="http://www.w3.org/2000/svg">
<path d="M4.53881 19C3.68753 19 3.02821 18.7042 2.56084 18.1125C2.09347 17.5208 1.91821 16.8 2.03505 15.95L3.08663 8.45C3.23686 7.45 3.68336 6.625 4.42614 5.975C5.16892 5.325 6.04106 5 7.04256 5H16.9574C17.9589 5 18.8311 5.325 19.5739 5.975C20.3166 6.625 20.7631 7.45 20.9134 8.45L21.9649 15.95C22.0818 16.8 21.9065 17.5208 21.4392 18.1125C20.9718 18.7042 20.3125 19 19.4612 19C19.1107 19 18.7852 18.9375 18.4847 18.8125C18.1843 18.6875 17.9089 18.5 17.6585 18.25L15.4051 16H8.59489L6.34151 18.25C6.09114 18.5 5.81572 18.6875 5.51527 18.8125C5.21482 18.9375 4.88933 19 4.53881 19ZM4.93941 16.85L7.79369 14H16.2063L19.0606 16.85C19.094 16.8833 19.2275 16.9333 19.4612 17C19.6448 17 19.7909 16.9458 19.8993 16.8375C20.0078 16.7292 20.0454 16.5833 20.012 16.4L18.9104 8.7C18.8436 8.21667 18.6266 7.8125 18.2594 7.4875C17.8922 7.1625 17.4582 7 16.9574 7H7.04256C6.54181 7 6.10783 7.1625 5.74061 7.4875C5.37339 7.8125 5.1564 8.21667 5.08963 8.7L3.98798 16.4C3.9546 16.5833 3.99215 16.7292 4.10065 16.8375C4.20915 16.9458 4.3552 17 4.53881 17C4.57219 17 4.70573 16.95 4.93941 16.85ZM17.0075 13C17.2913 13 17.5291 12.9042 17.7211 12.7125C17.913 12.5208 18.009 12.2833 18.009 12C18.009 11.7167 17.913 11.4792 17.7211 11.2875C17.5291 11.0958 17.2913 11 17.0075 11C16.7238 11 16.4859 11.0958 16.2939 11.2875C16.102 11.4792 16.006 11.7167 16.006 12C16.006 12.2833 16.102 12.5208 16.2939 12.7125C16.4859 12.9042 16.7238 13 17.0075 13ZM15.0045 10C15.2883 10 15.5261 9.90417 15.7181 9.7125C15.91 9.52083 16.006 9.28333 16.006 9C16.006 8.71667 15.91 8.47917 15.7181 8.2875C15.5261 8.09583 15.2883 8 15.0045 8C14.7207 8 14.4829 8.09583 14.2909 8.2875C14.099 8.47917 14.003 8.71667 14.003 9C14.003 9.28333 14.099 9.52083 14.2909 9.7125C14.4829 9.90417 14.7207 10 15.0045 10ZM7.74362 12.2489C7.74362 12.6637 8.07991 13 8.49474 13C8.90958 13 9.24587 12.6637 9.24587 12.2489V11.25H10.2485C10.6627 11.25 10.9985 10.9142 10.9985 10.5C10.9985 10.0858 10.6627 9.75 10.2485 9.75H9.24587V8.75113C9.24587 8.33629 8.90958 8 8.49474 8C8.07991 8 7.74362 8.33629 7.74362 8.75113V9.75H6.74099C6.32677 9.75 5.99099 10.0858 5.99099 10.5C5.99099 10.9142 6.32677 11.25 6.74099 11.25H7.74362V12.2489Z" fill="#222222"/>
</svg>
