<svg width="24" height="24" viewBox="0 0 24 24" fill="none" xmlns="http://www.w3.org/2000/svg">
<path fill-rule="evenodd" clip-rule="evenodd" d="M9.44287 13.2843L7.54954 15.1776L6.5219 14.6638C6.75551 14.1618 7.06758 13.5587 7.47494 12.8907L9.44287 13.2843ZM10.7156 14.5572L8.82232 16.4504L9.33611 17.478C9.8381 17.2444 10.4412 16.9324 11.1092 16.525L10.7156 14.5572ZM12.7251 15.4265L12.2453 13.0275L17.7188 7.55393C17.662 7.8692 17.5939 8.19572 17.5125 8.52891C17.0744 10.3226 16.2887 12.1511 14.942 13.4979C14.1898 14.25 13.4402 14.888 12.7251 15.4265ZM10.9726 11.7546L8.57344 11.2748C9.11199 10.5597 9.74991 9.8101 10.5021 9.05796C11.8488 7.71122 13.6773 6.92556 15.471 6.4874C15.8042 6.40601 16.1308 6.33794 16.4461 6.28108L10.9726 11.7546ZM9.08784 7.64375C12.4899 4.24165 17.9565 3.99585 19.5445 3.99999C19.7993 4.00065 19.9993 4.20059 19.9999 4.45545C20.0041 6.04347 19.7583 11.51 16.3562 14.9121C13.0899 18.1784 9.84558 19.4978 8.75004 19.8761C8.52525 19.9537 8.28457 19.8471 8.17822 19.6344L6.90733 17.0926L4.36556 15.8217C4.15286 15.7154 4.04626 15.4747 4.12387 15.2499C4.50214 14.1544 5.82154 10.91 9.08784 7.64375Z" fill="#222222"/>
</svg>
