<svg width="24" height="24" viewBox="0 0 24 24" fill="none" xmlns="http://www.w3.org/2000/svg">
<path fill-rule="evenodd" clip-rule="evenodd" d="M8 6H16C17.1046 6 18 6.89543 18 8V16C18 17.1046 17.1046 18 16 18H8C6.89543 18 6 17.1046 6 16V8C6 6.89543 6.89543 6 8 6ZM4 8C4 5.79086 5.79086 4 8 4H16C18.2091 4 20 5.79086 20 8V16C20 18.2091 18.2091 20 16 20H8C5.79086 20 4 18.2091 4 16V8ZM10.8 9C10.8 8.6134 11.1134 8.3 11.5 8.3H14.8C15.2971 8.3 15.7 8.70294 15.7 9.2V12.5C15.7 12.8866 15.3866 13.2 15 13.2C14.6134 13.2 14.3 12.8866 14.3 12.5V10.6899L9.49499 15.495C9.22162 15.7683 8.77841 15.7683 8.50504 15.495C8.23167 15.2216 8.23167 14.7784 8.50504 14.505L13.3101 9.7H11.5C11.1134 9.7 10.8 9.3866 10.8 9Z" fill="#222222"/>
</svg>
