<svg width="24" height="24" viewBox="0 0 24 24" fill="none" xmlns="http://www.w3.org/2000/svg">
<path fill-rule="evenodd" clip-rule="evenodd" d="M4.439 10.8845C4.47757 10.9097 4.55692 10.9301 4.64749 10.8941C5.13807 10.699 5.71904 10.4815 6.3584 10.2689L6.63225 7.03426C5.55115 8.05856 4.77186 9.38929 4.439 10.8845ZM8.49019 5.73128L8.15081 9.73998C9.11455 9.49394 10.1332 9.29999 11.1292 9.22455V4.95244C10.1883 5.05615 9.29831 5.32591 8.49019 5.73128ZM19.3525 10.8941C18.8619 10.699 18.281 10.4815 17.6416 10.2689L17.3677 7.03426C18.4489 8.05856 19.2281 9.38929 19.561 10.8845C19.5224 10.9097 19.4431 10.9301 19.3525 10.8941ZM15.5098 5.73128L15.8492 9.73998C14.8854 9.49394 13.8668 9.29999 12.8708 9.22455V4.95244C13.8117 5.05615 14.7017 5.32591 15.5098 5.73128ZM2.5469 10.4852C3.49558 6.20515 7.36639 3 12 3C16.6336 3 20.5044 6.20515 21.4531 10.4852C21.6369 11.3145 21.2603 12.0389 20.6728 12.4436C20.5885 12.5016 20.4998 12.5534 20.4074 12.5986C20.3969 12.6109 20.3859 12.6231 20.3745 12.635L12.6481 20.7156C12.6376 20.7271 12.6267 20.7383 12.6155 20.7493C12.5786 20.7857 12.5386 20.8184 12.4963 20.8472C12.4226 20.8976 12.3427 20.9356 12.2595 20.961C12.1742 20.9874 12.0867 21.0001 12 21C11.9607 21 11.9215 20.9973 11.8828 20.9921C11.7939 20.9803 11.7065 20.9549 11.6239 20.916C11.5825 20.8965 11.5423 20.8736 11.5039 20.8473C11.4614 20.8183 11.4212 20.7855 11.3841 20.7489C11.3731 20.7381 11.3624 20.727 11.352 20.7156L3.62554 12.635C3.61418 12.6231 3.60322 12.611 3.59268 12.5986C3.50029 12.5534 3.41151 12.5016 3.32721 12.4436C2.7397 12.0389 2.36306 11.3145 2.5469 10.4852ZM5.86033 12.4709L8.25051 14.9707L6.74374 12.1527C6.43483 12.2584 6.13893 12.3656 5.86033 12.4709ZM8.43559 11.6361L12 18.3023L15.5645 11.6361C14.3835 11.3221 13.1357 11.0952 12 11.0952C10.8643 11.0952 9.61651 11.3221 8.43559 11.6361ZM17.2563 12.1527L15.7496 14.9707L18.1397 12.471C17.8611 12.3657 17.5652 12.2585 17.2563 12.1527Z" fill="#222222"/>
</svg>
