<svg width="24" height="24" viewBox="0 0 24 24" fill="none" xmlns="http://www.w3.org/2000/svg">
<path fill-rule="evenodd" clip-rule="evenodd" d="M1 11.5C2.73 7.11 7 4 12 4C17 4 21.27 7.11 23 11.5C21.27 15.89 17 19 12 19C7 19 2.73 15.89 1 11.5ZM20.8197 11.5C19.1697 8.13 15.7897 6 11.9997 6C8.20969 6 4.82969 8.13 3.17969 11.5C4.82969 14.87 8.20969 17 11.9997 17C15.7897 17 19.1697 14.87 20.8197 11.5ZM12 9C13.38 9 14.5 10.12 14.5 11.5C14.5 12.88 13.38 14 12 14C10.62 14 9.5 12.88 9.5 11.5C9.5 10.12 10.62 9 12 9ZM7.5 11.5C7.5 9.02 9.52 7 12 7C14.48 7 16.5 9.02 16.5 11.5C16.5 13.98 14.48 16 12 16C9.52 16 7.5 13.98 7.5 11.5Z" fill="#222222"/>
</svg>
