<svg width="24" height="24" viewBox="0 0 24 24" fill="none" xmlns="http://www.w3.org/2000/svg">
<path fill-rule="evenodd" clip-rule="evenodd" d="M4.69 6.54995L2.01 3.86995L3.42 2.44995L21.15 20.19L19.74 21.6L16.32 18.18C14.98 18.71 13.52 19 12 19C7 19 2.73 15.89 1 11.5C1.77 9.52995 3.06 7.82995 4.69 6.54995ZM12.0004 5.99976C15.7904 5.99976 19.1704 8.12976 20.8204 11.4998C20.2304 12.7198 19.4004 13.7698 18.4104 14.6198L19.8204 16.0298C21.2104 14.7998 22.3104 13.2598 23.0004 11.4998C21.2704 7.10976 17.0004 3.99976 12.0004 3.99976C10.7304 3.99976 9.51035 4.19976 8.36035 4.56976L10.0104 6.21976C10.6604 6.08976 11.3204 5.99976 12.0004 5.99976ZM10.9297 7.13976L12.9997 9.20976C13.5697 9.45976 14.0297 9.91976 14.2797 10.4898L16.3497 12.5598C16.4297 12.2198 16.4897 11.8598 16.4897 11.4898C16.4997 9.00976 14.4797 6.99976 11.9997 6.99976C11.6297 6.99976 11.2797 7.04976 10.9297 7.13976ZM9.51 11.37L12.12 13.98C12.08 13.99 12.04 14 12 14C10.62 14 9.5 12.88 9.5 11.5C9.5 11.475 9.5025 11.455 9.505 11.435C9.5075 11.415 9.51 11.3949 9.51 11.37ZM7.85969 9.71997L6.10969 7.96997C4.89969 8.88997 3.87969 10.07 3.17969 11.5C4.82969 14.87 8.20969 17 11.9997 17C12.9497 17 13.8697 16.86 14.7497 16.62L13.7697 15.64C13.2297 15.87 12.6297 16 11.9997 16C9.51969 16 7.49969 13.98 7.49969 11.5C7.49969 10.87 7.62969 10.27 7.85969 9.71997Z" fill="#222222"/>
</svg>
