<svg width="24" height="24" viewBox="0 0 24 24" fill="none" xmlns="http://www.w3.org/2000/svg">
<path fill-rule="evenodd" clip-rule="evenodd" d="M12.6387 2.23058L12.6387 2.23053L12.6387 2.23051C12.2726 1.92666 11.7431 1.9228 11.3726 2.22131L11.3725 2.22135L11.3724 2.22144L11.3716 2.22214L11.3675 2.22539L11.3506 2.23898L11.2831 2.29283C11.2239 2.33994 11.1372 2.40856 11.0287 2.49351C10.8116 2.66358 10.5081 2.89832 10.1631 3.1567C9.82074 3.41311 9.44707 3.68556 9.08149 3.93886C8.69827 4.20438 8.32394 4.44885 8.00386 4.63176C7.38435 4.98576 6.5632 5.33979 5.87094 5.61247C5.53008 5.74674 5.23032 5.85747 5.01623 5.93447C4.90932 5.97292 4.82413 6.00283 4.76626 6.02293L4.70075 6.04552L4.68474 6.05098L4.68116 6.05219L4.68062 6.05237L4.68052 6.05241C4.27385 6.18952 4 6.57083 4 7H5L4 7.00005V7.00021V7.00046V7.00082V7.00327V7.01298V7.05115V7.19824V7.74219V9.5625V14C4 15.3293 4.56124 16.4955 5.30192 17.4558C6.04175 18.415 7.00381 19.2269 7.92463 19.8746C8.85065 20.5261 9.7703 21.0361 10.4549 21.3824C10.7985 21.5561 11.0859 21.6902 11.2894 21.7816C11.3912 21.8274 11.4722 21.8625 11.5289 21.8868C11.5573 21.8989 11.5796 21.9082 11.5954 21.9148L11.6143 21.9226L11.6199 21.925L11.6218 21.9257L11.6225 21.926C11.6228 21.9261 11.6231 21.9262 12 21L11.6231 21.9262C11.8647 22.0246 12.1353 22.0246 12.3769 21.9262L12 21C12.3769 21.9262 12.3772 21.9261 12.3775 21.926L12.3782 21.9257L12.3801 21.925L12.3857 21.9226L12.4046 21.9148C12.4204 21.9082 12.4427 21.8989 12.4711 21.8868C12.5278 21.8625 12.6088 21.8274 12.7106 21.7816C12.9141 21.6902 13.2015 21.5561 13.5451 21.3824C14.2297 21.0361 15.1494 20.5261 16.0754 19.8746C16.9962 19.2269 17.9582 18.415 18.6981 17.4558C19.4388 16.4955 20 15.3293 20 14V13.9853V13.9706V13.9558V13.941V13.9262V13.9113V13.8964V13.8814V13.8663V13.8513V13.8362V13.821V13.8058V13.7906V13.7753V13.76V13.7446V13.7292V13.7137V13.6983V13.6827V13.6672V13.6516V13.6359V13.6202V13.6045V13.5888V13.573V13.5571V13.5413V13.5253V13.5094V13.4934V13.4774V13.4613V13.4453V13.4291V13.413V13.3968V13.3805V13.3643V13.348V13.3316V13.3153V13.2989V13.2825V13.266V13.2495V13.233V13.2164V13.1998V13.1832V13.1665V13.1499V13.1332V13.1164V13.0996V13.0828V13.066V13.0492V13.0323V13.0154V12.9984V12.9814V12.9644V12.9474V12.9304V12.9133V12.8962V12.8791V12.8619V12.8447V12.8275V12.8103V12.7931V12.7758V12.7585V12.7412V12.7238V12.7064V12.689V12.6716V12.6542V12.6367V12.6193V12.6018V12.5842V12.5667V12.5491V12.5316V12.5139V12.4963V12.4787V12.461V12.4434V12.4257V12.4079V12.3902V12.3725V12.3547V12.3369V12.3191V12.3013V12.2835V12.2656V12.2478V12.2299V12.212V12.1941V12.1762V12.1583V12.1403V12.1223V12.1044V12.0864V12.0684V12.0504V12.0324V12.0143V11.9963V11.9782V11.9602V11.9421V11.924V11.9059V11.8878V11.8697V11.8516V11.8334V11.8153V11.7971V11.779V11.7608V11.7427V11.7245V11.7063V11.6881V11.6699V11.6517V11.6335V11.6153V11.5971V11.5788V11.5606V11.5424V11.5242V11.5059V11.4877V11.4694V11.4512V11.433V11.4147V11.3965V11.3782V11.3599V11.3417V11.3234V11.3052V11.2869V11.2687V11.2504V11.2322V11.2139V11.1957V11.1774V11.1592V11.1409V11.1227V11.1045V11.0862V11.068V11.0498V11.0316V11.0133V10.9951V10.9769V10.9587V10.9405V10.9223V10.9041V10.886V10.8678V10.8496V10.8315V10.8133V10.7952V10.7771V10.7589V10.7408V10.7227V10.7046V10.6865V10.6684V10.6504V10.6323V10.6143V10.5962V10.5782V10.5602V10.5422V10.5242V10.5063V10.4883V10.4703V10.4524V10.4345V10.4166V10.3987V10.3808V10.363V10.3451V10.3273V10.3095V10.2917V10.2739V10.2561V10.2384V10.2206V10.2029V10.1852V10.1675V10.1499V10.1322V10.1146V10.097V10.0794V10.0619V10.0443V10.0268V10.0093V9.99183V9.97437V9.95693V9.93951V9.92212V9.90475V9.8874V9.87007V9.85277V9.83549V9.81824V9.80101V9.78381V9.76662V9.74947V9.73234V9.71523V9.69816V9.6811V9.66408V9.64708V9.63011V9.61316V9.59625V9.57936V9.5625V9.54567V9.52887V9.51209V9.49535V9.47864V9.46195V9.4453V9.42867V9.41208V9.39552V9.37899V9.36249V9.34603V9.3296V9.3132V9.29683V9.28049V9.26419V9.24793V9.23169V9.2155V9.19933V9.18321V9.16711V9.15105V9.13503V9.11905V9.1031V9.08719V9.07131V9.05547V9.03967V9.02391V9.00819V8.9925V8.97685V8.96125V8.94568V8.93015V8.91466V8.89921V8.8838V8.86843V8.85311V8.83782V8.82258V8.80738V8.79222V8.7771V8.76203V8.747V8.73201V8.71707V8.70217V8.68732V8.67251V8.65774V8.64302V8.62835V8.61372V8.59913V8.5846V8.57011V8.55566V8.54127V8.52692V8.51262V8.49837V8.48416V8.47001V8.4559V8.44184V8.42783V8.41388V8.39997V8.38611V8.3723V8.35855V8.34484V8.33119V8.31759V8.30404V8.29054V8.2771V8.26371V8.25037V8.23709V8.22386V8.21068V8.19756V8.1845V8.17148V8.15853V8.14563V8.13278V8.11999V8.10726V8.09459V8.08197V8.06941V8.05691V8.04446V8.03207V8.01975V8.00748V7.99527V7.98312V7.97102V7.95899V7.94702V7.93511V7.92326V7.91147V7.89975V7.88808V7.87648V7.86494V7.85346V7.84205V7.83069V7.81941V7.80818V7.79702V7.78592V7.77489V7.76392V7.75302V7.74219V7.73142V7.72071V7.71007V7.6995V7.689V7.67856V7.66819V7.65789V7.64766V7.63749V7.6274V7.61737V7.60741V7.59752V7.58771V7.57796V7.56828V7.55867V7.54914V7.53967V7.53028V7.52096V7.51171V7.50253V7.49343V7.4844V7.47544V7.46656V7.45775V7.44901V7.44035V7.43176V7.42325V7.41482V7.40646V7.39817V7.38996V7.38183V7.37378V7.3658V7.3579V7.35008V7.34233V7.33467V7.32708V7.31957V7.31214V7.30479V7.29752V7.29033V7.28322V7.2762V7.26925V7.26238V7.25559V7.24889V7.24227V7.23573V7.22927V7.2229V7.21661V7.2104V7.20428V7.19824V7.19229V7.18642V7.18063V7.17493V7.16932V7.16379V7.15835V7.15299V7.14773V7.14254V7.13745V7.13244V7.12752V7.12269V7.11795V7.1133V7.10873V7.10426V7.09987V7.09557V7.09137V7.08725V7.08323V7.0793V7.07546V7.07171V7.06805V7.06448V7.06101V7.05763V7.05434V7.05115V7.04805V7.04504V7.04213V7.03931V7.03659V7.03396V7.03143V7.02899V7.02665V7.02441V7.02226V7.02021V7.01826V7.0164V7.01464V7.01298V7.01142V7.00996V7.0086V7.00733V7.00617V7.0051V7.00414V7.00327V7.00251V7.00184V7.00128V7.00082V7.00046V7.00021V7.00005L19 7H20C20 6.57649 19.7332 6.19891 19.334 6.05744L19.334 6.05741L19.3332 6.05713L19.3292 6.05572L19.3122 6.04964L19.2437 6.02495C19.1835 6.00312 19.0952 5.97086 18.9849 5.92981C18.7641 5.84761 18.4562 5.7306 18.1091 5.59178C17.4038 5.30971 16.5773 4.95371 15.9847 4.62531C15.3153 4.25439 14.487 3.66538 13.8025 3.14733C13.4656 2.89236 13.1732 2.66194 12.9652 2.49545C12.8613 2.41229 12.7788 2.34531 12.7226 2.29947L12.6589 2.24725L12.6432 2.23424L12.6395 2.23121L12.6388 2.23059L12.6387 2.23058ZM6 7.74219V7.70427C6.17795 7.63821 6.38272 7.56045 6.60394 7.47331C7.31996 7.19126 8.24882 6.79528 8.99614 6.36824C9.73755 5.94458 10.655 5.28706 11.362 4.75751C11.5951 4.58298 11.8096 4.41905 11.9931 4.2772C12.1684 4.41501 12.3726 4.57333 12.5956 4.74208C13.2938 5.2705 14.2155 5.93149 15.0153 6.37469C15.7234 6.76704 16.6469 7.16104 17.3664 7.44878C17.5989 7.54173 17.8142 7.62527 18 7.69601V7.6995V7.71007V7.72071V7.73142V7.74219V7.75302V7.76392V7.77489V7.78592V7.79702V7.80818V7.81941V7.83069V7.84205V7.85346V7.86494V7.87648V7.88808V7.89975V7.91147V7.92326V7.93511V7.94702V7.95899V7.97102V7.98312V7.99527V8.00748V8.01975V8.03207V8.04446V8.05691V8.06941V8.08197V8.09459V8.10726V8.11999V8.13278V8.14563V8.15853V8.17148V8.1845V8.19756V8.21068V8.22386V8.23709V8.25037V8.26371V8.2771V8.29054V8.30404V8.31759V8.33119V8.34484V8.35855V8.3723V8.38611V8.39997V8.41388V8.42783V8.44184V8.4559V8.47001V8.48416V8.49837V8.51262V8.52692V8.54127V8.55566V8.57011V8.5846V8.59913V8.61372V8.62835V8.64302V8.65774V8.67251V8.68732V8.70217V8.71707V8.73201V8.747V8.76203V8.7771V8.79222V8.80738V8.82258V8.83782V8.85311V8.86843V8.8838V8.89921V8.91466V8.93015V8.94568V8.96125V8.97685V8.9925V9.00819V9.02391V9.03967V9.05547V9.07131V9.08719V9.1031V9.11905V9.13503V9.15105V9.16711V9.18321V9.19933V9.2155V9.23169V9.24793V9.26419V9.28049V9.29683V9.3132V9.3296V9.34603V9.36249V9.37899V9.39552V9.41208V9.42867V9.4453V9.46195V9.47864V9.49535V9.51209V9.52887V9.54567V9.5625V9.57936V9.59625V9.61316V9.63011V9.64708V9.66408V9.6811V9.69816V9.71523V9.73234V9.74947V9.76662V9.78381V9.80101V9.81824V9.83549V9.85277V9.87007V9.8874V9.90475V9.92212V9.93951V9.95693V9.97437V9.99183V10.0093V10.0268V10.0443V10.0619V10.0794V10.097V10.1146V10.1322V10.1499V10.1675V10.1852V10.2029V10.2206V10.2384V10.2561V10.2739V10.2917V10.3095V10.3273V10.3451V10.363V10.3808V10.3987V10.4166V10.4345V10.4524V10.4703V10.4883V10.5063V10.5242V10.5422V10.5602V10.5782V10.5962V10.6143V10.6323V10.6504V10.6684V10.6865V10.7046V10.7227V10.7408V10.7589V10.7771V10.7952V10.8133V10.8315V10.8496V10.8678V10.886V10.9041V10.9223V10.9405V10.9587V10.9769V10.9951V11.0133V11.0316V11.0498V11.068V11.0862V11.1045V11.1227V11.1409V11.1592V11.1774V11.1957V11.2139V11.2322V11.2504V11.2687V11.2869V11.3052V11.3234V11.3417V11.3599V11.3782V11.3965V11.4147V11.433V11.4512V11.4694V11.4877V11.5059V11.5242V11.5424V11.5606V11.5788V11.5971V11.6153V11.6335V11.6517V11.6699V11.6881V11.7063V11.7245V11.7427V11.7608V11.779V11.7971V11.8153V11.8334V11.8516V11.8697V11.8878V11.9059V11.924V11.9421V11.9602V11.9782V11.9963V12.0143V12.0324V12.0504V12.0684V12.0864V12.1044V12.1223V12.1403V12.1583V12.1762V12.1941V12.212V12.2299V12.2478V12.2656V12.2835V12.3013V12.3191V12.3369V12.3547V12.3725V12.3902V12.4079V12.4257V12.4434V12.461V12.4787V12.4963V12.5139V12.5316V12.5491V12.5667V12.5842V12.6018V12.6193V12.6367V12.6542V12.6716V12.689V12.7064V12.7238V12.7412V12.7585V12.7758V12.7931V12.8103V12.8275V12.8447V12.8619V12.8791V12.8962V12.9133V12.9304V12.9474V12.9644V12.9814V12.9984V13.0154V13.0323V13.0492V13.066V13.0828V13.0996V13.1164V13.1332V13.1499V13.1665V13.1832V13.1998V13.2164V13.233V13.2495V13.266V13.2825V13.2989V13.3153V13.3316V13.348V13.3643V13.3805V13.3968V13.413V13.4291V13.4453V13.4613V13.4774V13.4934V13.5094V13.5253V13.5413V13.5571V13.573V13.5888V13.6045V13.6202V13.6359V13.6516V13.6672V13.6827V13.6983V13.7137V13.7292V13.7446V13.76V13.7753V13.7906V13.8058V13.821V13.8362V13.8513V13.8663V13.8814V13.8964V13.9113V13.9262V13.941V13.9558V13.9706V13.9853V14C18 14.7463 17.6862 15.493 17.1144 16.2344C16.5417 16.9768 15.7538 17.6555 14.9246 18.2389C14.1006 18.8185 13.2703 19.2801 12.6424 19.5977C12.3883 19.7262 12.1694 19.8301 12 19.9078C11.8306 19.8301 11.6117 19.7262 11.3576 19.5977C10.7297 19.2801 9.89935 18.8185 9.07537 18.2389C8.24619 17.6555 7.45825 16.9768 6.88558 16.2344C6.31376 15.493 6 14.7463 6 14V9.5625V7.74219ZM12.2724 8.5906C12.1652 8.35814 11.8348 8.35814 11.7276 8.5906L10.9418 10.2942C10.8981 10.3889 10.8083 10.4542 10.7047 10.4665L8.84165 10.6874C8.58743 10.7175 8.48534 11.0317 8.67329 11.2055L10.0507 12.4793C10.1273 12.5501 10.1616 12.6557 10.1412 12.758L9.77561 14.5981C9.72572 14.8492 9.99301 15.0434 10.2164 14.9184L11.8535 14.002C11.9445 13.9511 12.0555 13.9511 12.1465 14.002L13.7836 14.9184C14.007 15.0434 14.2743 14.8492 14.2244 14.5981L13.8588 12.758C13.8384 12.6557 13.8727 12.5501 13.9493 12.4793L15.3267 11.2055C15.5147 11.0317 15.4126 10.7175 15.1584 10.6874L13.2953 10.4665C13.1917 10.4542 13.1019 10.3889 13.0582 10.2942L12.2724 8.5906Z" fill="#222222"/>
</svg>
