<svg width="16" height="16" viewBox="0 0 16 16" fill="none" xmlns="http://www.w3.org/2000/svg">
<path d="M7.0718 2.14464C7.39711 1.28512 8.60289 1.28512 8.9282 2.14464L10.161 5.40181L13.576 5.64747C14.4554 5.71082 14.8232 6.81319 14.1609 7.40036L11.4956 9.76201L12.3258 13.2609C12.5223 14.0897 11.6807 14.7452 10.9553 14.4109L10.8127 14.3307L8 12.4574L5.18726 14.3307C4.43561 14.8312 3.46464 14.1448 3.6742 13.2609L4.50445 9.76201L1.83914 7.40036C1.17678 6.81319 1.54461 5.71082 2.42399 5.64747L5.83904 5.40181L7.0718 2.14464ZM6.89236 6.8327L3.71397 7.06074L6.16202 9.23056L5.41519 12.3771L8 10.6556L10.5838 12.3771L9.83798 9.23056L12.2851 7.06074L9.10764 6.8327L8 3.90535L6.89236 6.8327Z" fill="#222222"/>
</svg>
