<svg width="24" height="24" viewBox="0 0 24 24" fill="none" xmlns="http://www.w3.org/2000/svg">
<path fill-rule="evenodd" clip-rule="evenodd" d="M8.2705 4.78842C7.8741 4.40386 7.23141 4.40386 6.83501 4.78842C6.43861 5.17298 6.43861 5.79647 6.83501 6.18103L10.5646 9.79915L8.08688 12.2028C6.78571 11.3826 5.16897 11.2274 3.74842 11.7373C3.11063 11.9663 2.51238 12.3293 2 12.8264L3.43549 14.219L4.75185 15.496L4.00434 16.2212L2.83196 17.3585L2.53907 17.6427C2.15912 18.0113 2.15912 18.6089 2.53907 18.9775C2.91902 19.3461 3.53505 19.3461 3.915 18.9775L4.2079 18.6934L5.38028 17.556L6.12779 16.8308L7.44418 18.1079L8.87968 19.5005C9.39206 19.0034 9.76625 18.4231 10.0022 17.8043C10.5279 16.4262 10.3679 14.8577 9.5224 13.5954L12 11.1918L14.4776 13.5953C13.6321 14.8576 13.4722 16.4261 13.9978 17.8042C14.2338 18.423 14.608 19.0033 15.1204 19.5004L16.5559 18.1078L17.8723 16.8307L18.6198 17.5559L19.7922 18.6933L20.0851 18.9774C20.4651 19.346 21.0811 19.346 21.461 18.9774C21.841 18.6088 21.841 18.0112 21.4611 17.6426L21.1682 17.3585L19.9958 16.2211L19.2482 15.4959L20.5646 14.2189L22.0001 12.8263C21.4877 12.3292 20.8894 11.9662 20.2517 11.7372C18.8311 11.2273 17.2143 11.3825 15.9131 12.2027L13.4355 9.79915L17.165 6.18108C17.5614 5.79653 17.5614 5.17303 17.165 4.78848C16.7686 4.40392 16.1259 4.40392 15.7295 4.78848L12 8.40654L8.2705 4.78842ZM5.47649 13.4138C6.18966 13.4227 6.90002 13.6911 7.44418 14.219C7.98834 14.7469 8.26501 15.436 8.27417 16.1279L5.47649 13.4138ZM16.5559 14.2189C16.0117 14.7468 15.7351 15.4359 15.7259 16.1278L18.5236 13.4137C17.8104 13.4226 17.1001 13.691 16.5559 14.2189Z" fill="#222222"/>
</svg>
