<svg width="24" height="24" viewBox="0 0 24 24" fill="none" xmlns="http://www.w3.org/2000/svg">
<path fill-rule="evenodd" clip-rule="evenodd" d="M19.5423 3.29615C19.9284 3.69102 19.9284 4.33122 19.5423 4.72609L13.3988 11.0085L18.3186 16.0396C18.3215 16.0423 18.3272 16.0477 18.3356 16.0551C18.3563 16.0735 18.3915 16.1031 18.4386 16.1376C18.5367 16.2092 18.6649 16.2856 18.8043 16.3331C18.9397 16.3793 19.0653 16.3918 19.1852 16.3673C19.2978 16.3443 19.4734 16.2752 19.6973 16.0462C19.9213 15.8171 19.9889 15.6376 20.0114 15.5225C20.0354 15.3998 20.0231 15.2713 19.978 15.1329C19.9315 14.9904 19.8568 14.8593 19.7867 14.759C19.7531 14.7108 19.724 14.6748 19.7061 14.6536C19.6977 14.6438 19.6921 14.6375 19.69 14.6352C19.3112 14.2397 19.3137 13.6052 19.6973 13.2128C20.0835 12.818 20.7095 12.818 21.0957 13.2128L20.3965 13.9278C21.0957 13.2128 21.096 13.2132 21.0964 13.2135L21.0971 13.2143L21.0986 13.2159L21.1022 13.2195L21.1108 13.2285C21.1172 13.2353 21.1249 13.2436 21.1338 13.2533C21.1516 13.2727 21.1742 13.2981 21.2005 13.3292C21.2529 13.3911 21.3213 13.4768 21.3959 13.5836C21.5423 13.7932 21.7273 14.1048 21.854 14.4935C21.9821 14.8863 22.0564 15.3776 21.9505 15.9191C21.8431 16.468 21.5643 16.9968 21.0957 17.4761C20.627 17.9554 20.1098 18.2405 19.5731 18.3503C19.0436 18.4586 18.5632 18.3826 18.179 18.2516C17.7989 18.1221 17.4942 17.9328 17.2892 17.7831C17.1848 17.7069 17.101 17.6369 17.0405 17.5833C17.0101 17.5564 16.9853 17.5333 16.9663 17.5151C16.961 17.51 16.9561 17.5054 16.9518 17.5011C16.9482 17.4976 16.945 17.4945 16.9421 17.4915L16.9333 17.4828L16.9297 17.4792L16.9281 17.4776L16.9274 17.4768C16.927 17.4764 16.9267 17.4761 17.6258 16.7611L16.9267 17.4761L12.0005 12.4385L7.07431 17.4761L6.37515 16.7611C7.07431 17.4761 7.07396 17.4764 7.07361 17.4768L7.07287 17.4776L7.0713 17.4792L7.06773 17.4828L7.05893 17.4915C7.05232 17.4981 7.04425 17.506 7.03473 17.5151C7.01573 17.5333 6.99087 17.5564 6.96049 17.5833C6.89999 17.6369 6.81616 17.7069 6.71175 17.7831C6.50681 17.9328 6.20205 18.1221 5.822 18.2516C5.43784 18.3826 4.9574 18.4586 4.42794 18.3503C3.89118 18.2405 3.37401 17.9554 2.90534 17.4761C2.43667 16.9968 2.15786 16.468 2.05051 15.9191C1.94462 15.3776 2.01893 14.8863 2.14698 14.4935C2.27367 14.1048 2.45872 13.7932 2.6051 13.5836C2.67968 13.4768 2.74805 13.3911 2.80049 13.3292C2.82681 13.2981 2.84944 13.2727 2.86722 13.2533C2.87612 13.2436 2.88383 13.2353 2.89023 13.2285L2.89882 13.2195L2.90234 13.2159L2.90391 13.2143L2.90464 13.2135C2.90499 13.2132 2.90534 13.2128 3.6045 13.9278L2.90534 13.2128C3.29147 12.818 3.91752 12.818 4.30365 13.2128C4.68731 13.6052 4.68977 14.2397 4.31101 14.6352L4.3109 14.6352L4.30915 14.6371L4.31101 14.6352C4.30888 14.6375 4.30325 14.6438 4.29487 14.6536C4.27695 14.6748 4.24792 14.7108 4.21427 14.759C4.1442 14.8593 4.06949 14.9904 4.02301 15.1329C3.9779 15.2713 3.96563 15.3998 3.98961 15.5225C4.01214 15.6376 4.07966 15.8171 4.30365 16.0462C4.52764 16.2752 4.70314 16.3443 4.81576 16.3673C4.93567 16.3918 5.06131 16.3793 5.19665 16.3331C5.3361 16.2856 5.46425 16.2092 5.56235 16.1376C5.60947 16.1031 5.64469 16.0735 5.66536 16.0551C5.6738 16.0477 5.67953 16.0423 5.68238 16.0396L10.6022 11.0085L4.45872 4.72609C4.07259 4.33122 4.07259 3.69102 4.45872 3.29615C4.84485 2.90128 5.4709 2.90128 5.85703 3.29615L12.0005 9.57859L18.144 3.29615C18.5301 2.90128 19.1561 2.90128 19.5423 3.29615ZM12 21C13.1046 21 14 20.1046 14 19C14 17.8954 13.1046 17 12 17C10.8954 17 10 17.8954 10 19C10 20.1046 10.8954 21 12 21Z" fill="#222222"/>
</svg>
