<svg width="24" height="24" viewBox="0 0 24 24" fill="none" xmlns="http://www.w3.org/2000/svg">
<path d="M3 13.6416V3H12.9002V6.6C12.9002 8.18301 13.526 9.69643 14.6162 10.6853C15.5756 11.5555 16.9083 12 18.3017 12C19.7901 12 21 13.2096 21 14.7024C21 16.1952 19.7901 17.25 18.3017 17.25V18.9884H20V21H4.00229V18.9884H5.69832V17.232C4.14751 16.7712 3 15.3456 3 13.6416ZM19.0074 14.4301C19.0074 13.8549 18.7068 13.5168 17.4652 13.5168C13.3302 13.5168 11.0002 10.5136 11.0002 6.37864V5.00926H5.00458V13.2563C5.00458 14.3813 5.863 15.3 6.988 15.3H17.9014C18.4214 15.3 19.0074 15.0052 19.0074 14.4301ZM16.5 18.9884V17.25H7.5V18.9884H16.5Z" fill="#222222"/>
</svg>
