<svg width="24" height="24" viewBox="0 0 24 24" fill="none" xmlns="http://www.w3.org/2000/svg">
<path fill-rule="evenodd" clip-rule="evenodd" d="M17 9C17.5523 9 18 8.55228 18 8C18 7.44772 17.5523 7 17 7C16.4477 7 16 7.44772 16 8C16 8.55228 16.4477 9 17 9ZM17 11C15.6938 11 14.5825 10.1652 14.1707 9H4V7H14.1707C14.5825 5.83481 15.6938 5 17 5C18.6569 5 20 6.34315 20 8C20 9.65685 18.6569 11 17 11ZM7 17C7.55228 17 8 16.5523 8 16C8 15.4477 7.55228 15 7 15C6.44772 15 6 15.4477 6 16C6 16.5523 6.44772 17 7 17ZM7 13C8.30622 13 9.41746 13.8348 9.82929 15H20V17H9.82929C9.41746 18.1652 8.30622 19 7 19C5.34315 19 4 17.6569 4 16C4 14.3431 5.34315 13 7 13Z" fill="#222222"/>
</svg>
