<svg width="24" height="24" viewBox="0 0 24 24" fill="none" xmlns="http://www.w3.org/2000/svg">
<path d="M12 3C16.9632 3 21 7.0368 21 12C21 16.9632 16.9632 21 12 21C7.0368 21 3 16.9632 3 12C3 7.0368 7.0368 3 12 3ZM14.1374 5L12.0511 6.48723L9.96475 5C8.41824 5.45284 7.09057 6.39666 6.16169 7.64556L6.76473 10.3578L4.7708 11.4971C4.76594 11.6115 4.75135 11.7307 4.75135 11.8498C4.75135 13.5516 5.36412 15.1151 6.38054 16.3449L8.63222 16.383L9.30335 18.4709C10.1496 18.8093 11.0736 19 12.0462 19C13.0189 19 13.9429 18.8093 14.7891 18.4709L15.4602 16.383L17.7119 16.3449C18.7283 15.1151 19.3411 13.5516 19.3459 11.8451C19.3459 11.7259 19.3314 11.6115 19.3265 11.4923L17.3374 10.3531L17.9405 7.64556C17.0067 6.39666 15.6839 5.45284 14.1374 5ZM12.0486 8.65256L15.3324 11.0374L14.0795 14.8987H10.0178L8.76486 11.0374L12.0486 8.65256Z" fill="#222222"/>
</svg>
