<svg width="24" height="24" viewBox="0 0 24 24" fill="none" xmlns="http://www.w3.org/2000/svg">
<path fill-rule="evenodd" clip-rule="evenodd" d="M12.0003 19C15.3266 19 18.111 16.6799 18.8236 13.5697C18.128 13.8099 17.2107 14.0576 16.4236 13.9971C15.1011 13.8953 14.448 13.0339 14.0265 12.3557C13.9251 12.1925 13.8362 12.0427 13.7542 11.9046C13.464 11.4159 13.2604 11.0731 12.896 10.7968C12.7355 10.6751 12.4879 10.5684 12.119 10.4684C11.9402 10.4199 11.7523 10.3777 11.5482 10.3334L11.4592 10.3142C11.2867 10.277 11.0998 10.2366 10.9229 10.1926C10.5426 10.0981 10.0008 9.94289 9.58833 9.58802C9.35964 9.39127 9.16282 9.12803 9.05657 8.78988C8.9524 8.45832 8.95619 8.12148 9.01971 7.80388C9.13291 7.23787 9.42426 6.80251 9.84584 6.50532C10.2231 6.23934 10.6504 6.1246 10.969 6.05506C11.1156 6.02304 11.2674 5.99528 11.402 5.97068L11.4527 5.9614C11.6067 5.93314 11.743 5.90731 11.8736 5.87674C12.1367 5.81517 12.3228 5.74582 12.4634 5.65634C12.6981 5.50702 12.9727 5.31122 13.2425 5.10988C12.8393 5.03768 12.4242 5 12.0003 5C8.56919 5 5.71467 7.46853 5.11583 10.7265C5.41904 10.6721 5.75848 10.6196 6.11902 10.5783C7.3807 10.4335 9.16542 10.3888 10.4876 11.1268C11.3957 11.6337 12.3463 12.333 12.9041 13.2243C13.192 13.6844 13.3929 14.2244 13.3964 14.8257C13.4 15.4341 13.2008 16.0227 12.8225 16.5692C12.4796 17.0645 12.2443 17.335 12.0523 17.5559L11.982 17.637C11.8066 17.8402 11.6423 18.0403 11.3578 18.5145C11.2636 18.6715 11.1942 18.818 11.143 18.948C11.424 18.9823 11.71 19 12.0003 19ZM9.20688 18.4204C9.30195 18.1405 9.44064 17.8224 9.64277 17.4855C9.99361 16.9008 10.2278 16.6085 10.4678 16.3303L10.5421 16.2447L10.5421 16.2446C10.7236 16.0358 10.8988 15.8342 11.1781 15.4308C11.3555 15.1746 11.3973 14.9808 11.3964 14.8374C11.3956 14.6868 11.3466 14.5056 11.2088 14.2853C10.915 13.8159 10.3098 13.318 9.51289 12.8732C8.78907 12.4692 7.57379 12.4245 6.34698 12.5652C5.85337 12.6219 5.40051 12.703 5.04298 12.7777C5.32323 15.3132 6.95761 17.4405 9.20688 18.4204ZM3.00029 12.0235C3.01295 16.9832 7.03752 21 12.0003 21C16.9637 21 20.9888 16.982 21.0002 12.0212C21.0006 12.0065 21.0006 11.9918 21.0002 11.977C20.9878 7.01703 16.9632 3 12.0003 3C7.03787 3 3.01352 7.01619 3.00029 11.9755C2.9999 11.9914 2.9999 12.0074 3.00029 12.0235ZM18.3939 11.5995C18.6056 11.5214 18.8025 11.4418 18.9723 11.3696C18.7634 9.02959 17.403 7.02097 15.4618 5.9144L15.4327 5.93796C15.306 6.04055 15.1283 6.18283 14.9239 6.34214C14.5223 6.65523 13.9912 7.05471 13.5372 7.34366C13.1252 7.6058 12.6922 7.7392 12.3293 7.82412C12.147 7.8668 11.9685 7.90014 11.8137 7.92856L11.7627 7.9379C11.6232 7.96343 11.5067 7.98478 11.3955 8.00905C11.161 8.06023 11.0568 8.10425 11.0115 8.13139L11.0149 8.13278C11.1098 8.17098 11.2361 8.20962 11.4054 8.25169C11.5496 8.28755 11.7015 8.32038 11.8752 8.3579L11.8752 8.35791L11.9723 8.37891C12.1791 8.42379 12.4104 8.47514 12.6426 8.53813C13.0959 8.66108 13.6379 8.84929 14.1046 9.20322C14.8157 9.74257 15.2616 10.5087 15.5621 11.025L15.5621 11.025C15.6219 11.1278 15.6759 11.2207 15.7252 11.2999C16.0606 11.8397 16.2475 11.9776 16.577 12.0029C16.9922 12.0349 17.6847 11.8611 18.3939 11.5995Z" fill="#222222"/>
</svg>
