<svg width="24" height="24" viewBox="0 0 24 24" fill="none" xmlns="http://www.w3.org/2000/svg">
<path d="M5.3999 18C5.3999 18.8284 4.72833 19.5 3.8999 19.5C3.07148 19.5 2.3999 18.8284 2.3999 18C2.3999 17.1716 3.07148 16.5 3.8999 16.5C4.72833 16.5 5.3999 17.1716 5.3999 18Z" fill="#222222"/>
<path d="M5.3999 12C5.3999 12.8284 4.72833 13.5 3.8999 13.5C3.07148 13.5 2.3999 12.8284 2.3999 12C2.3999 11.1716 3.07148 10.5 3.8999 10.5C4.72833 10.5 5.3999 11.1716 5.3999 12Z" fill="#222222"/>
<path d="M5.3999 6C5.3999 6.82843 4.72833 7.5 3.8999 7.5C3.07148 7.5 2.3999 6.82843 2.3999 6C2.3999 5.17157 3.07148 4.5 3.8999 4.5C4.72833 4.5 5.3999 5.17157 5.3999 6Z" fill="#222222"/>
<path d="M8 4.84998H21V7.14998H8V4.84998Z" fill="#222222"/>
<path d="M8 16.85H21V19.15H8V16.85Z" fill="#222222"/>
<path d="M8 10.85H21V13.15H8V10.85Z" fill="#222222"/>
</svg>
