<svg width="24" height="24" viewBox="0 0 24 24" fill="none" xmlns="http://www.w3.org/2000/svg">
<path fill-rule="evenodd" clip-rule="evenodd" d="M10 11H15.7398L17.6667 12.6516V11H20V5H10V11ZM19.6667 15.9129C19.6667 16.3401 19.1656 16.5705 18.8413 16.2925L15 13H14V17C14 17.5523 13.5523 18 13 18H8L4.8 20.4C4.47038 20.6472 4 20.412 4 20V18H3C2.44772 18 2 17.5523 2 17V10C2 9.44772 2.44772 9 3 9H8V4C8 3.44772 8.44772 3 9 3H21C21.5523 3 22 3.44772 22 4V12C22 12.5523 21.5523 13 21 13H19.6667V15.9129ZM6 17L7.33333 16H12V13L9 13C8.44772 13 8 12.5523 8 12V11H4V16H6V17Z" fill="#222222"/>
</svg>
