<svg width="24" height="24" viewBox="0 0 24 24" fill="none" xmlns="http://www.w3.org/2000/svg">
<path d="M5.75251 4.66873C7.05797 3.77026 8.31395 3.85433 9.82785 4.46468C10.2005 4.61444 10.4838 4.8053 10.9046 5.14528L11.1474 5.3413L11.3038 5.46034C11.378 5.51383 11.4393 5.55254 11.4923 5.57987C11.8462 5.76191 12.4277 5.74403 12.8976 5.53929C12.9595 5.51223 13.0209 5.47554 13.0998 5.41593L13.2335 5.30765L13.6873 4.90668C13.9036 4.72223 14.0657 4.60712 14.2795 4.49206C15.2935 3.94375 16.9353 3.81152 18.2261 4.52327C19.7117 5.34252 20.8086 7.12961 21.5955 10.8972C22.3112 14.3253 22.0458 17.4279 21.0468 18.7055C19.8896 20.1822 17.5287 20.2421 16.3853 19.4227C16.3318 19.3843 16.2781 19.3444 16.2241 19.3029C15.8766 19.0359 15.5191 18.7067 15.1544 18.3282C14.8272 17.9886 14.5114 17.6275 14.2172 17.2665L13.9868 16.9782L13.8325 16.7763C13.6102 16.531 13.4838 16.4054 13.4534 16.3997C13.3372 16.3777 10.6684 16.3807 10.6454 16.3844C10.6225 16.388 10.2061 16.9013 10.1577 16.9973L10.1151 17.0728C9.90254 17.4106 9.54952 17.8935 9.09298 18.3819C8.74373 18.7555 8.38349 19.0728 8.01037 19.3165C6.43807 20.3439 5.04366 20.1314 3.83329 19.2211L3.84149 19.2293L3.70242 19.122L3.56073 19.0008C3.33688 18.7982 3.12306 18.5553 2.92511 18.2607C2.18596 17.1605 1.84417 15.62 2.06759 13.5855C2.52163 9.44888 3.6896 6.74926 5.11741 5.22082L5.21811 5.11631C5.35669 4.97668 5.48434 4.86468 5.58905 4.78619L5.75251 4.66873ZM9.27852 6.31878C8.23092 5.89574 7.51959 5.86019 6.77806 6.41641L6.71035 6.47332L6.61661 6.56275L6.53714 6.64535C5.43062 7.83188 4.45491 10.0908 4.05573 13.7335C3.88438 15.2963 4.1206 16.3627 4.59363 17.0679C4.7032 17.2313 4.81713 17.3609 4.93314 17.4661C4.94327 17.4752 4.95668 17.4867 4.97179 17.4992L5.12638 17.6219L5.23257 17.6976C5.80671 18.0876 6.41001 18.1431 7.22543 17.6094C7.46017 17.4559 7.70975 17.2357 7.96108 16.9664C8.16783 16.7449 8.36287 16.5044 8.53834 16.264C8.55916 16.2355 8.57872 16.2083 8.59695 16.1827L8.72412 15.9978L8.82432 15.8194C8.89237 15.7038 8.97512 15.576 9.07201 15.4439L9.1736 15.3105C9.37713 15.0534 9.5968 14.8391 9.84475 14.6814C10.0262 14.5658 14.0443 14.6144 14.1929 14.6831C14.4329 14.7928 14.6389 14.9522 14.8183 15.1452C14.9283 15.2635 15.0172 15.3807 15.0874 15.4888L15.1571 15.6049L15.3737 15.8817L15.7094 16.2869C15.8879 16.4955 16.0727 16.7005 16.2599 16.8951C16.5587 17.2057 16.8451 17.4698 17.1071 17.6715L17.2183 17.7544C17.6572 18.0694 18.9526 18.0365 19.4531 17.3967C20.0262 16.6627 20.2403 14.1554 19.6443 11.2961C18.9786 8.10347 18.1875 6.81251 17.2391 6.28869C16.534 5.89925 15.5198 5.98107 14.994 6.26582C14.9639 6.28207 14.9343 6.29979 14.9031 6.32065L14.8026 6.39432L14.6793 6.49688L14.3405 6.79873C14.034 7.06735 13.8254 7.21398 13.5294 7.34375C12.6468 7.72886 11.5756 7.76185 10.7516 7.33734C10.5813 7.24937 10.4208 7.14266 10.2404 7.00457L9.89334 6.72684L9.70014 6.57498C9.52598 6.44338 9.40306 6.3689 9.27852 6.31878ZM8.69231 8C8.97545 8 9.20498 8.22961 9.20498 8.51322V9.79482H10.4873C10.7705 9.79482 11 10.024 11 10.308V10.692C11.0005 10.9751 10.771 11.2043 10.4878 11.2043H9.20547V12.4868C9.20547 12.7704 8.97595 13 8.69281 13H8.30819C8.02504 13 7.79555 12.7709 7.79555 12.4868V11.2043H6.51267C6.22953 11.2043 6 10.9756 6 10.692V10.3076C6 10.024 6.22953 9.79436 6.51267 9.79436H7.79502V8.51322C7.79502 8.2301 8.02455 8 8.30769 8H8.69231ZM14.5384 10.5C15.0907 10.5 15.5385 10.9472 15.5385 11.4998C15.5389 12.0528 15.0907 12.5 14.5384 12.5C13.9862 12.5 13.5385 12.0528 13.5385 11.4998C13.5385 10.9477 13.9862 10.5 14.5384 10.5ZM17.5384 10.5C18.0907 10.5 18.5385 10.9472 18.5385 11.4998C18.5389 12.0528 18.0907 12.5 17.5384 12.5C16.9862 12.5 16.5385 12.0528 16.5385 11.4998C16.5385 10.9477 16.9862 10.5 17.5384 10.5ZM16 8C16.5524 8 17 8.44784 17 8.99925C17 9.55219 16.5524 10 16 10C15.4476 10 15 9.55219 15 8.99925C15 8.44781 15.4476 8 16 8Z" fill="#222222"/>
</svg>
