<svg width="24" height="24" viewBox="0 0 24 24" fill="none" xmlns="http://www.w3.org/2000/svg">
<path fill-rule="evenodd" clip-rule="evenodd" d="M12 14C14.4853 14 16.5 11.9853 16.5 9.5C16.5 7.01472 14.4853 5 12 5C9.51472 5 7.5 7.01472 7.5 9.5C7.5 11.9853 9.51472 14 12 14ZM12 16C15.5899 16 18.5 13.0899 18.5 9.5C18.5 5.91015 15.5899 3 12 3C8.41015 3 5.5 5.91015 5.5 9.5C5.5 13.0899 8.41015 16 12 16ZM8 18C8 17.4477 8.44772 17 9 17H12H15C15.5523 17 16 17.4477 16 18C16 18.5523 15.5523 19 15 19H13V20V21H11V20V19H9C8.44772 19 8 18.5523 8 18ZM12 8C12.5523 8 13 7.55228 13 7C13 6.44772 12.5523 6 12 6C11.4477 6 11 6.44772 11 7C11 7.55228 11.4477 8 12 8ZM11 9C11 9.55228 10.5523 10 10 10C9.44772 10 9 9.55228 9 9C9 8.44772 9.44772 8 10 8C10.5523 8 11 8.44772 11 9ZM14 10C14.5523 10 15 9.55228 15 9C15 8.44772 14.5523 8 14 8C13.4477 8 13 8.44772 13 9C13 9.55228 13.4477 10 14 10Z" fill="#222222"/>
</svg>
