<svg width="24" height="24" viewBox="0 0 24 24" fill="none" xmlns="http://www.w3.org/2000/svg">
<path fill-rule="evenodd" clip-rule="evenodd" d="M1 4H12H23V20H12H1V4ZM3.5 10.4436C3.5 8.84122 4.71361 7.75 6.48299 7.75C8.18998 7.75 9.38091 8.74358 9.38091 10.1679C9.38091 11.0696 8.89887 11.8449 7.4811 13.1946L5.91588 14.7051V14.8084H9.5V16.25H3.59641V15.0382L6.26749 12.3905C7.41871 11.2534 7.70794 10.8226 7.70794 10.2828C7.70794 9.61655 7.17486 9.14561 6.42628 9.14561C5.63233 9.14561 5.0879 9.67399 5.0879 10.4378V10.4723H3.5V10.4436ZM18.1775 16.25V14.7656H14V13.1928C14.7692 11.7497 15.8817 9.99428 17.3787 7.75H19.8817V13.2871H21V14.7656H19.8817V16.25H18.1775ZM15.6035 13.2458V13.3401H18.2189V9.13427H18.1243C17.3432 10.2947 16.5799 11.4846 15.6035 13.2458ZM12 11C12.5523 11 13 10.5523 13 10C13 9.44771 12.5523 9 12 9C11.4477 9 11 9.44771 11 10C11 10.5523 11.4477 11 12 11ZM13 14C13 14.5523 12.5523 15 12 15C11.4477 15 11 14.5523 11 14C11 13.4477 11.4477 13 12 13C12.5523 13 13 13.4477 13 14Z" fill="#222222"/>
</svg>
