<svg width="24" height="24" viewBox="0 0 24 24" fill="none" xmlns="http://www.w3.org/2000/svg">
<path fill-rule="evenodd" clip-rule="evenodd" d="M7.50148 15.0629L7 14.9338L6.49852 15.0629C5.63547 15.285 5 16.0708 5 17C5 18.1046 5.89543 19 7 19C8.10457 19 9 18.1046 9 17C9 16.0708 8.36453 15.285 7.50148 15.0629ZM17 14.9349L16.5023 15.0619C15.6374 15.2827 15 16.0694 15 17C15 18.1046 15.8954 19 17 19C18.1046 19 19 18.1046 19 17C19 16.0694 18.3626 15.2827 17.4977 15.0619L17 14.9349ZM18.0239 13.1323C19.737 13.5845 21 15.1448 21 17C21 19.2091 19.2091 21 17 21C14.7909 21 13 19.2091 13 17C13 15.1448 14.263 13.5845 15.9761 13.1323C15.9866 13.1295 15.9971 13.1268 16.0076 13.1241C16.0026 13.0834 16 13.042 16 13V7C16 6.44772 16.4477 6 17 6C17.5523 6 18 6.44772 18 7V13C18 13.042 17.9974 13.0834 17.9924 13.1241C18.0029 13.1268 18.0134 13.1295 18.0239 13.1323ZM6 13.126C4.27477 13.5701 3 15.1362 3 17C3 19.2091 4.79086 21 7 21C9.20914 21 11 19.2091 11 17C11 15.1362 9.72523 13.5701 8 13.126V5H20C20.5523 5 21 4.55228 21 4C21 3.44772 20.5523 3 20 3H4C3.44772 3 3 3.44772 3 4C3 4.55228 3.44772 5 4 5H6V13.126Z" fill="#222222"/>
</svg>
