<svg width="24" height="24" viewBox="0 0 24 24" fill="none" xmlns="http://www.w3.org/2000/svg">
<path fill-rule="evenodd" clip-rule="evenodd" d="M8.0002 5.50001C8.82863 5.50001 9.5002 4.82843 9.5002 4C9.5002 3.17157 8.82863 2.5 8.0002 2.5C7.17177 2.5 6.50019 3.17157 6.50019 4C6.50019 4.82843 7.17177 5.50001 8.0002 5.50001ZM15.5002 6.00001C15.5002 7.10458 14.6048 8.00002 13.5002 8.00002C12.3957 8.00002 11.5002 7.10458 11.5002 6.00001C11.5002 4.89544 12.3957 4 13.5002 4C14.6048 4 15.5002 4.89544 15.5002 6.00001ZM7.48573 6.14252C7.95931 5.85837 8.57357 6.01193 8.85772 6.48552L10.0664 8.50002H13.4101L18.8211 7.51615C19.3645 7.41735 19.8851 7.77775 19.9839 8.32112C20.0827 8.8645 19.7223 9.38509 19.1789 9.48389L14.114 10.4048L12.1455 13.5545L13.8944 17.0529C14.0352 17.3344 14.0352 17.6657 13.8944 17.9473L12.3944 20.9473C12.1474 21.4412 11.5468 21.6415 11.0528 21.3945C10.5588 21.1475 10.3586 20.5468 10.6056 20.0528L11.882 17.5L10.9413 15.6185L9.8682 17.4962C9.69015 17.8078 9.35882 18 8.99998 18H4.99997C4.44769 18 3.99997 17.5523 3.99997 17C3.99997 16.4478 4.44769 16 4.99997 16H8.41969L10.132 13.0038C10.1385 12.9924 10.1453 12.9812 10.1522 12.97L11.696 10.5H9.50023C9.14896 10.5 8.82346 10.3157 8.64273 10.0145L7.14273 7.51451C6.85858 7.04093 7.01215 6.42667 7.48573 6.14252Z" fill="#222222"/>
</svg>
