<svg width="24" height="24" viewBox="0 0 24 24" fill="none" xmlns="http://www.w3.org/2000/svg">
<path d="M2.7 10.7V4H5.3V10.7L11.7 10.7V4H14.3V10.7V13.3V20H11.7V13.3L5.3 13.3V20H2.7V13.3V10.7Z" fill="#222222"/>
<path d="M21.1689 19.126C21.1689 19.6653 20.7317 20.1033 20.1924 20.1035H20.0264C19.487 20.1034 19.0499 19.6654 19.0498 19.126V12.8105L17.7773 13.3906C17.3779 13.5724 16.9087 13.4641 16.6318 13.124L16.5693 13.0459C16.1821 12.5699 16.3246 11.8528 16.8623 11.5566L19.7412 9.97168C20.3933 9.61287 21.1781 10.0897 21.1719 10.834L21.1689 11.1777V19.126Z" fill="#222222"/>
</svg>
