<svg width="24" height="24" viewBox="0 0 24 24" fill="none" xmlns="http://www.w3.org/2000/svg">
<path d="M2.00009 10.7V4H4.60009V10.7L11.0001 10.7V4H13.6001V10.7V13.3V20H11.0001V13.3L4.60009 13.3V20H2.00009V13.3V10.7Z" fill="#222222"/>
<path d="M15.8697 20.008C15.3894 20.008 14.9906 19.6165 15.0584 19.141C15.1269 18.6601 15.2559 18.2302 15.4454 17.8513C15.7422 17.2483 16.0901 16.7659 16.4889 16.4042C16.8971 16.0424 17.4166 15.6481 18.0474 15.2214C18.4555 14.9524 18.7663 14.7344 18.9796 14.5674C19.2023 14.3912 19.3832 14.1964 19.5223 13.983C19.6707 13.7604 19.7449 13.5146 19.7449 13.2456C19.7449 12.9951 19.6893 12.7817 19.578 12.6055C19.4759 12.42 19.3182 12.2762 19.1049 12.1741C18.9008 12.0721 18.6503 12.0211 18.3535 12.0211C18.0845 12.0211 17.8386 12.0767 17.616 12.1881C17.4027 12.2994 17.2264 12.4385 17.0873 12.6055C16.8635 12.874 16.4909 13.0074 16.1727 12.8627L15.7685 12.679C15.3633 12.4948 15.1565 12.0262 15.4054 11.6572C15.487 11.5362 15.5792 11.4163 15.6819 11.2975C15.988 10.9543 16.3776 10.6667 16.8507 10.4348C17.3238 10.2029 17.8711 10.087 18.4926 10.087C19.1698 10.087 19.7728 10.2261 20.3015 10.5044C20.8303 10.7734 21.2338 11.1398 21.5121 11.6037C21.7996 12.0675 21.9434 12.5777 21.9434 13.1343C21.9434 13.663 21.8275 14.1268 21.5956 14.5257C21.3637 14.9153 21.0807 15.2446 20.7468 15.5136C20.4221 15.7826 19.9861 16.098 19.4388 16.4598C19.1234 16.6732 18.859 16.8541 18.6457 17.0025C18.4416 17.1509 18.2422 17.3225 18.0474 17.5173C17.8618 17.7028 17.7088 17.9023 17.5882 18.1156H21.0459C21.5262 18.1156 21.9156 18.505 21.9156 18.9853V19.1384C21.9156 19.6187 21.5262 20.008 21.0459 20.008H15.8697Z" fill="#222222"/>
</svg>
