<svg width="24" height="24" viewBox="0 0 24 24" fill="none" xmlns="http://www.w3.org/2000/svg">
<path fill-rule="evenodd" clip-rule="evenodd" d="M16.9558 4.29411C17.1182 3.76625 16.822 3.20666 16.2941 3.04424C15.7662 2.88182 15.2066 3.17807 15.0442 3.70594L11.2614 16H5.00001C4.56958 16 4.18744 16.2754 4.05132 16.6838L3.05132 19.6838C2.94967 19.9887 3.00081 20.324 3.18877 20.5847C3.37672 20.8455 3.67856 21 4.00001 21H11C11.4304 21 11.8126 20.7246 11.9487 20.3162L12.9487 17.3162L12.9558 17.2941L16.9558 4.29411ZM5.72077 18H10.6126L10.2792 19H5.38743L5.72077 18ZM19 18C19 18.5523 18.5523 19 18 19C17.4477 19 17 18.5523 17 18C17 17.4477 17.4477 17 18 17C18.5523 17 19 17.4477 19 18ZM21 18C21 19.6569 19.6569 21 18 21C16.3432 21 15 19.6569 15 18C15 16.3432 16.3432 15 18 15C19.6569 15 21 16.3432 21 18Z" fill="#222222"/>
</svg>
