<svg width="24" height="24" viewBox="0 0 24 24" fill="none" xmlns="http://www.w3.org/2000/svg">
<path d="M16.8769 3.01689C16.9979 3.0171 17.0854 3.1241 17.0734 3.2375L17.0588 3.29427L9.68267 20.9823L4.18838 20.9728C3.38068 20.9714 2.82251 20.1795 3.05538 19.4223L3.0963 19.3091L3.47098 18.4108C3.63984 18.0062 4.01236 17.7305 4.43793 17.6843L4.56705 17.6775L8.77545 17.6848C8.98473 17.6852 9.17633 17.5745 9.28311 17.3977L9.32348 17.318L15.2372 3.13649C15.2605 3.08094 15.3068 3.03994 15.3622 3.02296L15.42 3.01435L16.8769 3.01689ZM13.8859 15.3835L14.6893 17.3274C14.7813 17.5502 14.9969 17.6956 15.236 17.6961L19.4444 17.7034C19.9226 17.7042 20.3538 17.9948 20.5379 18.4406L20.9095 19.3401C21.2357 20.1305 20.6597 21.0015 19.8116 21L14.3173 20.9904L12.9391 17.6539L13.8859 15.3835ZM8.64276 3.00254C8.72248 3.00268 8.79441 3.05115 8.82514 3.12531L11.1113 8.66242L10.1639 10.9327L7.00307 3.27674C6.94869 3.14501 7.0447 2.99975 7.18595 3L8.64276 3.00254Z" fill="#222222"/>
</svg>
