<svg width="24" height="24" viewBox="0 0 24 24" fill="none" xmlns="http://www.w3.org/2000/svg">
<path fill-rule="evenodd" clip-rule="evenodd" d="M15.1327 3.00887C15.5113 3.05957 15.8279 3.32146 15.9487 3.6838L16.8553 6.40364L20.9423 9.6732C21.7239 10.2986 21.9229 11.4055 21.4078 12.2639L20.8066 13.266C20.292 14.1236 19.223 14.4693 18.3038 14.0753L17 13.5166V20C17 20.5523 16.5523 21 16 21H3C2.70823 21 2.43101 20.8726 2.24103 20.6512C2.05105 20.4297 1.96726 20.1363 2.01163 19.848L3 20C2.01163 19.848 2.01157 19.8484 2.01163 19.848L2.01236 19.8433L2.01384 19.8338L2.01913 19.8011C2.02369 19.7732 2.03037 19.7334 2.03928 19.6823C2.05709 19.5801 2.08385 19.433 2.12057 19.2474C2.19396 18.8764 2.30734 18.3502 2.46884 17.7204C2.79083 16.4646 3.3088 14.778 4.09204 13.081C5.55951 9.90145 8.14958 6.3009 12.4529 6.01786L14.1679 3.44532C14.3798 3.12754 14.7542 2.95818 15.1327 3.00887ZM13.7596 7.65043L13.7524 7.65887L13.7276 7.68809C13.7054 7.71426 13.6723 7.75361 13.6293 7.80504C13.5432 7.90791 13.418 8.059 13.2631 8.24949C12.953 8.63077 12.5256 9.16831 12.057 9.79192C11.109 11.0536 10.0338 12.6137 9.40176 13.9323C8.78442 15.2202 8.42869 16.7384 8.22964 17.9686C8.16765 18.3517 8.12172 18.7013 8.08792 19H15V12C15 11.6639 15.1689 11.3502 15.4495 11.1652C15.7301 10.9801 16.085 10.9485 16.3939 11.0809L19.0916 12.237L19.6929 11.2349L15.3753 7.78089C15.2248 7.66048 15.1123 7.49912 15.0513 7.31625L14.6979 6.25597L13.832 7.55472C13.8099 7.58796 13.7856 7.62009 13.7596 7.65043C13.7596 7.65041 13.7596 7.65046 13.7596 7.65043ZM6.07626 19C6.11462 18.6285 6.17156 18.1668 6.25532 17.6491C6.46793 16.3351 6.86219 14.6034 7.59824 13.0678C8.3196 11.5628 9.49441 9.87295 10.4581 8.59048C10.4633 8.58344 10.4686 8.57641 10.4739 8.56939C8.45543 9.53244 6.97579 11.6054 5.90796 13.9191C5.1912 15.4721 4.70917 17.0354 4.40616 18.2171C4.33273 18.5035 4.27009 18.7664 4.21738 19H6.07626Z" fill="#222222"/>
</svg>
