<svg width="24" height="24" viewBox="0 0 24 24" fill="none" xmlns="http://www.w3.org/2000/svg">
<path fill-rule="evenodd" clip-rule="evenodd" d="M8.62375 2.66446C8.78735 3.445 9.39743 4.05507 10.178 4.21869C10.2738 4.23878 10.3424 4.3233 10.3424 4.42122C10.3424 4.51915 10.2738 4.60366 10.1779 4.62374C9.39741 4.78733 8.78733 5.39739 8.6237 6.17791C8.60362 6.27376 8.5191 6.3424 8.42118 6.3424C8.32325 6.3424 8.23874 6.27374 8.21866 6.17791C8.05504 5.39739 7.44499 4.78733 6.66448 4.6237C6.56864 4.60362 6.5 4.5191 6.5 4.42118C6.5 4.32326 6.56865 4.23874 6.66448 4.21866C7.44501 4.05506 8.05508 3.445 8.21869 2.66447C8.23878 2.56864 8.32329 2.5 8.42122 2.5C8.51915 2.5 8.60366 2.56864 8.62375 2.66446ZM9.10359 6.90479C9.1807 7.27256 9.46813 7.56 9.83588 7.63707C9.93172 7.65717 10.0004 7.74168 10.0004 7.8396C10.0004 7.93751 9.93171 8.02204 9.83588 8.04212C9.46812 8.11921 9.18067 8.40665 9.10357 8.77441C9.08349 8.87026 8.99896 8.93889 8.90105 8.93889C8.80312 8.93889 8.71861 8.87024 8.69852 8.77441C8.62143 8.40665 8.33398 8.1192 7.96625 8.04211C7.87041 8.02203 7.80177 7.9375 7.80177 7.83959C7.80177 7.74167 7.87042 7.65715 7.96625 7.63706C8.334 7.55997 8.62144 7.27254 8.69855 6.90478C8.71863 6.80894 8.80315 6.74031 8.90107 6.74031C8.999 6.74031 9.08351 6.80896 9.10359 6.90479ZM12.6316 5.72114C12.1345 5.61694 11.746 5.22841 11.6418 4.73135C11.6217 4.63552 11.5372 4.56687 11.4393 4.56687C11.3414 4.56687 11.2569 4.6355 11.2368 4.73134C11.1326 5.22841 10.7441 5.61692 10.247 5.72111C10.1511 5.7412 10.0825 5.82572 10.0825 5.92364C10.0825 6.02155 10.1511 6.10607 10.247 6.12616C10.744 6.23037 11.1326 6.61888 11.2367 7.11595C11.2568 7.21178 11.3413 7.28043 11.4393 7.28043C11.5372 7.28043 11.6217 7.21181 11.6418 7.11595C11.746 6.61888 12.1345 6.23037 12.6316 6.12619C12.7274 6.10609 12.7961 6.02158 12.7961 5.92366C12.7961 5.82575 12.7274 5.74122 12.6316 5.72114ZM20.1213 7.85173L20.2899 3.5L16.3656 5.59099L17.739 6.4177L14.426 12.388L12.9391 10.0842C12.5748 9.51987 11.7427 9.54028 11.4066 10.1218L9.46349 13.4836L7.60554 11.3393C7.20956 10.8822 6.48424 10.9391 6.16435 11.4523L2.92829 16.6436C2.73146 16.9594 2.82787 17.3749 3.14362 17.5717C3.45937 17.7686 3.8749 17.6722 4.07173 17.3564L6.9858 12.6816L8.85798 14.8424C9.26219 15.3089 10.0057 15.2381 10.3146 14.7037L12.2055 11.4323L13.7003 13.7484C14.0683 14.3185 14.9112 14.2905 15.2405 13.6971L18.8941 7.11302L20.1213 7.85173ZM18.5 13.5C17.9477 13.5 17.5 13.9477 17.5 14.5V20.5C17.5 21.0523 17.9477 21.5 18.5 21.5H20.5C21.0523 21.5 21.5 21.0523 21.5 20.5V14.5C21.5 13.9477 21.0523 13.5 20.5 13.5H18.5ZM8.5 16.5C7.94772 16.5 7.5 16.9477 7.5 17.5V20.5C7.5 21.0523 7.94772 21.5 8.5 21.5H10.5C11.0523 21.5 11.5 21.0523 11.5 20.5V17.5C11.5 16.9477 11.0523 16.5 10.5 16.5H8.5ZM3.5 18.5C2.94772 18.5 2.5 18.9477 2.5 19.5V20.5C2.5 21.0523 2.94772 21.5 3.5 21.5H5.5C6.05228 21.5 6.5 21.0523 6.5 20.5V19.5C6.5 18.9477 6.05228 18.5 5.5 18.5H3.5ZM12.5 18C12.5 17.4477 12.9477 17 13.5 17H15.5C16.0523 17 16.5 17.4477 16.5 18V20.5C16.5 21.0523 16.0523 21.5 15.5 21.5H13.5C12.9477 21.5 12.5 21.0523 12.5 20.5V18Z" fill="#222222"/>
</svg>
