<svg width="24" height="24" viewBox="0 0 24 24" fill="none" xmlns="http://www.w3.org/2000/svg">
<path fill-rule="evenodd" clip-rule="evenodd" d="M4 4.20003H20V17.2125L15.8289 17.2125C14.7675 17.2125 13.7496 17.6343 12.9994 18.3851L12 19.3853L11.0006 18.3851C10.2504 17.6343 9.23252 17.2125 8.17115 17.2125H4V4.20003ZM2 4.20004C2 3.09545 2.89543 2.20001 4 2.20001H20C21.1046 2.20001 22 3.09545 22 4.20003V17.2125C22 18.3171 21.1046 19.2125 20 19.2125H15.8289C15.2982 19.2125 14.7892 19.4235 14.4141 19.7988L12.7074 21.5069C12.3168 21.8977 11.6832 21.8977 11.2926 21.5069L9.58587 19.7988C9.21076 19.4235 8.70183 19.2125 8.17115 19.2125H4C2.89543 19.2125 2 18.3171 2 17.2125V4.20004ZM7.5 12.2074C8.32843 12.2074 9 11.5353 9 10.7063C9 9.87724 8.32843 9.20517 7.5 9.20517C6.67157 9.20517 6 9.87724 6 10.7063C6 11.5353 6.67157 12.2074 7.5 12.2074ZM13.5 10.7063C13.5 11.5353 12.8284 12.2074 12 12.2074C11.1716 12.2074 10.5 11.5353 10.5 10.7063C10.5 9.87724 11.1716 9.20517 12 9.20517C12.8284 9.20517 13.5 9.87724 13.5 10.7063ZM16.5 12.2074C17.3284 12.2074 18 11.5353 18 10.7063C18 9.87724 17.3284 9.20517 16.5 9.20517C15.6716 9.20517 15 9.87724 15 10.7063C15 11.5353 15.6716 12.2074 16.5 12.2074Z" fill="#222222"/>
</svg>
