<svg width="24" height="25" viewBox="0 0 24 25" fill="none" xmlns="http://www.w3.org/2000/svg">
<path fill-rule="evenodd" clip-rule="evenodd" d="M15.2412 0C15.5901 0.0239045 15.8836 0.289819 15.9362 0.646226C16.1015 1.76857 15.7433 2.99054 14.9592 4.00365C14.1909 4.99772 12.9649 5.63923 11.8188 5.63923L11.7204 5.63773C11.3641 5.62646 11.0646 5.36698 11.0007 5.01557C10.8046 3.93799 11.1846 2.6976 12.0085 1.68708C12.7686 0.753966 14.0161 0.0791625 15.1356 0.000196159L15.2412 0ZM14.4059 1.73926L14.2237 1.82641C13.8183 2.03442 13.4404 2.32663 13.1781 2.64856C12.9142 2.97226 12.687 3.35806 12.562 3.76816L12.5049 3.99026L12.6573 3.93141C13.0185 3.77441 13.3635 3.52892 13.6358 3.22772L13.7656 3.07263C14.0234 2.73953 14.2375 2.35185 14.3585 1.93297L14.4059 1.73926ZM15.5371 5.81255C16.9943 5.81255 18.4731 6.59317 19.5062 7.89181C19.6724 8.10093 19.7385 8.3729 19.6867 8.63517C19.635 8.89778 19.4704 9.1244 19.2366 9.25422C18.6156 9.59881 18.1722 10.1136 17.9462 10.7485C17.4388 12.1695 18.1141 13.8572 19.6149 14.4271C19.8486 14.516 20.0353 14.6976 20.1311 14.9293C20.2262 15.1601 20.2227 15.42 20.1211 15.6482L19.8922 16.1539C19.5764 16.8363 19.3625 17.2177 18.9507 17.8532C17.7629 19.6715 16.7354 20.6423 15.4113 20.7374L15.1909 20.7452C14.6748 20.7452 14.3382 20.6597 13.8221 20.4339L13.5418 20.3067C13.1496 20.1269 12.8936 20.0473 12.5266 20.0282L12.3117 20.0236C11.8903 20.0257 11.6215 20.0814 11.2548 20.2304L10.98 20.3498C10.404 20.609 10.0583 20.7222 9.58098 20.7442L9.36171 20.7482C7.92538 20.7358 6.87187 19.8023 5.68767 17.989C4.18168 15.6781 3.51588 12.9092 3.91266 10.5628C4.05632 9.72269 4.32171 8.99293 4.7058 8.39343C5.72853 6.8054 7.3803 5.81255 9.03433 5.81255C9.60341 5.81255 10.0776 5.90524 10.6832 6.10459L11.4589 6.37618C11.8476 6.50721 12.049 6.54817 12.2912 6.54817C12.4963 6.54817 12.6639 6.51398 12.9768 6.40387L13.465 6.22153C14.2114 5.94167 14.7771 5.81255 15.5371 5.81255ZM15.5372 7.63047C15.0416 7.63047 14.7179 7.69926 14.1533 7.90508L13.9295 7.98881C13.2019 8.26674 12.8343 8.36609 12.2912 8.36609C11.7797 8.36609 11.4061 8.28241 10.7469 8.05297L10.127 7.8353C9.66273 7.68127 9.39281 7.63047 9.03433 7.63047C8.00891 7.63047 6.92575 8.29541 6.22826 9.37843C5.98136 9.76385 5.80133 10.2656 5.69821 10.8687C5.37893 12.7566 5.93905 15.0536 7.20307 16.9933C7.98294 18.1874 8.64119 18.8446 9.25861 18.9225L9.39507 18.9304C9.62669 18.9304 9.77083 18.8948 10.0903 18.7567L10.2387 18.6911C10.9152 18.3867 11.3758 18.2431 12.0436 18.2121L12.3326 18.2057C13.0549 18.2057 13.5175 18.3161 14.1366 18.5835L14.3769 18.6912C14.7379 18.858 14.8933 18.9136 15.0989 18.9249L15.2063 18.9273C15.7951 18.9222 16.4686 18.2895 17.2801 17.0906L17.4339 16.8592C17.7063 16.4389 17.8799 16.1439 18.0581 15.7882L18.1069 15.6875L18.0976 15.6822C16.3675 14.5559 15.5573 12.3666 16.1697 10.3512L16.2408 10.136C16.4552 9.53337 16.7873 8.99425 17.2218 8.53811L17.4129 8.34855L17.2594 8.23208C16.7746 7.88648 16.2437 7.67993 15.7293 7.6383L15.5372 7.63047Z" fill="#222222"/>
</svg>
