<svg width="24" height="24" viewBox="0 0 24 24" fill="none" xmlns="http://www.w3.org/2000/svg">
<path d="M12 18.4041C15.5369 18.4041 18.4041 15.5369 18.4041 12C18.4041 8.4631 15.5369 5.59589 12 5.59589C8.4631 5.59589 5.59589 8.4631 5.59589 12C5.59589 15.5369 8.4631 18.4041 12 18.4041Z" fill="#222222"/>
<path d="M12 4.72251C12.3808 4.71775 12.5236 4.47977 12.5236 4.19419C12.5236 3.81342 12 2 12 2C12 2 11.4765 3.81342 11.4765 4.19419C11.4765 4.47977 11.6192 4.72251 12 4.72251Z" fill="#222222"/>
<path d="M19.2775 12C19.2822 12.3808 19.5202 12.5236 19.8058 12.5236C20.1866 12.5236 22 12 22 12C22 12 20.1866 11.4765 19.8058 11.4765C19.5202 11.4765 19.2775 11.6192 19.2775 12Z" fill="#222222"/>
<path d="M12 19.2775C11.6192 19.2822 11.4764 19.5202 11.4764 19.8058C11.4764 20.1866 12 22 12 22C12 22 12.5235 20.1866 12.5235 19.8058C12.5235 19.5202 12.3808 19.2775 12 19.2775Z" fill="#222222"/>
<path d="M4.72251 12C4.71775 11.6192 4.47977 11.4764 4.19419 11.4764C3.81342 11.4764 2 12 2 12C2 12 3.81342 12.5235 4.19419 12.5235C4.47977 12.5235 4.72251 12.3808 4.72251 12Z" fill="#222222"/>
<path d="M14.785 5.27646C15.1386 5.41778 15.3616 5.25255 15.4709 4.98871C15.6166 4.63693 15.8269 2.76119 15.8269 2.76119C15.8269 2.76119 14.6492 4.23621 14.5035 4.588C14.3942 4.85184 14.4332 5.13075 14.785 5.27646Z" fill="#222222"/>
<path d="M18.7236 14.785C18.5823 15.1386 18.7475 15.3616 19.0113 15.4709C19.3631 15.6166 21.2389 15.8269 21.2389 15.8269C21.2389 15.8269 19.7638 14.6492 19.4121 14.5035C19.1482 14.3942 18.8693 14.4332 18.7236 14.785Z" fill="#222222"/>
<path d="M9.21512 18.7235C8.86152 18.5822 8.63852 18.7474 8.52924 19.0113C8.38352 19.363 8.17326 21.2388 8.17326 21.2388C8.17326 21.2388 9.35094 19.7638 9.49665 19.412C9.60594 19.1481 9.56691 18.8692 9.21512 18.7235Z" fill="#222222"/>
<path d="M5.27655 9.21504C5.41786 8.86143 5.25264 8.63844 4.9888 8.52915C4.63701 8.38344 2.76127 8.17318 2.76127 8.17318C2.76127 8.17318 4.2363 9.35085 4.58808 9.49657C4.85192 9.60585 5.13083 9.56683 5.27655 9.21504Z" fill="#222222"/>
<path d="M17.146 6.85408C17.4186 7.11996 17.6878 7.05265 17.8897 6.85072C18.159 6.58147 19.0711 4.92898 19.0711 4.92898C19.0711 4.92898 17.4186 5.84105 17.1493 6.11029C16.9474 6.31223 16.8767 6.58484 17.146 6.85408Z" fill="#222222"/>
<path d="M17.146 17.146C16.8801 17.4186 16.9474 17.6878 17.1493 17.8898C17.4186 18.159 19.0711 19.0711 19.0711 19.0711C19.0711 19.0711 18.159 17.4186 17.8897 17.1494C17.6878 16.9474 17.4152 16.8767 17.146 17.146Z" fill="#222222"/>
<path d="M6.85405 17.146C6.58144 16.8801 6.31219 16.9474 6.11026 17.1494C5.84101 17.4186 4.92894 19.0711 4.92894 19.0711C4.92894 19.0711 6.58144 18.159 6.85068 17.8898C7.05262 17.6878 7.12329 17.4152 6.85405 17.146Z" fill="#222222"/>
<path d="M6.85405 6.85408C7.11993 6.58147 7.05262 6.31222 6.85069 6.11029C6.58144 5.84104 4.92894 4.92897 4.92894 4.92897C4.92894 4.92897 5.84101 6.58147 6.11026 6.85072C6.31219 7.05265 6.5848 7.12333 6.85405 6.85408Z" fill="#222222"/>
<path d="M18.7235 9.21504C18.8736 9.56501 19.1481 9.60586 19.412 9.49657C19.7638 9.35086 21.2388 8.17318 21.2388 8.17318C21.2388 8.17318 19.363 8.38344 19.0113 8.52916C18.7474 8.63844 18.5778 8.86326 18.7235 9.21504Z" fill="#222222"/>
<path d="M14.7849 18.7235C14.435 18.8736 14.3941 19.1481 14.5034 19.412C14.6491 19.7637 15.8268 21.2388 15.8268 21.2388C15.8268 21.2388 15.6165 19.363 15.4708 19.0112C15.3615 18.7474 15.1367 18.5778 14.7849 18.7235Z" fill="#222222"/>
<path d="M5.27636 14.785C5.12625 14.435 4.85174 14.3942 4.5879 14.5035C4.23611 14.6492 2.76108 15.8269 2.76108 15.8269C2.76108 15.8269 4.63682 15.6166 4.98861 15.4709C5.25245 15.3616 5.42207 15.1368 5.27636 14.785Z" fill="#222222"/>
<path d="M9.21493 5.27647C9.56489 5.12636 9.60574 4.85185 9.49645 4.58801C9.35074 4.23623 8.17306 2.7612 8.17306 2.7612C8.17306 2.7612 8.38332 4.63694 8.52904 4.98873C8.63833 5.25257 8.86314 5.42219 9.21493 5.27647Z" fill="#222222"/>
<path d="M13.4199 4.86224C13.7943 4.93185 13.9808 4.7263 14.0365 4.44621C14.1108 4.07275 13.951 2.19203 13.951 2.19203C13.951 2.19203 13.0838 3.86847 13.0095 4.24193C12.9538 4.52202 13.0465 4.78795 13.4199 4.86224Z" fill="#222222"/>
<path d="M19.1377 13.4196C19.0681 13.794 19.2736 13.9805 19.5537 14.0362C19.9272 14.1105 21.8079 13.9508 21.8079 13.9508C21.8079 13.9508 20.1315 13.0835 19.758 13.0092C19.4779 12.9535 19.212 13.0462 19.1377 13.4196Z" fill="#222222"/>
<path d="M10.5803 19.1376C10.2059 19.0679 10.0194 19.2735 9.96372 19.5536C9.88944 19.927 10.0492 21.8078 10.0492 21.8078C10.0492 21.8078 10.9164 20.1313 10.9907 19.7579C11.0464 19.4778 10.9537 19.2118 10.5803 19.1376Z" fill="#222222"/>
<path d="M4.86251 10.5802C4.93212 10.2058 4.72657 10.0193 4.44648 9.96359C4.07302 9.8893 2.1923 10.049 2.1923 10.049C2.1923 10.049 3.86874 10.9163 4.2422 10.9906C4.52229 11.0463 4.78822 10.9536 4.86251 10.5802Z" fill="#222222"/>
<path d="M16.0432 5.94896C16.3624 6.15655 16.6133 6.038 16.772 5.80055C16.9835 5.48395 17.5557 3.68527 17.5557 3.68527C17.5557 3.68527 16.1129 4.90221 15.9013 5.21881C15.7427 5.45625 15.7266 5.73742 16.0432 5.94896Z" fill="#222222"/>
<path d="M18.0511 16.0431C17.8435 16.3623 17.962 16.6133 18.1995 16.7719C18.5161 16.9835 20.3147 17.5556 20.3147 17.5556C20.3147 17.5556 19.0978 16.1128 18.7812 15.9013C18.5438 15.7426 18.2626 15.7265 18.0511 16.0431Z" fill="#222222"/>
<path d="M7.95685 18.0509C7.63761 17.8434 7.38666 17.9619 7.22801 18.1993C7.01646 18.5159 6.4443 20.3146 6.4443 20.3146C6.4443 20.3146 7.88711 19.0977 8.09865 18.7811C8.25731 18.5436 8.27345 18.2625 7.95685 18.0509Z" fill="#222222"/>
<path d="M5.94908 7.9568C6.15667 7.63755 6.03812 7.38661 5.80067 7.22795C5.48407 7.01641 3.68539 6.44425 3.68539 6.44425C3.68539 6.44425 4.90232 7.88706 5.21892 8.0986C5.45637 8.25726 5.73754 8.2734 5.94908 7.9568Z" fill="#222222"/>
<path d="M18.051 7.95681C18.2665 8.27077 18.5437 8.25728 18.7812 8.09862C19.0978 7.88707 20.3147 6.44427 20.3147 6.44427C20.3147 6.44427 18.516 7.01643 18.1994 7.22797C17.962 7.38663 17.8395 7.64021 18.051 7.95681Z" fill="#222222"/>
<path d="M16.0432 18.051C15.7293 18.2665 15.7428 18.5437 15.9014 18.7811C16.113 19.0977 17.5558 20.3146 17.5558 20.3146C17.5558 20.3146 16.9836 18.516 16.7721 18.1994C16.6134 17.9619 16.3598 17.8394 16.0432 18.051Z" fill="#222222"/>
<path d="M5.94901 16.0431C5.73351 15.7291 5.45631 15.7426 5.21886 15.9013C4.90226 16.1128 3.68533 17.5556 3.68533 17.5556C3.68533 17.5556 5.48401 16.9835 5.80061 16.7719C6.03806 16.6133 6.16056 16.3597 5.94901 16.0431Z" fill="#222222"/>
<path d="M7.95681 5.94895C8.27077 5.73344 8.25728 5.45624 8.09862 5.21879C7.88707 4.90219 6.44427 3.68526 6.44427 3.68526C6.44427 3.68526 7.01643 5.48394 7.22797 5.80054C7.38663 6.03799 7.64021 6.16049 7.95681 5.94895Z" fill="#222222"/>
<path d="M19.1376 10.5801C19.2165 10.9527 19.4778 11.0463 19.7579 10.9906C20.1313 10.9163 21.8078 10.049 21.8078 10.049C21.8078 10.049 19.9271 9.88928 19.5536 9.96357C19.2735 10.0193 19.0633 10.2067 19.1376 10.5801Z" fill="#222222"/>
<path d="M13.4198 19.1376C13.0473 19.2165 12.9537 19.4778 13.0094 19.7579C13.0836 20.1313 13.9509 21.8078 13.9509 21.8078C13.9509 21.8078 14.1106 19.9271 14.0364 19.5536C13.9807 19.2735 13.7932 19.0633 13.4198 19.1376Z" fill="#222222"/>
<path d="M4.86235 13.4197C4.7834 13.0471 4.52213 12.9535 4.24204 13.0092C3.86859 13.0835 2.19215 13.9508 2.19215 13.9508C2.19215 13.9508 4.07287 14.1105 4.44632 14.0362C4.72641 13.9805 4.93663 13.7931 4.86235 13.4197Z" fill="#222222"/>
<path d="M10.5801 4.86228C10.9527 4.78333 11.0463 4.52206 10.9906 4.24197C10.9163 3.86852 10.049 2.19208 10.049 2.19208C10.049 2.19208 9.88928 4.0728 9.96357 4.44626C10.0193 4.72635 10.2067 4.93657 10.5801 4.86228Z" fill="#222222"/>
</svg>
