<svg width="24" height="24" viewBox="0 0 24 24" fill="none" xmlns="http://www.w3.org/2000/svg">
<path d="M10.95 15.55L16.6 9.9L15.175 8.475L10.95 12.7L8.85 10.6L7.425 12.025L10.95 15.55ZM12.4853 21.8651C12.169 21.9615 11.831 21.9615 11.5148 21.8651C9.41496 21.225 7.66421 19.9408 6.2625 18.0125C4.75417 15.9375 4 13.6333 4 11.1V6.386C4 5.55231 4.51715 4.80607 5.29775 4.51334L11.2978 2.26334C11.7505 2.09355 12.2495 2.09355 12.7022 2.26334L18.7022 4.51334C19.4829 4.80607 20 5.55231 20 6.386V11.1C20 13.6333 19.2458 15.9375 17.7375 18.0125C16.3358 19.9408 14.585 21.225 12.4853 21.8651ZM12 19.9C13.7333 19.35 15.1667 18.25 16.3 16.6C17.4333 14.95 18 13.1167 18 11.1V6.375L12 4.125L6 6.375V11.1C6 13.1167 6.56667 14.95 7.7 16.6C8.83333 18.25 10.2667 19.35 12 19.9Z" fill="#222222"/>
</svg>
