<svg width="16" height="16" viewBox="0 0 16 16" fill="none" xmlns="http://www.w3.org/2000/svg">
<path d="M10.5 7.25V8.75H5.5V7.25H10.5Z" fill="#222222"/>
<path d="M1.25 8C1.25 6.20507 2.70507 4.75 4.5 4.75H7V6.25H4.5C3.5335 6.25 2.75 7.0335 2.75 8C2.75 8.9665 3.5335 9.75 4.5 9.75H7V11.25H4.5C2.70507 11.25 1.25 9.79493 1.25 8ZM13.25 8C13.25 7.0335 12.4665 6.25 11.5 6.25H9V4.75H11.5C13.2949 4.75 14.75 6.20507 14.75 8C14.75 9.79493 13.2949 11.25 11.5 11.25H9V9.75H11.5C12.4665 9.75 13.25 8.9665 13.25 8Z" fill="#222222"/>
</svg>
