<svg width="24" height="24" viewBox="0 0 24 24" fill="none" xmlns="http://www.w3.org/2000/svg">
<path fill-rule="evenodd" clip-rule="evenodd" d="M19 5.5H5V15.5H19V5.5ZM5 3.5C3.89543 3.5 3 4.39543 3 5.5V15.5C3 16.6046 3.89543 17.5 5 17.5H19C20.1046 17.5 21 16.6046 21 15.5V5.5C21 4.39543 20.1046 3.5 19 3.5H5ZM7 7.5C6.44772 7.5 6 7.94772 6 8.5C6 9.05228 6.44772 9.5 7 9.5C7.55228 9.5 8 9.05228 8 8.5C8 7.94772 7.55228 7.5 7 7.5ZM10 7.5C9.44772 7.5 9 7.94772 9 8.5C9 9.05228 9.44772 9.5 10 9.5H17C17.5523 9.5 18 9.05228 18 8.5C18 7.94772 17.5523 7.5 17 7.5H10ZM9 12.5C9 11.9477 9.44772 11.5 10 11.5H17C17.5523 11.5 18 11.9477 18 12.5C18 13.0523 17.5523 13.5 17 13.5H10C9.44772 13.5 9 13.0523 9 12.5ZM7 11.5C6.44772 11.5 6 11.9477 6 12.5C6 13.0523 6.44772 13.5 7 13.5C7.55228 13.5 8 13.0523 8 12.5C8 11.9477 7.55228 11.5 7 11.5ZM3 18.5C2.44772 18.5 2 18.9477 2 19.5C2 20.0523 2.44772 20.5 3 20.5H21C21.5523 20.5 22 20.0523 22 19.5C22 18.9477 21.5523 18.5 21 18.5H3Z" fill="#222222"/>
</svg>
