<svg width="24" height="24" viewBox="0 0 24 24" fill="none" xmlns="http://www.w3.org/2000/svg">
<path fill-rule="evenodd" clip-rule="evenodd" d="M17 18.22H5V6H14V4H5C3.9 4 3 4.9 3 6V18C3 19.1 3.9 20 5 20H17C18.1 20 19 19.1 19 18V10H17V18.22Z" fill="#222222"/>
<path d="M14 15C14 14.4477 13.5523 14 13 14H8C7.44772 14 7 14.4477 7 15C7 15.5523 7.44772 16 8 16H13C13.5523 16 14 15.5523 14 15Z" fill="#222222"/>
<path d="M15 12C15 11.4477 14.4883 11 13.8571 11H8.14286C7.51167 11 7 11.4477 7 12C7 12.5523 7.51167 13 8.14286 13H13.8571C14.4883 13 15 12.5523 15 12Z" fill="#222222"/>
<path d="M15 9C15 8.44772 14.4883 8 13.8571 8H8.14286C7.51167 8 7 8.44772 7 9C7 9.55228 7.51167 10 8.14286 10H13.8571C14.4883 10 15 9.55228 15 9Z" fill="#222222"/>
<path d="M17.4879 1.37278L16.6165 1L16.6958 2.00194C16.7001 2.10429 16.6874 2.26567 16.6407 2.46378C16.5728 2.75218 16.4483 3.03946 16.253 3.31395L16.1553 3.44488L15.7982 3.90903C15.0759 4.86802 14.8294 5.64299 15.1178 6.77958C15.2725 7.38952 15.5639 7.87123 15.9503 8.22863C16.163 8.42548 16.3906 8.57195 16.6196 8.67633C16.7628 8.74165 16.8814 8.77981 16.964 8.7981L17.8763 9L17.641 8.02337L17.6343 7.9829C17.6333 7.97621 17.6322 7.96881 17.6311 7.96073L17.6221 7.88338L17.6366 7.90593C17.9232 8.33881 18.3191 8.65859 18.8365 8.81409L19.039 8.87497L19.2307 8.78165C19.4624 8.66885 19.7817 8.45777 20.1023 8.13403C20.668 7.56301 21.0134 6.84098 20.9996 5.97533C20.9876 5.21914 20.82 4.55632 20.5466 3.99349C20.3706 3.63131 20.1879 3.37837 20.0494 3.23329L19.3792 2.53162L19.1334 3.35623L19.1181 3.2852L19.1051 3.2302L19.0913 3.17493C18.9756 2.67341 18.6867 2.24584 18.2906 1.89587C17.9939 1.63373 17.7011 1.46394 17.4879 1.37278Z" fill="#222222"/>
</svg>
