<svg width="16" height="16" viewBox="0 0 16 16" fill="none" xmlns="http://www.w3.org/2000/svg">
<path d="M3.73672 8.54225C3.20942 8.54225 2.73484 8.41831 2.31299 8.17042C1.90169 7.91221 1.58004 7.55587 1.34802 7.10141C1.11601 6.63662 1 6.10986 1 5.52113C1 4.93239 1.11601 4.4108 1.34802 3.95634C1.58004 3.49155 1.90169 3.13521 2.31299 2.88732C2.73484 2.62911 3.20942 2.5 3.73672 2.5C4.26403 2.5 4.73333 2.62911 5.14463 2.88732C5.56648 3.13521 5.89341 3.49155 6.12542 3.95634C6.35744 4.4108 6.47345 4.93239 6.47345 5.52113C6.47345 6.10986 6.35744 6.63662 6.12542 7.10141C5.89341 7.55587 5.56648 7.91221 5.14463 8.17042C4.73333 8.41831 4.26403 8.54225 3.73672 8.54225ZM5.71412 13.4225H3.81582L10.2859 2.57746H12.1842L5.71412 13.4225ZM3.73672 7.13239C4.09529 7.13239 4.37476 6.98779 4.57514 6.69859C4.77552 6.40939 4.87571 6.0169 4.87571 5.52113C4.87571 5.02535 4.77552 4.63286 4.57514 4.34366C4.37476 4.05446 4.09529 3.90986 3.73672 3.90986C3.37815 3.90986 3.09868 4.05446 2.89831 4.34366C2.69793 4.63286 2.59774 5.02535 2.59774 5.52113C2.59774 6.0169 2.69793 6.40939 2.89831 6.69859C3.09868 6.98779 3.37815 7.13239 3.73672 7.13239ZM12.2633 13.5C11.736 13.5 11.2614 13.3761 10.8395 13.1282C10.4282 12.87 10.1066 12.5136 9.87458 12.0592C9.64256 11.5944 9.52655 11.0676 9.52655 10.4789C9.52655 9.89014 9.64256 9.36855 9.87458 8.91408C10.1066 8.4493 10.4282 8.09296 10.8395 7.84507C11.2614 7.58685 11.736 7.45775 12.2633 7.45775C12.7906 7.45775 13.2599 7.58685 13.6712 7.84507C14.093 8.09296 14.42 8.4493 14.652 8.91408C14.884 9.36855 15 9.89014 15 10.4789C15 11.0676 14.884 11.5944 14.652 12.0592C14.42 12.5136 14.093 12.87 13.6712 13.1282C13.2599 13.3761 12.7906 13.5 12.2633 13.5ZM12.2633 12.0901C12.6218 12.0901 12.9013 11.9455 13.1017 11.6563C13.3021 11.3671 13.4023 10.9746 13.4023 10.4789C13.4023 9.9831 13.3021 9.59061 13.1017 9.30141C12.9013 9.01221 12.6218 8.86761 12.2633 8.86761C11.9047 8.86761 11.6252 9.01221 11.4249 9.30141C11.2245 9.59061 11.1243 9.9831 11.1243 10.4789C11.1243 10.9746 11.2245 11.3671 11.4249 11.6563C11.6252 11.9455 11.9047 12.0901 12.2633 12.0901Z" fill="#222222"/>
</svg>
