<svg width="24" height="24" viewBox="0 0 24 24" fill="none" xmlns="http://www.w3.org/2000/svg">
<path fill-rule="evenodd" clip-rule="evenodd" d="M8.47214 4C8.0064 4 7.54706 4.10844 7.1305 4.31672L3.55279 6.10557C3.214 6.27496 3 6.62123 3 7V12C3 12.5523 3.44772 13 4 13H6V15V19C6 19.5523 6.44772 20 7 20H17C17.5523 20 18 19.5523 18 19V15V13H20C20.5523 13 21 12.5523 21 12V7C21 6.62123 20.786 6.27496 20.4472 6.10557L16.8695 4.31672C16.4529 4.10844 15.9936 4 15.5279 4H8.47214ZM16 12C16 11.4477 16.4477 11 17 11H19V7.61803L16.2387 6.23739L13.0929 12.0795L14.1037 14H16V12ZM14.095 6H9.89321L11.9701 9.94618L14.095 6ZM11.8436 14L7.75873 6.23867L5 7.61803V11H7C7.55228 11 8 11.4477 8 12V14H11.8436ZM8 16H13.4808C13.4941 16.0003 13.5075 16.0003 13.5209 16H16V18H8V16Z" fill="#222222"/>
</svg>
