<svg width="24" height="24" viewBox="0 0 24 24" fill="none" xmlns="http://www.w3.org/2000/svg">
<path d="M19 4H18V2H16V4H8V2H6V4H5C3.89 4 3.01 4.9 3.01 6L3 20C3 21.1 3.89 22 5 22H19C20.1 22 21 21.1 21 20V6C21 4.9 20.1 4 19 4ZM19 20H5V10H19V20ZM19 8H5V6H19V8Z" fill="#222222"/>
<path fill-rule="evenodd" clip-rule="evenodd" d="M17.1 11.5H14.5286C13.9629 11.5 13.5 11.9821 13.5 12.5714V16.8571C13.5 17.4464 13.9629 17.9286 14.5286 17.9286H17.1C17.6657 17.9286 18.1286 17.4464 18.1286 16.8571V12.5714C18.1286 11.9821 17.6657 11.5 17.1 11.5ZM16.5857 16.3214H15.0429V13.1071H16.5857V16.3214Z" fill="#222222"/>
<path d="M10.6286 17.9286H6V15.25C6 14.6607 6.46286 14.1786 7.02857 14.1786H9.08571V13.1071H6V11.5H9.6C10.1657 11.5 10.6286 11.9821 10.6286 12.5714V14.1786C10.6286 14.7679 10.1657 15.25 9.6 15.25H7.54286V16.3214H10.6286V17.9286Z" fill="#222222"/>
<path d="M11.5 12.7C11.5 12.5895 11.5895 12.5 11.7 12.5H12.3C12.4105 12.5 12.5 12.5895 12.5 12.7V13.3C12.5 13.4105 12.4105 13.5 12.3 13.5H11.7C11.5895 13.5 11.5 13.4105 11.5 13.3V12.7Z" fill="#222222"/>
<path d="M11.5 15.7C11.5 15.5895 11.5895 15.5 11.7 15.5H12.3C12.4105 15.5 12.5 15.5895 12.5 15.7V16.3C12.5 16.4105 12.4105 16.5 12.3 16.5H11.7C11.5895 16.5 11.5 16.4105 11.5 16.3V15.7Z" fill="#222222"/>
</svg>
