<svg width="24" height="24" viewBox="0 0 24 24" fill="none" xmlns="http://www.w3.org/2000/svg">
<path fill-rule="evenodd" clip-rule="evenodd" d="M22.2857 5.57142V18.4286C22.2857 19.6071 21.36 20.5714 20.2286 20.5714H3.77142C2.63999 20.5714 1.71428 19.6071 1.71428 18.4286V5.57142C1.71428 4.39284 2.63999 3.42856 3.77142 3.42856H6.85714H8.91428H15.0857H17.1429H20.2286C21.36 3.42856 22.2857 4.39284 22.2857 5.57142ZM5.68163 15.2143H10.3102V13.6071H7.22448V12.5357H9.28163C9.84734 12.5357 10.3102 12.0536 10.3102 11.4643V9.85713C10.3102 9.26784 9.84734 8.7857 9.28163 8.7857H5.68163V10.3928H8.76734V11.4643H6.7102C6.14448 11.4643 5.68163 11.9464 5.68163 12.5357V15.2143ZM17.2898 8.7857H14.7184C14.1526 8.7857 13.6898 9.26784 13.6898 9.85713V14.1428C13.6898 14.7321 14.1526 15.2143 14.7184 15.2143H17.2898C17.8555 15.2143 18.3184 14.7321 18.3184 14.1428V9.85713C18.3184 9.26784 17.8555 8.7857 17.2898 8.7857ZM16.7755 13.6071H15.2326V10.3928H16.7755V13.6071ZM20.2286 5.57142V18.4286H12.7714H11.2286H3.77142V5.57142H11.2286H12.7714H20.2286Z" fill="#222222"/>
</svg>
