<svg width="24" height="24" viewBox="0 0 24 24" fill="none" xmlns="http://www.w3.org/2000/svg">
<path fill-rule="evenodd" clip-rule="evenodd" d="M17.0129 4.52829C15.5794 3.5635 13.8543 3 12 3C7.0368 3 3 7.0368 3 12C3 16.9632 7.0368 21 12 21C16.607 21 20.4157 17.5219 20.9388 13.0532L20.9113 13.0392L19.3378 12.1674C19.2619 13.7482 18.664 15.1929 17.7119 16.3449L15.4602 16.383L14.7891 18.4709C13.9429 18.8093 13.0189 19 12.0462 19C11.0736 19 10.1496 18.8093 9.30335 18.4709L8.63222 16.383L6.38054 16.3449C5.36412 15.1151 4.75135 13.5516 4.75135 11.8498C4.75135 11.7773 4.75676 11.7047 4.76209 11.6332C4.76551 11.5873 4.7689 11.5418 4.7708 11.4971L6.76473 10.3578L6.16169 7.64556C7.09057 6.39666 8.41824 5.45284 9.96475 5L12.0511 6.48723L14.1374 5C14.4572 5.09363 14.7674 5.20825 15.0665 5.34221L16.7513 5.08491L17.0129 4.52829ZM15.18 10.926L12.0486 8.65256L8.76486 11.0374L10.0178 14.8987H14.0795L15.0351 11.9528C15.0343 11.913 15.0353 11.8727 15.0383 11.8319L15.0525 11.7113L15.18 10.926ZM16.0395 11.8721L16.5146 8.95507L14.5046 6.89166C14.3452 6.72828 14.436 6.45149 14.6632 6.41656L17.43 5.99328L18.6698 3.34811C18.7624 3.15056 19.086 3.15056 19.1787 3.34811L20.4188 5.99366L23.1856 6.41693C23.4121 6.45149 23.5036 6.72866 23.3442 6.89203L21.3342 8.95544L21.8093 11.8725C21.8476 12.1065 21.5982 12.277 21.3957 12.1643L18.9244 10.7961L16.4531 12.1639C16.2488 12.2777 16.0016 12.1038 16.0395 11.8721Z" fill="#222222"/>
</svg>
