<svg width="24" height="24" viewBox="0 0 24 24" fill="none" xmlns="http://www.w3.org/2000/svg">
<path fill-rule="evenodd" clip-rule="evenodd" d="M4 3C4 2.44772 4.44772 2 5 2H15C15.2652 2 15.5196 2.10536 15.7071 2.29289L19.7071 6.29289C19.8946 6.48043 20 6.73478 20 7V21C20 21.5523 19.5523 22 19 22H5C4.44772 22 4 21.5523 4 21V3ZM6 4V20H18V8H15C14.4477 8 14 7.55228 14 7V4H6ZM15.8857 18H15.7554H8.28114H8.11428C8.05117 18 8 17.9488 8 17.8857V17.7028V10.2857V10.1143C8 10.0512 8.05117 10 8.11428 10H8.28114H9.75543H9.94043H9.9426C10.0057 10.0012 10.0559 10.0533 10.0547 10.1165C10.0533 10.1912 10.0526 10.2476 10.0526 10.2857V14.88L13.2983 10.2171C13.3364 10.1562 13.3859 10.1048 13.4468 10.0629C13.5078 10.021 13.5878 10 13.6868 10H15.7143H15.8857C15.9488 10 16 10.0512 16 10.1143V10.2857V17.7143V17.8857C16 17.9488 15.9488 18 15.8857 18Z" fill="#222222"/>
</svg>
