<svg width="24" height="24" viewBox="0 0 24 24" fill="none" xmlns="http://www.w3.org/2000/svg">
<path fill-rule="evenodd" clip-rule="evenodd" d="M5 3C4.44772 3 4 3.44772 4 4V20C4 20.5523 4.44772 21 5 21H8H9H19C19.5523 21 20 20.5523 20 20V4C20 3.44772 19.5523 3 19 3H8H5ZM7 5H6V19H7V5ZM9 19H18V5H16.5V9.1169C16.5 9.50555 16.076 9.74561 15.7428 9.54565L14.2572 8.65435C14.0989 8.55934 13.9011 8.55934 13.7428 8.65435L12.2572 9.54565C11.924 9.74561 11.5 9.50555 11.5 9.1169V5H9V19Z" fill="#222222"/>
</svg>
