<svg width="24" height="24" viewBox="0 0 24 24" fill="none" xmlns="http://www.w3.org/2000/svg">
<path fill-rule="evenodd" clip-rule="evenodd" d="M6 11V5H7.10002C7.56329 7.28224 9.58104 9 12 9C14.419 9 16.4367 7.28224 16.9 5H18V11H6ZM12 7C10.6938 7 9.58254 6.16519 9.17071 5H14.8293C14.4175 6.16519 13.3062 7 12 7ZM4 12V4C4 3.44772 4.44772 3 5 3H19C19.5523 3 20 3.44772 20 4V12V20C20 20.5523 19.5523 21 19 21H5C4.44772 21 4 20.5523 4 20V12ZM18 13V19H16.9C16.4367 16.7178 14.419 15 12 15C9.58104 15 7.56329 16.7178 7.10002 19H6V13H18ZM9.17071 19H14.8293C14.4175 17.8348 13.3062 17 12 17C10.6938 17 9.58254 17.8348 9.17071 19Z" fill="#222222"/>
</svg>
