<svg width="24" height="24" viewBox="0 0 24 24" fill="none" xmlns="http://www.w3.org/2000/svg">
<path fill-rule="evenodd" clip-rule="evenodd" d="M12.53 3.152C12.2057 2.94933 11.7943 2.94933 11.47 3.152L3.47 8.152C3.1227 8.36906 2.94287 8.77594 3.01613 9.17889L5.01613 20.1789C5.10258 20.6544 5.51671 21 6 21H18C18.4833 21 18.8974 20.6544 18.9839 20.1789L20.9839 9.17889C21.0571 8.77594 20.8773 8.36906 20.53 8.152L12.53 3.152ZM6.83457 19L5.10521 9.48849L12 5.17925L18.8948 9.48849L17.1654 19H6.83457ZM9.2383 13.0605L10.6914 13.4062C10.7852 13.293 10.916 13.1875 11.084 13.0898C11.252 12.9922 11.4844 12.9434 11.7813 12.9434C12.0078 12.9434 12.2012 12.9785 12.3613 13.0488C12.5254 13.1152 12.6602 13.2129 12.7656 13.3418C12.8711 13.4668 12.9492 13.6191 13 13.7988C13.0508 13.9746 13.0762 14.1738 13.0762 14.3965C13.0762 14.6113 13.0567 14.8125 13.0176 15C12.9785 15.1875 12.916 15.3516 12.8301 15.4922C12.7481 15.6328 12.6367 15.7441 12.4961 15.8262C12.3555 15.9043 12.1836 15.9434 11.9805 15.9434C11.7695 15.9434 11.584 15.9004 11.4238 15.8145C11.2637 15.7246 11.1367 15.5996 11.043 15.4395C10.9492 15.2754 10.8926 15.0801 10.8731 14.8535H9.04494C9.04884 15.2441 9.13087 15.5957 9.29103 15.9082C9.45509 16.2207 9.6758 16.4863 9.95314 16.7051C10.2344 16.9199 10.5508 17.084 10.9024 17.1973C11.2539 17.3105 11.6172 17.3672 11.9922 17.3672C12.4883 17.3672 12.9199 17.2891 13.2871 17.1328C13.6543 16.9766 13.957 16.7656 14.1953 16.5C14.4375 16.2305 14.6172 15.9258 14.7344 15.5859C14.8516 15.2422 14.9102 14.8828 14.9102 14.5078C14.9102 14.0547 14.8516 13.6504 14.7344 13.2949C14.6211 12.9395 14.4512 12.6406 14.2246 12.3984C14.002 12.1523 13.7285 11.9648 13.4043 11.8359C13.0801 11.707 12.709 11.6426 12.291 11.6426C12.0098 11.6426 11.7559 11.6816 11.5293 11.7598C11.3027 11.834 11.1367 11.9023 11.0313 11.9648L11.2363 10.166H14.6231V8.71875H9.73634L9.2383 13.0605Z" fill="#222222"/>
</svg>
