<svg width="24" height="24" viewBox="0 0 24 24" fill="none" xmlns="http://www.w3.org/2000/svg">
<path d="M11.4893 3L11.183 3.00274C9.2514 3.0542 7.47356 3.75298 6.18466 5.07236C4.30447 6.99712 3.78544 9.62508 4.07475 13.1192L4.14613 13.9285L15.799 21L16.3893 20.3595C17.9087 18.7108 18.8239 17.3659 19.4208 15.6779C20.0525 13.8918 20.1676 11.974 19.7654 9.80924C19.4204 7.95271 18.511 6.3472 17.1796 5.14697C15.6791 3.79427 13.5909 3.01808 11.4893 3ZM11.471 5.13987L11.752 5.14824C13.2491 5.22434 14.7151 5.80165 15.7549 6.73903C16.376 7.2989 16.8723 7.9769 17.219 8.74975L16.8704 8.66063L16.3226 8.50559L15.9193 8.38486L15.4847 8.25017L14.7722 8.0218L12.1133 7.1408L11.5897 6.97398L11.1402 6.83747L10.8127 6.7424L10.391 6.62787L10.1509 6.57116C9.51318 6.43347 9.22116 6.49393 8.90766 6.81773C8.11805 7.63329 8.57978 10.1808 9.74236 11.7683C10.7461 13.1389 12.2399 14.1099 14.3838 15.142C15.2525 15.5603 16.0948 15.8943 16.8981 16.1286C16.5595 16.7702 16.1261 17.3921 15.5614 18.0691L15.4017 18.2575L6.17928 12.6606L6.1731 12.589C5.99829 9.95843 6.38314 8.05469 7.55039 6.73885L7.70709 6.57054C8.63448 5.62122 9.97268 5.12698 11.471 5.13987ZM10.1544 8.44699L10.2698 8.47613L10.5655 8.55682L11.0105 8.68883L11.6687 8.89721L14.3572 9.78786L15.173 10.0487L15.6667 10.2004L16.1226 10.3346L16.5427 10.4515L16.929 10.5512L17.2835 10.6341C17.4532 10.6714 17.6118 10.7024 17.7603 10.7272C17.9521 12.0939 17.8896 13.3061 17.5775 14.4347L17.4896 14.4125C16.8148 14.2289 16.0943 13.9588 15.3436 13.6144L15.02 13.4622C13.1117 12.5435 11.7739 11.6739 10.991 10.6049C10.5864 10.0524 10.3125 9.37125 10.1923 8.70814L10.1672 8.55323L10.1544 8.44699Z" fill="#222222"/>
</svg>
