<svg width="24" height="24" viewBox="0 0 24 24" fill="none" xmlns="http://www.w3.org/2000/svg">
<path fill-rule="evenodd" clip-rule="evenodd" d="M17 17.22H5V5H12V3H5C3.9 3 3 3.9 3 5V17C3 18.1 3.9 19 5 19H17C18.1 19 19 18.1 19 17V10H17V17.22Z" fill="#222222"/>
<path d="M14 14C14 13.4477 13.5523 13 13 13H8C7.44772 13 7 13.4477 7 14C7 14.5523 7.44772 15 8 15H13C13.5523 15 14 14.5523 14 14Z" fill="#222222"/>
<path d="M15 11C15 10.4477 14.4883 10 13.8571 10H8.14286C7.51167 10 7 10.4477 7 11C7 11.5523 7.51167 12 8.14286 12H13.8571C14.4883 12 15 11.5523 15 11Z" fill="#222222"/>
<path d="M15 8C15 7.44772 14.4883 7 13.8571 7H8.14286C7.51167 7 7 7.44772 7 8C7 8.55228 7.51167 9 8.14286 9H13.8571C14.4883 9 15 8.55228 15 8Z" fill="#222222"/>
<path d="M18.3078 7.43203C19.0705 6.86671 20.1711 5.98166 20.6297 5.27383C20.9729 4.74502 21.0845 4.08986 20.9353 3.48071C20.6163 2.09312 18.8503 1.52612 17.7503 2.456C17.6885 2.50795 17.6314 2.56554 17.5729 2.62468C17.549 2.64882 17.5248 2.67321 17.5 2.69758C17.4752 2.67321 17.451 2.64881 17.4271 2.62468C17.3686 2.56554 17.3116 2.50795 17.2497 2.456C16.1497 1.52612 14.3837 2.09312 14.0647 3.48071C13.9155 4.08986 14.0271 4.74502 14.3703 5.27383C14.8289 5.98166 15.9295 6.86671 16.6922 7.43203C16.9047 7.58959 17.5 8 17.5 8C17.5 8 18.0953 7.58959 18.3078 7.43203Z" fill="#222222"/>
<path d="M18.3955 3.21973C18.9443 2.75579 19.8157 3.07331 19.9609 3.70508L19.9619 3.71191L19.9639 3.71875C20.0471 4.0584 19.9849 4.43068 19.791 4.72949L19.79 4.73047C19.6365 4.96717 19.3301 5.29267 18.918 5.65918C18.5206 6.01255 18.0802 6.35595 17.7119 6.62891C17.6632 6.66499 17.5865 6.71719 17.5 6.77832C17.4135 6.71719 17.3368 6.66499 17.2881 6.62891C16.9198 6.35595 16.4794 6.01255 16.082 5.65918C15.6698 5.29267 15.3635 4.96717 15.21 4.73047L15.209 4.72949L15.1426 4.61426C15.0018 4.33818 14.9633 4.01599 15.0361 3.71875L15.0381 3.71191L15.0391 3.70508C15.1843 3.0733 16.0557 2.7558 16.6045 3.21973L16.6064 3.22168C16.627 3.23898 16.6523 3.26296 16.7158 3.32715V3.32812C16.7392 3.35172 16.7689 3.38084 16.7998 3.41113L17.5 4.09863L18.2002 3.41113C18.2311 3.38086 18.2598 3.35077 18.2832 3.32715C18.3471 3.2626 18.3729 3.23902 18.3936 3.22168L18.3955 3.21973Z" stroke="#222222" stroke-width="2"/>
</svg>
