<svg width="24" height="24" viewBox="0 0 24 24" fill="none" xmlns="http://www.w3.org/2000/svg">
<path d="M3.4516 16.8139C3.45152 16.914 3.42463 17.0091 3.37152 17.0922L3.31 17.1713C3.21148 17.2753 3.08251 17.3217 2.9516 17.3217C2.82279 17.3216 2.6895 17.2786 2.58734 17.1703L2.57855 17.1606C2.49513 17.064 2.45163 16.9456 2.4516 16.8188C2.45161 16.5712 2.51783 16.3406 2.65277 16.1362C2.7876 15.9346 2.97021 15.7775 3.19086 15.6684C3.41621 15.5534 3.66827 15.5005 3.9389 15.5004C4.19081 15.5004 4.42694 15.5547 4.64008 15.6694L4.7934 15.7602C4.9389 15.8601 5.06038 15.9865 5.1557 16.1381L5.20062 16.2104C5.304 16.3952 5.35589 16.6024 5.3559 16.8188C5.35587 16.9904 5.3101 17.1534 5.22699 17.3051C5.16559 17.4223 5.08732 17.5292 4.99457 17.6254C5.02044 17.6448 5.04537 17.6655 5.06976 17.687C5.2266 17.8248 5.34532 17.9902 5.42133 18.1821L5.46918 18.3178C5.50966 18.455 5.52972 18.5971 5.52972 18.7426C5.52968 18.9896 5.47457 19.2206 5.36176 19.4301L5.31 19.519C5.16789 19.7442 4.97108 19.92 4.72894 20.0473C4.48467 20.1714 4.21356 20.2338 3.92816 20.2338C3.63276 20.2338 3.35641 20.1722 3.10687 20.0434C2.86511 19.9118 2.6629 19.7271 2.51898 19.4975C2.3713 19.2618 2.30029 18.9967 2.30023 18.7114C2.30023 18.5859 2.34038 18.4641 2.42719 18.3637L2.46136 18.3276C2.55673 18.2397 2.68038 18.1977 2.80023 18.1977C2.93738 18.1978 3.0725 18.2484 3.1723 18.3637C3.25912 18.4641 3.30023 18.5859 3.30023 18.7114C3.30029 18.8154 3.32433 18.9023 3.36957 18.9789L3.41547 19.0434L3.49164 19.1186C3.51937 19.1415 3.55023 19.1625 3.58441 19.1821L3.65668 19.2153C3.73259 19.2434 3.81736 19.2582 3.91156 19.2582C4.13992 19.2582 4.27962 19.1993 4.36859 19.1157C4.46222 19.0245 4.51307 18.9084 4.51312 18.7426C4.51312 18.6175 4.48589 18.5249 4.44281 18.4536C4.39423 18.3713 4.32902 18.3073 4.24847 18.2641C4.16725 18.2185 4.06645 18.19 3.95062 18.1899C3.81947 18.1899 3.69461 18.1431 3.59613 18.0483C3.49328 17.9492 3.44488 17.8207 3.44476 17.687C3.44476 17.5507 3.49729 17.4248 3.59613 17.3295C3.69457 17.2348 3.8196 17.1889 3.95062 17.1889C4.02671 17.1888 4.08995 17.1707 4.14691 17.1391C4.21612 17.0991 4.26789 17.05 4.30609 16.9907C4.33937 16.9389 4.35587 16.884 4.3559 16.8188C4.35588 16.7135 4.32261 16.6397 4.25531 16.5766C4.19128 16.5151 4.09378 16.4702 3.9389 16.4702C3.82689 16.4702 3.73794 16.4918 3.66547 16.5278C3.58885 16.5636 3.53003 16.6097 3.49457 16.6596C3.46678 16.7001 3.4516 16.7492 3.4516 16.8139Z" fill="#222222"/>
<path d="M5.6889 13.6582C5.68874 13.9334 5.46609 14.1561 5.19086 14.1563H2.79828C2.52303 14.1561 2.3004 13.9334 2.30023 13.6582C2.30023 13.1681 2.56854 12.7728 2.86176 12.4727C3.15783 12.1698 3.546 11.8961 3.91742 11.6485C4.42966 11.307 4.51706 11.0188 4.52094 10.8731C4.5252 10.7096 4.43157 10.5626 4.31586 10.4854C4.08717 10.3329 3.66939 10.3599 3.41254 10.7451C3.25976 10.9741 2.95024 11.0365 2.72113 10.8838C2.49213 10.7312 2.4302 10.4215 2.58246 10.1924C3.12242 9.38248 4.14964 9.17536 4.86957 9.6553C5.22707 9.89384 5.53254 10.3445 5.51801 10.8994C5.50285 11.4724 5.15303 12.0233 4.47015 12.4785C4.10691 12.7207 3.80274 12.942 3.58734 13.1592H5.19086C5.46614 13.1594 5.6889 13.3829 5.6889 13.6582Z" fill="#222222"/>
<path d="M4.19388 8.09965C4.46921 8.09965 4.69278 7.87691 4.69291 7.60161V3.89848C4.69281 3.72087 4.59759 3.55604 4.44388 3.46684C4.29021 3.37794 4.10087 3.37789 3.94681 3.46587L2.5513 4.26274C2.3122 4.39937 2.22916 4.70429 2.36576 4.9434C2.5024 5.18253 2.8073 5.26559 3.04642 5.12895L3.69486 4.75786V7.60161C3.69499 7.87686 3.91861 8.09958 4.19388 8.09965Z" fill="#222222"/>
<path d="M8 4.84998H21V7.14998H8V4.84998Z" fill="#222222"/>
<path d="M8 16.85H21V19.15H8V16.85Z" fill="#222222"/>
<path d="M8 10.85H21V13.15H8V10.85Z" fill="#222222"/>
</svg>
