<svg width="24" height="24" viewBox="0 0 24 24" fill="none" xmlns="http://www.w3.org/2000/svg">
<path fill-rule="evenodd" clip-rule="evenodd" d="M9.25 3.69884C9.25 4.64479 8.4778 5.41699 7.55116 5.41699C6.60521 5.41699 5.83301 4.64479 5.83301 3.69884C5.83301 2.7722 6.60521 2 7.55116 2C8.4778 2 9.25 2.7722 9.25 3.69884ZM4.25 14.2973C4.25 10.0116 7.7249 6.5753 11.9913 6.5753C16.277 6.5753 19.7519 10.0116 19.7519 14.2973C19.7519 18.5637 16.277 22 11.9913 22C7.7249 22 4.25 18.5637 4.25 14.2973ZM7.66699 14.2973C7.66699 16.6718 9.6168 18.7761 11.9913 18.7761C14.3851 18.7761 16.3349 16.6718 16.3349 14.2973C16.3349 11.9035 14.3851 9.79923 11.9913 9.79923C9.6168 9.79923 7.66699 11.9035 7.66699 14.2973ZM16.4315 5.41699C17.3581 5.41699 18.1303 4.64479 18.1303 3.69884C18.1303 2.7722 17.3581 2 16.4315 2C15.4855 2 14.7133 2.7722 14.7133 3.69884C14.7133 4.64479 15.4855 5.41699 16.4315 5.41699ZM13.6902 3.69884C13.6902 4.64479 12.918 5.41699 11.9913 5.41699C11.0454 5.41699 10.2732 4.64479 10.2732 3.69884C10.2732 2.7722 11.0454 2 11.9913 2C12.918 2 13.6902 2.7722 13.6902 3.69884Z" fill="#222222"/>
</svg>
