<svg width="24" height="24" viewBox="0 0 24 24" fill="none" xmlns="http://www.w3.org/2000/svg">
<path fill-rule="evenodd" clip-rule="evenodd" d="M5 3C3.89543 3 3 3.89543 3 5V19C3 20.1046 3.89543 21 5 21H19C20.1046 21 21 20.1046 21 19V12H19V19H5V5H12V3H5ZM15 3C14.4477 3 14 3.44772 14 4C14 4.55228 14.4477 5 15 5H17.5858L10.2929 12.2929C9.90237 12.6834 9.90237 13.3166 10.2929 13.7071C10.6834 14.0976 11.3166 14.0976 11.7071 13.7071L19 6.41421V9C19 9.55228 19.4477 10 20 10C20.5523 10 21 9.55228 21 9V4C21 3.44772 20.5523 3 20 3H15Z" fill="#222222"/>
</svg>
