<svg width="24" height="24" viewBox="0 0 24 24" fill="none" xmlns="http://www.w3.org/2000/svg">
<path fill-rule="evenodd" clip-rule="evenodd" d="M12 19C15.866 19 19 15.866 19 12C19 8.13401 15.866 5 12 5C8.13401 5 5 8.13401 5 12C5 15.866 8.13401 19 12 19ZM12 21C16.9706 21 21 16.9706 21 12C21 7.02944 16.9706 3 12 3C7.02944 3 3 7.02944 3 12C3 16.9706 7.02944 21 12 21ZM12 8C12.5523 8 13 8.44772 13 9V11H15C15.5523 11 16 11.4477 16 12C16 12.5523 15.5523 13 15 13H13V15C13 15.5523 12.5523 16 12 16C11.4477 16 11 15.5523 11 15V13H9C8.44772 13 8 12.5523 8 12C8 11.4477 8.44772 11 9 11H11V9C11 8.44772 11.4477 8 12 8Z" fill="#222222"/>
</svg>
