<svg width="24" height="24" viewBox="0 0 24 24" fill="none" xmlns="http://www.w3.org/2000/svg">
<path fill-rule="evenodd" clip-rule="evenodd" d="M12.7834 15.3371C14.4219 15.362 15.9694 14.9317 16.9184 14.1818C18.2955 13.0936 18.9073 12.0989 18.9976 11.2112C19.0827 10.3745 18.762 9.00846 16.7895 7.00993C15.1983 5.39774 13.8124 4.96181 12.7798 5.01784C11.7395 5.07429 10.6565 5.65096 9.71095 6.87937C8.97087 7.84084 8.54618 9.40877 8.57079 11.0689C8.5964 12.797 9.09056 13.9909 9.49497 14.4007C9.89938 14.8104 11.0778 15.3111 12.7834 15.3371ZM8.09005 15.8241C8.34407 16.0815 8.6617 16.3093 9.0281 16.5052L6.99169 16.9637L6.98729 16.9592L6.98293 16.9548L7.43303 14.9027C7.62296 15.2617 7.84267 15.5735 8.09005 15.8241ZM18.1402 15.7692C16.6872 16.9174 14.5793 17.4021 12.6163 17.3469L12.6017 17.3503L7.33692 18.5357C7.26502 18.7397 7.14848 18.9311 6.98729 19.0944L5.54381 20.5569C4.96187 21.1466 4.01837 21.1466 3.43643 20.5569C2.8545 19.9673 2.8545 19.0114 3.43643 18.4218L4.87991 16.9592C5.04112 16.7959 5.23008 16.6778 5.43141 16.605L6.58976 11.3236C6.51907 9.3107 6.99476 7.1347 8.14424 5.64138C10.5706 2.48927 14.4459 1.78854 18.1944 5.58648C22.5677 10.0174 21.2513 13.3109 18.1402 15.7692ZM13.5122 8.15424C13.7114 8.35606 14.0343 8.35606 14.2335 8.15424C14.4327 7.95242 14.4327 7.62521 14.2335 7.42339C14.0343 7.22157 13.7114 7.22157 13.5122 7.42339C13.313 7.62521 13.313 7.95242 13.5122 8.15424ZM11.3464 11.0792C11.1472 11.281 10.8243 11.281 10.6251 11.0792C10.4259 10.8774 10.4259 10.5502 10.6251 10.3484C10.8243 10.1465 11.1472 10.1465 11.3464 10.3484C11.5456 10.5502 11.5456 10.8774 11.3464 11.0792ZM10.6251 8.15424C10.8243 8.35606 11.1472 8.35606 11.3464 8.15424C11.5456 7.95242 11.5456 7.62521 11.3464 7.42339C11.1472 7.22157 10.8243 7.22157 10.6251 7.42339C10.4259 7.62521 10.4259 7.95242 10.6251 8.15424ZM13.8725 10.7136C13.6733 10.9154 13.3503 10.9154 13.1511 10.7136C12.9519 10.5118 12.9519 10.1846 13.1511 9.98274C13.3503 9.78092 13.6733 9.78092 13.8725 9.98274C14.0717 10.1846 14.0717 10.5118 13.8725 10.7136ZM15.6772 10.348C15.8764 10.5498 16.1993 10.5498 16.3985 10.348C16.5977 10.1461 16.5977 9.81893 16.3985 9.61711C16.1993 9.41529 15.8764 9.41529 15.6772 9.61711C15.478 9.81893 15.478 10.1461 15.6772 10.348ZM13.5118 13.2731C13.3126 13.4749 12.9896 13.4749 12.7905 13.2731C12.5913 13.0712 12.5913 12.744 12.7905 12.5422C12.9896 12.3404 13.3126 12.3404 13.5118 12.5422C13.711 12.744 13.711 13.0712 13.5118 13.2731ZM15.6772 13.2731C15.8764 13.4749 16.1993 13.4749 16.3985 13.2731C16.5977 13.0712 16.5977 12.744 16.3985 12.5422C16.1993 12.3404 15.8764 12.3404 15.6772 12.5422C15.478 12.744 15.478 13.0712 15.6772 13.2731Z" fill="#222222"/>
</svg>
