<svg width="16" height="16" viewBox="0 0 16 16" fill="none" xmlns="http://www.w3.org/2000/svg">
<path d="M6.5 2.5C7.05228 2.5 7.5 2.94772 7.5 3.5V12.5C7.5 13.0177 7.10667 13.4438 6.60254 13.4951L6.5 13.5H3.5L3.39746 13.4951C2.92703 13.4472 2.55278 13.073 2.50488 12.6025L2.5 12.5V3.5C2.5 2.94772 2.94772 2.5 3.5 2.5H6.5ZM12.5 2.5C13.0523 2.5 13.5 2.94772 13.5 3.5V12.5C13.5 13.0177 13.1067 13.4438 12.6025 13.4951L12.5 13.5H9.5L9.39746 13.4951C8.92703 13.4472 8.55278 13.073 8.50488 12.6025L8.5 12.5V3.5C8.5 2.94772 8.94772 2.5 9.5 2.5H12.5ZM4 12H6V4H4V12ZM10 12H12V4H10V12Z" fill="#222222"/>
</svg>
