<svg width="24" height="24" viewBox="0 0 24 24" fill="none" xmlns="http://www.w3.org/2000/svg">
<path fill-rule="evenodd" clip-rule="evenodd" d="M19 18H5V12H13.5V10H4C3.44772 10 3 10.4477 3 11V19L3.00488 19.1025C3.05621 19.6067 3.48232 20 4 20H20L20.1025 19.9951C20.573 19.9472 20.9472 19.573 20.9951 19.1025L21 19V16H19V18Z" fill="#222222"/>
<path d="M18.6924 14.656C19.3461 14.1715 20.2895 13.4129 20.6826 12.8061C20.9767 12.3529 21.0724 11.7913 20.9445 11.2692C20.6711 10.0798 19.1574 9.59381 18.2146 10.3909C18.1615 10.4354 18.1126 10.4848 18.0625 10.5354C18.042 10.5561 18.0213 10.577 18 10.5979C17.9787 10.577 17.958 10.5561 17.9375 10.5354C17.8874 10.4848 17.8385 10.4354 17.7854 10.3909C16.8426 9.59381 15.3289 10.0798 15.0555 11.2692C14.9276 11.7913 15.0233 12.3529 15.3174 12.8061C15.7105 13.4129 16.6539 14.1715 17.3076 14.656C17.4897 14.7911 18 15.1429 18 15.1429C18 15.1429 18.5103 14.7911 18.6924 14.656Z" fill="#222222"/>
<path d="M4 10.8574H12.6426V11.1426H4.14258V18.8574H19.8574V16.8574H20.1426V18.9795L20.1396 19.0225C20.1303 19.0827 20.0827 19.1303 20.0225 19.1396L19.9795 19.1426H4C3.92862 19.1426 3.86972 19.0899 3.85938 19.0225L3.85742 18.9795V11C3.85742 10.9211 3.9211 10.8574 4 10.8574ZM18.7676 11.0459C19.2379 10.6483 19.9848 10.9195 20.1094 11.4609L20.1123 11.4736C20.1835 11.7646 20.13 12.0839 19.9639 12.3398H19.9629C19.8314 12.5428 19.5693 12.8224 19.2158 13.1367C18.8752 13.4396 18.4973 13.7338 18.1816 13.9678C18.1398 13.9988 18.0743 14.0442 18 14.0967C17.9257 14.0442 17.8602 13.9988 17.8184 13.9678C17.5027 13.7338 17.1248 13.4396 16.7842 13.1367C16.4307 12.8224 16.1686 12.5428 16.0371 12.3398H16.0361C15.87 12.0839 15.8165 11.7647 15.8877 11.4736L15.8906 11.4609C16.0152 10.9195 16.7621 10.6483 17.2324 11.0459L17.2344 11.0469C17.2521 11.0618 17.2732 11.0831 17.3281 11.1387C17.3481 11.1588 17.373 11.184 17.3994 11.21L18 11.7988L18.6006 11.21C18.627 11.1841 18.6519 11.1589 18.6719 11.1387C18.7268 11.0831 18.7479 11.0618 18.7656 11.0469L18.7676 11.0459ZM4 4.85742H20C20.0789 4.85742 20.1426 4.9211 20.1426 5V8C20.1426 8.0789 20.0789 8.14258 20 8.14258H4C3.9211 8.14258 3.85742 8.0789 3.85742 8V5C3.85742 4.9211 3.9211 4.85742 4 4.85742Z" stroke="#222222" stroke-width="1.71429"/>
</svg>
