<svg width="24" height="24" viewBox="0 0 24 24" fill="none" xmlns="http://www.w3.org/2000/svg">
<path fill-rule="evenodd" clip-rule="evenodd" d="M8 4.5C8 5.32843 7.32843 6 6.5 6C5.67157 6 5 5.32843 5 4.5C5 3.67157 5.67157 3 6.5 3C7.32843 3 8 3.67157 8 4.5ZM13.5 4.5C13.5 5.32843 12.8284 6 12 6C11.1716 6 10.5 5.32843 10.5 4.5C10.5 3.67157 11.1716 3 12 3C12.8284 3 13.5 3.67157 13.5 4.5ZM17.5 6C18.3284 6 19 5.32843 19 4.5C19 3.67157 18.3284 3 17.5 3C16.6716 3 16 3.67157 16 4.5C16 5.32843 16.6716 6 17.5 6ZM8 9.5C8 10.3284 7.32843 11 6.5 11C5.67157 11 5 10.3284 5 9.5C5 8.67157 5.67157 8 6.5 8C7.32843 8 8 8.67157 8 9.5ZM12 11C12.8284 11 13.5 10.3284 13.5 9.5C13.5 8.67157 12.8284 8 12 8C11.1716 8 10.5 8.67157 10.5 9.5C10.5 10.3284 11.1716 11 12 11ZM19 9.5C19 10.3284 18.3284 11 17.5 11C16.6716 11 16 10.3284 16 9.5C16 8.67157 16.6716 8 17.5 8C18.3284 8 19 8.67157 19 9.5ZM4.5 16C5.32843 16 6 15.3284 6 14.5C6 13.6716 5.32843 13 4.5 13C3.67157 13 3 13.6716 3 14.5C3 15.3284 3.67157 16 4.5 16ZM11 14.5C11 15.3284 10.3284 16 9.5 16C8.67157 16 8 15.3284 8 14.5C8 13.6716 8.67157 13 9.5 13C10.3284 13 11 13.6716 11 14.5ZM14.5 16C15.3284 16 16 15.3284 16 14.5C16 13.6716 15.3284 13 14.5 13C13.6716 13 13 13.6716 13 14.5C13 15.3284 13.6716 16 14.5 16ZM13.5 19.5C13.5 20.3284 12.8284 21 12 21C11.1716 21 10.5 20.3284 10.5 19.5C10.5 18.6716 11.1716 18 12 18C12.8284 18 13.5 18.6716 13.5 19.5ZM19.5 16C20.3284 16 21 15.3284 21 14.5C21 13.6716 20.3284 13 19.5 13C18.6716 13 18 13.6716 18 14.5C18 15.3284 18.6716 16 19.5 16Z" fill="#222222"/>
</svg>
