<svg width="24" height="24" viewBox="0 0 24 24" fill="none" xmlns="http://www.w3.org/2000/svg">
<path fill-rule="evenodd" clip-rule="evenodd" d="M6.5 9.5V6.5H9.5V9.5H6.5ZM4.5 5.5C4.5 4.94772 4.94772 4.5 5.5 4.5H10.5C11.0523 4.5 11.5 4.94772 11.5 5.5V10.5C11.5 11.0523 11.0523 11.5 10.5 11.5H5.5C4.94772 11.5 4.5 11.0523 4.5 10.5V5.5ZM6.5 17.5V14.5H9.5V17.5H6.5ZM4.5 13.5C4.5 12.9477 4.94772 12.5 5.5 12.5H10.5C11.0523 12.5 11.5 12.9477 11.5 13.5V18.5C11.5 19.0523 11.0523 19.5 10.5 19.5H5.5C4.94772 19.5 4.5 19.0523 4.5 18.5V13.5ZM14.5 6.5V9.5H17.5V6.5H14.5ZM13.5 4.5C12.9477 4.5 12.5 4.94772 12.5 5.5V10.5C12.5 11.0523 12.9477 11.5 13.5 11.5H18.5C19.0523 11.5 19.5 11.0523 19.5 10.5V5.5C19.5 4.94772 19.0523 4.5 18.5 4.5H13.5ZM14.5 17.5V14.5H17.5V17.5H14.5ZM12.5 13.5C12.5 12.9477 12.9477 12.5 13.5 12.5H18.5C19.0523 12.5 19.5 12.9477 19.5 13.5V18.5C19.5 19.0523 19.0523 19.5 18.5 19.5H13.5C12.9477 19.5 12.5 19.0523 12.5 18.5V13.5Z" fill="#222222"/>
</svg>
