<svg width="24" height="24" viewBox="0 0 24 24" fill="none" xmlns="http://www.w3.org/2000/svg">
<path fill-rule="evenodd" clip-rule="evenodd" d="M6.07152 3.62888C6.27664 3.11609 6.85861 2.86668 7.37139 3.07179C7.69477 3.20114 8.22822 3.5313 8.50761 4.16895C8.81744 4.87609 8.70352 5.69476 8.18133 6.53027C8.07996 6.69246 8.04955 6.79025 8.04045 6.83294C8.05965 6.853 8.0962 6.88586 8.16136 6.93054C8.20642 6.96143 8.2569 6.99253 8.31678 7.02764C8.33075 7.03583 8.35226 7.04826 8.3767 7.06237C8.42247 7.08881 8.47851 7.12118 8.5145 7.14277C8.98808 7.42692 9.14164 8.04118 8.85749 8.51476C8.57334 8.98834 7.95908 9.14191 7.4855 8.85776C7.47441 8.8511 7.45717 8.84156 7.43478 8.82916C7.24844 8.72597 6.70528 8.42518 6.37631 7.9473C6.16112 7.63472 6.01842 7.23867 6.03842 6.77241C6.05764 6.3242 6.22367 5.88894 6.48534 5.47027C6.62882 5.2407 6.66581 5.09739 6.67477 5.03156C6.68259 4.97416 6.67172 4.96243 6.67573 4.97158C6.67573 4.97158 6.67147 4.96289 6.65442 4.94827C6.63792 4.93414 6.62424 4.92703 6.62424 4.92703C6.62424 4.92703 6.62562 4.92755 6.62861 4.92874C6.11583 4.72363 5.86641 4.14166 6.07152 3.62888Z" fill="#222222"/>
<path fill-rule="evenodd" clip-rule="evenodd" d="M10.0715 3.62888C10.2766 3.11609 10.8586 2.86668 11.3714 3.07179C11.6948 3.20114 12.2282 3.5313 12.5076 4.16895C12.8174 4.87609 12.7035 5.69476 12.1813 6.53027C12.08 6.69246 12.0495 6.79025 12.0404 6.83294C12.0597 6.853 12.0962 6.88586 12.1614 6.93054C12.2064 6.96143 12.2569 6.99253 12.3168 7.02764C12.3308 7.03583 12.3523 7.04826 12.3767 7.06237C12.4225 7.08881 12.4785 7.12118 12.5145 7.14277C12.9881 7.42692 13.1416 8.04118 12.8575 8.51476C12.5733 8.98834 11.9591 9.14191 11.4855 8.85776C11.4744 8.8511 11.4572 8.84156 11.4348 8.82916C11.2484 8.72597 10.7053 8.42518 10.3763 7.9473C10.1611 7.63472 10.0184 7.23867 10.0384 6.77241C10.0576 6.3242 10.2237 5.88894 10.4853 5.47027C10.6288 5.2407 10.6658 5.09739 10.6748 5.03156C10.6826 4.97416 10.6717 4.96243 10.6757 4.97158C10.6757 4.97158 10.6715 4.96289 10.6544 4.94827C10.6379 4.93414 10.6242 4.92703 10.6242 4.92703C10.6242 4.92703 10.6256 4.92755 10.6286 4.92874C10.1158 4.72363 9.86641 4.14166 10.0715 3.62888Z" fill="#222222"/>
<path fill-rule="evenodd" clip-rule="evenodd" d="M14.0715 3.62888C14.2766 3.11609 14.8586 2.86668 15.3714 3.07179C15.6948 3.20114 16.2282 3.5313 16.5076 4.16895C16.8174 4.87609 16.7035 5.69476 16.1813 6.53027C16.08 6.69246 16.0495 6.79025 16.0404 6.83294C16.0597 6.853 16.0962 6.88586 16.1614 6.93054C16.2064 6.96143 16.2569 6.99253 16.3168 7.02764C16.3308 7.03583 16.3523 7.04826 16.3767 7.06237C16.4225 7.08881 16.4785 7.12118 16.5145 7.14277C16.9881 7.42692 17.1416 8.04118 16.8575 8.51476C16.5733 8.98834 15.9591 9.14191 15.4855 8.85776C15.4744 8.8511 15.4572 8.84156 15.4348 8.82916C15.2484 8.72597 14.7053 8.42518 14.3763 7.9473C14.1611 7.63472 14.0184 7.23867 14.0384 6.77241C14.0576 6.3242 14.2237 5.88894 14.4853 5.47027C14.6288 5.2407 14.6658 5.09739 14.6748 5.03156C14.6826 4.97416 14.6717 4.96243 14.6757 4.97158C14.6757 4.97158 14.6715 4.96289 14.6544 4.94827C14.6379 4.93414 14.6242 4.92703 14.6242 4.92703C14.6242 4.92703 14.6256 4.92755 14.6286 4.92874C14.1158 4.72363 13.8664 4.14166 14.0715 3.62888Z" fill="#222222"/>
<path fill-rule="evenodd" clip-rule="evenodd" d="M18.0112 16.8366C17.4338 17.7156 16.6262 18.4568 15.649 19.0003H17.8238C18.3761 19.0003 18.8238 19.448 18.8238 20.0003C18.8238 20.5526 18.3761 21.0003 17.8238 21.0003H5C4.44772 21.0003 4 20.5526 4 20.0003C4 19.448 4.44772 19.0003 5 19.0003H7.5308C5.40789 17.8613 4 15.8541 4 13.5297V11.0003C4 10.448 4.44772 10.0003 5 10.0003H18C18.5523 10.0003 19 10.448 19 11.0003C20.6569 11.0003 22 12.3434 22 14.0003C22 15.6571 20.6569 17.0003 19 17.0003C18.7375 17.0003 18.3843 16.9579 18.0112 16.8366ZM11.6271 18.0003C14.9717 18.0003 17 15.8223 17 13.5297V12.0003H6V13.5297C6 15.741 8.1884 18.0003 11.6271 18.0003ZM18.8238 14.9838C18.8918 14.9954 18.9525 15.0003 19 15.0003C19.5523 15.0003 20 14.5526 20 14.0003C20 13.448 19.5523 13.0003 19 13.0003L19 13.5297C19 14.031 18.9394 14.5175 18.8238 14.9838Z" fill="#222222"/>
</svg>
