<svg width="24" height="24" viewBox="0 0 24 24" fill="none" xmlns="http://www.w3.org/2000/svg">
<path fill-rule="evenodd" clip-rule="evenodd" d="M4.19667 12C5.01292 7.93154 8.2663 5 12 5C15.7337 5 18.9871 7.93154 19.8033 12H19C19 10.8954 18.1046 10 17 10H16C14.8954 10 14 10.8954 14 12V19C14 20.1046 14.8954 21 16 21H17C18.1046 21 19 20.1046 19 19H20C21.1046 19 22 18.1046 22 17V14C22 8.02658 17.6193 3 12 3C6.38065 3 2 8.02658 2 14V17C2 18.1046 2.89543 19 4 19H5C5 20.1046 5.89543 21 7 21H8C9.10457 21 10 20.1046 10 19V12C10 10.8954 9.10457 10 8 10H7C5.89543 10 5 10.8954 5 12H4.19667ZM7 14V17V19H8V12H7V14ZM5 14H4V17H5V14ZM17 14V17V19H16V12H17V14ZM20 17H19V14H20V17Z" fill="#222222"/>
</svg>
