<svg width="24" height="24" viewBox="0 0 24 24" fill="none" xmlns="http://www.w3.org/2000/svg">
<path fill-rule="evenodd" clip-rule="evenodd" d="M13 11V6C13 5.44772 12.5523 5 12 5C11.4477 5 11 5.44772 11 6V11C11 11.5523 11.4477 12 12 12C12.5523 12 13 11.5523 13 11ZM12 3C10.3431 3 9 4.34315 9 6V11C9 12.6569 10.3431 14 12 14C13.6569 14 15 12.6569 15 11V6C15 4.34315 13.6569 3 12 3ZM7 11C7 13.7614 9.23858 16 12 16C14.7614 16 17 13.7614 17 11H19C19 14.5265 16.3923 17.4439 13 17.9291V21H11V17.9291C7.60771 17.4439 5 14.5265 5 11H7Z" fill="#222222"/>
</svg>
