<svg width="24" height="24" viewBox="0 0 24 24" fill="none" xmlns="http://www.w3.org/2000/svg">
<path fill-rule="evenodd" clip-rule="evenodd" d="M6 20V4H18V20H6ZM4 3C4 2.44772 4.44772 2 5 2H19C19.5523 2 20 2.44772 20 3V21C20 21.5523 19.5523 22 19 22H5C4.44772 22 4 21.5523 4 21V3ZM9.64018 5.23178C9.3421 4.98338 8.92723 4.92983 8.57584 5.09441C8.22446 5.25899 8 5.61198 8 6V11H10V8.13504L11.3598 9.26822C11.7307 9.57726 12.2693 9.57726 12.6402 9.26822L14 8.13504V11H16V6C16 5.61198 15.7755 5.25899 15.4242 5.09441C15.0728 4.92983 14.6579 4.98338 14.3598 5.23178L12 7.19829L9.64018 5.23178ZM17 15H10V13H17V15ZM7 13V15H9V13H7ZM7 18V16H9V18H7ZM10 18H17V16H10V18Z" fill="#222222"/>
</svg>
