<svg width="24" height="24" viewBox="0 0 24 24" fill="none" xmlns="http://www.w3.org/2000/svg">
<path fill-rule="evenodd" clip-rule="evenodd" d="M2 6C2 5.44772 2.44772 5 3 5H10H21C21.5523 5 22 5.44772 22 6V8V9V10C20.8954 10 20 10.8954 20 12C20 13.1046 20.8954 14 22 14V15V16V18C22 18.5523 21.5523 19 21 19H10H3C2.44772 19 2 18.5523 2 18V16V15V14C3.10457 14 4 13.1046 4 12C4 10.8954 3.10457 10 2 10V9V8V6ZM11 17V16.5C11 15.9477 10.5523 15.5 10 15.5C9.44772 15.5 9 15.9477 9 16.5V17H4V15.4649C5.1956 14.7733 6 13.4806 6 12C6 10.5194 5.1956 9.22675 4 8.53513V7H9V7.5C9 8.05228 9.44772 8.5 10 8.5C10.5523 8.5 11 8.05228 11 7.5V7H20V8.53513C18.8044 9.22675 18 10.5194 18 12C18 13.4806 18.8044 14.7733 20 15.4649V17H11ZM11 10.5C11 9.94772 10.5523 9.5 10 9.5C9.44772 9.5 9 9.94772 9 10.5V13.5C9 14.0523 9.44772 14.5 10 14.5C10.5523 14.5 11 14.0523 11 13.5V10.5Z" fill="#222222"/>
</svg>
