<svg width="16" height="16" viewBox="0 0 16 16" fill="none" xmlns="http://www.w3.org/2000/svg">
<g clip-path="url(#clip0_1563_1886)">
<path d="M14.5781 2.6151L8.57812 0.114857C8.39536 0.0390305 8.19943 0 8.00156 0C7.80369 0 7.60777 0.0390305 7.425 0.114857L1.425 2.6151C0.865625 2.84637 0.5 3.3933 0.5 3.99961C0.5 10.2033 4.07812 14.4913 7.42187 15.8851C7.79062 16.0383 8.20625 16.0383 8.575 15.8851C11.2531 14.7694 15.5 10.9159 15.5 3.99961C15.5 3.3933 15.1344 2.84637 14.5781 2.6151ZM8.00156 14.5006V1.67346L14.0156 4.19531C13.5156 9.1958 12 12.0004 8.00156 14.5006Z" fill="#222222"/>
</g>
<defs>
<clipPath id="clip0_1563_1886">
<rect width="16" height="16" fill="white"/>
</clipPath>
</defs>
</svg>
