<svg width="24" height="24" viewBox="0 0 24 24" fill="none" xmlns="http://www.w3.org/2000/svg">
<path d="M11.2693 3.25C12.5493 3.25 12.7693 4.47 12.7693 4.75V6.75H17.7693V11.75H19.7693C20.0493 11.75 21.2693 11.97 21.2693 13.25C21.2693 14.53 20.0493 14.75 19.7693 14.75H17.7693V19.75H15.6493C14.9693 18 13.2593 16.75 11.2693 16.75C9.27935 16.75 7.56935 18 6.88935 19.75H4.76935V17.63C6.51935 16.95 7.76935 15.24 7.76935 13.25C7.76935 11.26 6.52935 9.55 4.77935 8.87L4.76935 6.75H9.76935V4.75C9.76935 4.47 9.98935 3.25 11.2693 3.25ZM11.2693 1.25C8.88935 1.25 7.76935 3.37 7.76935 4.75H4.76935C3.66935 4.75 2.77935 5.65 2.77935 6.75V10.55H3.06935C4.55935 10.55 5.76935 11.76 5.76935 13.25C5.76935 14.74 4.55935 15.95 3.06935 15.95H2.76935V19.75C2.76935 20.85 3.66935 21.75 4.76935 21.75H8.56935V21.45C8.56935 19.96 9.77935 18.75 11.2693 18.75C12.7593 18.75 13.9693 19.96 13.9693 21.45V21.75H17.7693C18.8693 21.75 19.7693 20.85 19.7693 19.75V16.75C21.1493 16.75 23.2693 15.63 23.2693 13.25C23.2693 10.87 21.1493 9.75 19.7693 9.75V6.75C19.7693 5.65 18.8693 4.75 17.7693 4.75H14.7693C14.7693 3.37 13.6493 1.25 11.2693 1.25Z" fill="#222222"/>
</svg>
