<svg width="24" height="24" viewBox="0 0 24 24" fill="none" xmlns="http://www.w3.org/2000/svg">
<path fill-rule="evenodd" clip-rule="evenodd" d="M4 5C2.89543 5 2 5.89543 2 7V8.5V10V10.5C3.10457 10.5 4 11.3954 4 12.5C4 13.6046 3.10457 14.5 2 14.5V16V16.5V18C2 19.1046 2.89543 20 4 20H20C21.1046 20 22 19.1046 22 18V16.5V16V14.5C20.8954 14.5 20 13.6046 20 12.5C20 11.3954 20.8954 10.5 22 10.5V10V8.5V7C22 5.89543 21.1046 5 20 5H4ZM18 12.5C18 14.006 18.8323 15.3176 20.062 16H20V18H4V16H3.938C5.16771 15.3176 6 14.006 6 12.5C6 11.0194 5.1956 9.72675 4 9.03513V7H20V9.03513C18.8044 9.72675 18 11.0194 18 12.5ZM13.1285 10.9467L12 8.5L10.8715 10.9467L8.19577 11.2639L10.174 13.0933L9.64886 15.7361L12 14.42L14.3511 15.7361L13.826 13.0933L15.8042 11.2639L13.1285 10.9467Z" fill="#222222"/>
</svg>
