<svg width="16" height="16" viewBox="0 0 16 16" fill="none" xmlns="http://www.w3.org/2000/svg">
<path d="M10.3333 8C10.3333 7.26667 9.73333 6.66667 9 6.66667C8.26667 6.66667 7.66667 7.26667 7.66667 8C7.66667 8.73333 8.26667 9.33333 9 9.33333C9.73333 9.33333 10.3333 8.73333 10.3333 8ZM9 2C5.68667 2 3 4.68667 3 8H1L3.66667 10.6667L6.33333 8H4.33333C4.33333 5.42 6.42 3.33333 9 3.33333C11.58 3.33333 13.6667 5.42 13.6667 8C13.6667 10.58 11.58 12.6667 9 12.6667C7.99333 12.6667 7.06 12.34 6.29333 11.8L5.34667 12.76C6.36 13.5333 7.62667 14 9 14C12.3133 14 15 11.3133 15 8C15 4.68667 12.3133 2 9 2Z" fill="#222222"/>
</svg>
