<svg width="24" height="24" viewBox="0 0 24 24" fill="none" xmlns="http://www.w3.org/2000/svg">
<path fill-rule="evenodd" clip-rule="evenodd" d="M10.6056 4.32782C10.9224 4.01898 11.4547 4.24342 11.4547 4.68582V8.49259C14.3528 9.06491 16.5198 10.3899 18.0878 12.1371C19.7934 14.0376 20.7428 16.3832 21.212 18.6707V18.8481C21.212 19.3314 20.5456 19.5709 20.1934 19.2398C18.0666 17.2398 14.5347 15.6413 11.4547 15.4775V19.1908C11.4547 19.6332 10.9224 19.8577 10.6056 19.5488L3.16717 12.2963C2.9659 12.1001 2.9659 11.7766 3.16717 11.5803L10.6056 4.32782ZM5.66491 11.9383L9.45467 15.6333V13.4516H10.4547C13.4124 13.4516 15.8742 14.0422 17.9036 15.3165C17.5388 14.6584 17.1066 14.0382 16.5993 13.4729C15.2079 11.9225 13.2038 10.7309 10.3167 10.3288L9.45467 10.2087V8.2433L5.66491 11.9383Z" fill="#222222"/>
</svg>
