<svg width="24" height="24" viewBox="0 0 24 24" fill="none" xmlns="http://www.w3.org/2000/svg">
<path d="M7.84094 21C6.84094 21 5.98867 20.8978 5.28412 20.6932C4.57958 20.4887 4.10609 20.2728 3.86367 20.0455C3.60609 19.8182 3.39776 19.3599 3.23867 18.6705C3.07958 17.9811 3.00003 17.1212 3.00003 16.0909C3.00003 14.3031 3.31821 12.5758 3.95458 10.9091C4.59094 9.24246 5.50003 7.79549 6.68185 6.56821C7.77276 5.35609 9.17049 4.45836 10.875 3.87503C12.5796 3.2917 14.3864 3.00003 16.2955 3.00003C17.2803 3.00003 18.1326 3.09094 18.8523 3.27276C19.572 3.45458 20.0379 3.64397 20.25 3.84094C20.4773 4.03791 20.6591 4.46215 20.7955 5.11367C20.9318 5.76518 21 6.65912 21 7.79549C21 9.65912 20.6932 11.4243 20.0796 13.0909C19.4659 14.7576 18.5834 16.1667 17.4318 17.3182C16.2803 18.5455 14.8523 19.4659 13.1478 20.0796C11.4432 20.6932 9.67427 21 7.84094 21ZM4.59094 16.1818C5.07579 14.9697 5.71973 13.7765 6.52276 12.6023C7.32579 11.4281 8.26518 10.2955 9.34094 9.20458C10.2349 8.29549 11.2538 7.47352 12.3978 6.73867C13.5417 6.00382 14.8334 5.28791 16.2728 4.59094C14.7122 4.56064 13.1705 4.84473 11.6478 5.44321C10.125 6.0417 8.87882 6.82579 7.90912 7.79549C6.90912 8.81064 6.10609 10.0606 5.50003 11.5455C4.89397 13.0303 4.59094 14.5758 4.59094 16.1818ZM7.84094 19.4091C9.59852 19.2879 11.2084 18.9318 12.6705 18.3409C14.1326 17.75 15.3182 17 16.2273 16.0909C17.2273 15.0606 18.0076 13.8031 18.5682 12.3182C19.1288 10.8334 19.4167 9.29549 19.4318 7.70458C18.7955 9.17427 18.0947 10.4622 17.3296 11.5682C16.5644 12.6743 15.7197 13.7046 14.7955 14.6591C13.947 15.5379 12.9622 16.3485 11.8409 17.0909C10.7197 17.8334 9.38639 18.6061 7.84094 19.4091ZM5.7273 18.2728C7.10609 17.8334 8.48867 17.1894 9.87503 16.3409C11.2614 15.4925 12.5 14.5379 13.5909 13.4773C14.6364 12.3864 15.5872 11.1515 16.4432 9.77276C17.2993 8.39397 17.947 7.00761 18.3864 5.61367C16.947 6.09852 15.5379 6.76518 14.1591 7.61367C12.7803 8.46215 11.5682 9.39397 10.5228 10.4091C9.52276 11.4394 8.58336 12.6515 7.70458 14.0455C6.82579 15.4394 6.1667 16.8485 5.7273 18.2728Z" fill="#222222"/>
</svg>
