<svg width="24" height="24" viewBox="0 0 24 24" fill="none" xmlns="http://www.w3.org/2000/svg">
<path fill-rule="evenodd" clip-rule="evenodd" d="M17 4C17 3.63121 16.797 3.29235 16.4719 3.11833C16.1467 2.94431 15.7522 2.96338 15.4453 3.16795L15.0269 3.44686C11.2244 5.98183 8.14933 9.46526 6.10557 13.5528C5.85858 14.0468 6.05881 14.6475 6.55279 14.8945C6.70302 14.9696 6.86311 15.0033 7.02013 15H16C16.5523 15 17 14.5523 17 14V4ZM15 13H8.68052C10.2995 10.2466 12.447 7.83895 15 5.91656V13ZM4 16C3.59554 16 3.2309 16.2437 3.07612 16.6174C2.92134 16.991 3.00689 17.4212 3.29289 17.7072L6.29289 20.7072C6.48043 20.8947 6.73478 21.0001 7 21.0001H17C17.2652 21.0001 17.5196 20.8947 17.7071 20.7072L20.7071 17.7072C20.9931 17.4212 21.0787 16.991 20.9239 16.6174C20.7691 16.2437 20.4045 16 20 16H4ZM7.41421 19L6.41421 18H17.5858L16.5858 19H7.41421Z" fill="#222222"/>
</svg>
