<svg width="24" height="24" viewBox="0 0 24 24" fill="none" xmlns="http://www.w3.org/2000/svg">
<path fill-rule="evenodd" clip-rule="evenodd" d="M16.7884 18.1549C15.3369 19.3099 13.4991 20 11.5 20C6.80558 20 3 16.1944 3 11.5C3 6.80558 6.80558 3 11.5 3C16.1944 3 20 6.80558 20 11.5C20 13.4738 19.3272 15.2905 18.1985 16.7333L22.669 20.7567C23.0795 21.1262 23.1128 21.7585 22.7433 22.169C22.3738 22.5795 21.7415 22.6128 21.331 22.2433L16.7884 18.1549ZM18 11.5C18 15.0899 15.0899 18 11.5 18C7.91015 18 5 15.0899 5 11.5C5 7.91015 7.91015 5 11.5 5C15.0899 5 18 7.91015 18 11.5Z" fill="#222222"/>
<path fill-rule="evenodd" clip-rule="evenodd" d="M11.5 7C10.1188 7 9 8.11875 9 9.5C9 10.8812 10.1188 12 11.5 12C12.8813 12 14 10.8812 14 9.5C14 8.11875 12.8813 7 11.5 7Z" fill="#222222"/>
<path fill-rule="evenodd" clip-rule="evenodd" d="M8 14.5C8 13.17 10.3319 12.5 11.5 12.5C12.6681 12.5 15 13.17 15 14.5V15.5H8V14.5Z" fill="#222222"/>
</svg>
