<svg width="24" height="24" viewBox="0 0 24 24" fill="none" xmlns="http://www.w3.org/2000/svg">
<path fill-rule="evenodd" clip-rule="evenodd" d="M16.04 16.9096C16.56 16.4378 17.24 16.1365 18 16.1365C19.61 16.1365 20.92 17.4518 20.92 19.0683C20.92 20.6847 19.61 22 18 22C16.39 22 15.08 20.6847 15.08 19.0683C15.08 18.8474 15.11 18.6265 15.16 18.4157L8.04 14.239C7.5 14.741 6.79 15.0522 6 15.0522C4.34 15.0522 3 13.7068 3 12.0402C3 10.3735 4.34 9.02811 6 9.02811C6.79 9.02811 7.5 9.33936 8.04 9.84137L15.09 5.71486C15.04 5.48394 15 5.25301 15 5.01205C15 3.34538 16.34 2 18 2C19.66 2 21 3.34538 21 5.01205C21 6.67871 19.66 8.0241 18 8.0241C17.21 8.0241 16.5 7.71285 15.96 7.21084L8.91 11.3373C8.96 11.5683 9 11.7992 9 12.0402C9 12.2811 8.96 12.512 8.91 12.743L16.04 16.9096ZM19 5.01205C19 4.45984 18.55 4.00803 18 4.00803C17.45 4.00803 17 4.45984 17 5.01205C17 5.56426 17.45 6.01606 18 6.01606C18.55 6.01606 19 5.56426 19 5.01205ZM6 13.0442C5.45 13.0442 5 12.5924 5 12.0402C5 11.488 5.45 11.0361 6 11.0361C6.55 11.0361 7 11.488 7 12.0402C7 12.5924 6.55 13.0442 6 13.0442ZM17 19.0884C17 19.6406 17.45 20.0924 18 20.0924C18.55 20.0924 19 19.6406 19 19.0884C19 18.5361 18.55 18.0843 18 18.0843C17.45 18.0843 17 18.5361 17 19.0884Z" fill="#222222"/>
</svg>
