<svg width="24" height="24" viewBox="0 0 24 24" fill="none" xmlns="http://www.w3.org/2000/svg">
<path fill-rule="evenodd" clip-rule="evenodd" d="M12 2C12.5021 2 12.9091 2.40701 12.9091 2.90909V3.96976C16.6456 4.38808 19.6119 7.35437 20.0303 11.0909H21.0909C21.593 11.0909 22 11.4979 22 12C22 12.5021 21.593 12.9091 21.0909 12.9091H20.0303C19.6119 16.6456 16.6456 19.6119 12.9091 20.0302V21.0909C12.9091 21.593 12.5021 22 12 22C11.4979 22 11.0909 21.593 11.0909 21.0909V20.0302C7.3544 19.6119 4.38811 16.6456 3.96979 12.9091H2.90911C2.40703 12.9091 2.00002 12.5021 2.00002 12C2.00002 11.4979 2.40703 11.0909 2.90911 11.0909H3.96979C4.38811 7.35437 7.3544 4.38808 11.0909 3.96976V2.90909C11.0909 2.40701 11.4979 2 12 2ZM5.5988 12.9091C5.9989 15.7519 8.24808 18.0011 11.0909 18.4012V16.9689C9.0304 16.5944 7.40566 14.9696 7.03112 12.9091H5.5988ZM7.03112 11.0909H5.5988C5.9989 8.24804 8.24808 5.99887 11.0909 5.59877V7.03109C9.0304 7.40563 7.40566 9.03037 7.03112 11.0909ZM8.68035 12.8833C9.07832 12.7865 9.37376 12.4278 9.37376 12C9.37376 11.5722 9.07832 11.2135 8.68035 11.1166C8.99534 9.92983 9.92986 8.99531 11.1167 8.68033C11.2135 9.07829 11.5723 9.37373 12 9.37373C12.4278 9.37373 12.7865 9.07829 12.8834 8.68033C14.0702 8.99531 15.0047 9.92983 15.3197 11.1166C14.9217 11.2135 14.6263 11.5722 14.6263 12C14.6263 12.4278 14.9217 12.7865 15.3197 12.8833C15.0047 14.0702 14.0702 15.0047 12.8834 15.3197C12.7865 14.9217 12.4278 14.6263 12 14.6263C11.5723 14.6263 11.2135 14.9217 11.1167 15.3197C9.92986 15.0047 8.99534 14.0702 8.68035 12.8833ZM18.4012 12.9091C18.0011 15.7519 15.752 18.0011 12.9091 18.4012V16.9689C14.9696 16.5944 16.5944 14.9696 16.9689 12.9091H18.4012ZM18.4012 11.0909C18.0011 8.24804 15.752 5.99887 12.9091 5.59877V7.03109C14.9696 7.40563 16.5944 9.03037 16.9689 11.0909L18.4012 11.0909ZM12 13.5151C12.8368 13.5151 13.5152 12.8368 13.5152 12C13.5152 11.1632 12.8368 10.4848 12 10.4848C11.1632 10.4848 10.4849 11.1632 10.4849 12C10.4849 12.8368 11.1632 13.5151 12 13.5151Z" fill="#222222"/>
</svg>
