<svg width="16" height="16" viewBox="0 0 16 16" fill="none" xmlns="http://www.w3.org/2000/svg">
<g clip-path="url(#clip0_8415_142)">
<path d="M12.2197 0.969731C12.5126 0.676838 12.9874 0.676838 13.2803 0.969731L15.2803 2.96974C15.5732 3.26263 15.5732 3.7374 15.2803 4.03028L13.2803 6.03029C12.9874 6.32314 12.5126 6.32314 12.2197 6.03029C11.9269 5.7374 11.9269 5.26263 12.2197 4.96974L12.9395 4.25001H11.3047C10.8923 4.25009 10.5064 4.45361 10.2734 4.79396L8.07911 8.00002L10.2734 11.2061C10.5064 11.5464 10.8923 11.7499 11.3047 11.75H12.9395L12.2197 11.0303C11.9269 10.7374 11.9269 10.2626 12.2197 9.96975C12.5126 9.67686 12.9874 9.67686 13.2803 9.96975L15.2803 11.9698C15.5732 12.2626 15.5732 12.7374 15.2803 13.0303L13.2803 15.0303C12.9874 15.3232 12.5126 15.3232 12.2197 15.0303C11.9451 14.7557 11.9277 14.321 12.168 14.0264L12.2197 13.9698L12.9395 13.25H11.3047C10.3971 13.25 9.54771 12.8018 9.03516 12.0528L7.1709 9.32815L4.96485 12.5528C4.4523 13.3018 3.60296 13.75 2.69531 13.75H1.25C0.835806 13.75 0.500031 13.4142 0.5 13C0.5 12.5858 0.835787 12.25 1.25 12.25H2.69531C3.10774 12.25 3.4936 12.0464 3.72657 11.7061L6.26172 8.00002L3.72657 4.29396C3.4936 3.95361 3.10775 3.75009 2.69531 3.75001H1.25C0.835806 3.75001 0.50003 3.4142 0.5 3.00001C0.5 2.58579 0.835787 2.25001 1.25 2.25001H2.69531C3.60297 2.25008 4.4523 2.69817 4.96485 3.44728L7.1709 6.67091L9.03516 3.94728C9.54771 3.19817 10.397 2.75008 11.3047 2.75001H12.9395L12.2197 2.03028L12.168 1.97364C11.9277 1.67907 11.9452 1.24434 12.2197 0.969731Z" fill="#222222"/>
</g>
<defs>
<clipPath id="clip0_8415_142">
<rect width="16" height="16" fill="white"/>
</clipPath>
</defs>
</svg>
