<svg width="24" height="24" viewBox="0 0 24 24" fill="none" xmlns="http://www.w3.org/2000/svg">
<path fill-rule="evenodd" clip-rule="evenodd" d="M3 5C3 4.44772 3.44772 4 4 4H10C10.2814 4 10.5499 4.1186 10.7393 4.32668C10.9288 4.53471 11.0218 4.81293 10.9957 5.09307V5.09308L10.9957 5.09309L10.9956 5.09327L10.9956 5.09336L10.9954 5.09558L10.9945 5.10634L10.9905 5.15208C10.987 5.19299 10.982 5.25416 10.9761 5.33269C10.9643 5.48987 10.949 5.71593 10.9353 5.98773C10.9078 6.53409 10.8876 7.25286 10.9135 7.96353C10.9401 8.69139 11.0132 9.33936 11.1434 9.77793C11.1724 9.87568 11.2 9.94806 11.2231 10H11.2257H11.2365H11.2473H11.2581H11.2688H11.2795H11.2901H11.3007H11.3112H11.3218H11.3322H11.3427H11.3531H11.3634H11.3737H11.384H11.3943H11.4045H11.4146H11.4247H11.4348H11.4449H11.4549H11.4649H11.4748H11.4847H11.4946H11.5044H11.5142H11.5239H11.5337H11.5433H11.553H11.5626H11.5722H11.5817H11.5912H11.6007H11.6101H11.6195H11.6289H11.6382H11.6475H11.6568H11.666H11.6752H11.6844H11.6935H11.7026H11.7116H11.7207H11.7297H11.7386H11.7476H11.7565H11.7653H11.7742H11.783H11.7917H11.8005H11.8092H11.8179H11.8265H11.8351H11.8437H11.8523H11.8608H11.8693H11.8778H11.8862H11.8946H11.903H11.9114H11.9197H11.928H11.9363H11.9445H11.9527H11.9609H11.969H11.9772H11.9853H11.9933H12.0014H12.0094H12.0174H12.0253H12.0333H12.0412H12.0491H12.0569H12.0648H12.0726H12.0804H12.0881H12.0958H12.1036H12.1112H12.1189H12.1265H12.1341H12.1417H12.1493H12.1568H12.1643H12.1718H12.1793H12.1867H12.1942H12.2016H12.2089H12.2163H12.2236H12.2309H12.2382H12.2455H12.2527H12.26H12.2672H12.2744H12.2815H12.2887H12.2958H12.3029H12.31H12.317H12.3241H12.3311H12.3381H12.3451H12.352H12.359H12.3659H12.3728H12.3797H12.3866H12.3934H12.4003H12.4071H12.4139H12.4207H12.4274H12.4342H12.4409H12.4476H12.4543H12.461H12.4677H12.4743H12.481H12.4876H12.4942H12.5008H12.5074H12.5139H12.5205H12.527H12.5335H12.54H12.5465H12.553H12.5595H12.5659H12.5723H12.5788H12.5852H12.5916H12.5979H12.6043H12.6107H12.617H12.6234H12.6297H12.636H12.6423H12.6486H12.6549H12.6611H12.6674H12.6736H12.6799H12.6861H12.6923H12.6985H12.7047H12.7109H12.7171H12.7232H12.7294H12.7355H12.7417H12.7478H12.7539H12.76H12.7662H12.7723H12.7783H12.7844H12.7905H12.7966H12.8026H12.8087H12.8147H12.8208H12.8268H12.8329H12.8389H12.8449H12.8509H12.8569H12.8629H12.8689H12.8749H12.8809H12.8869H12.8929H12.8989H12.9048H12.9108H12.9168H12.9227H12.9287H12.9346H12.9406H12.9465H12.9525H12.9584H12.9644H12.9703H12.9762H12.9822H12.9881H12.994H13H13.0059H13.0118H13.0178H13.0237H13.0296H13.0356H13.0415H13.0474H13.0533H13.0593H13.0652H13.0711H13.0771H13.083H13.0889H13.0949H13.1008H13.1067H13.1127H13.1186H13.1246H13.1305H13.1365H13.1424H13.1484H13.1543H13.1603H13.1663H13.1722H13.1782H13.1842H13.1902H13.1962H13.2022H13.2082H13.2142H13.2202H13.2262H13.2322H13.2382H13.2442H13.2503H13.2563H13.2624H13.2684H13.2745H13.2806H13.2866H13.2927H13.2988H13.3049H13.311H13.3171H13.3232H13.3294H13.3355H13.3417H13.3478H13.354H13.3601H13.3663H13.3725H13.3787H13.3849H13.3912H13.3974H13.4036H13.4099H13.4161H13.4224H13.4287H13.435H13.4413H13.4476H13.454H13.4603H13.4667H13.473H13.4794H13.4858H13.4922H13.4986H13.5051H13.5115H13.518H13.5244H13.5309H13.5374H13.5439H13.5504H13.557H13.5635H13.5701H13.5767H13.5833H13.5899H13.5965H13.6032H13.6099H13.6165H13.6232H13.6299H13.6367H13.6434H13.6502H13.657H13.6638H13.6706H13.6774H13.6843H13.6911H13.698H13.7049H13.7118H13.7188H13.7257H13.7327H13.7397H13.7467H13.7538H13.7608H13.7679H13.775H13.7821H13.7892H13.7964H13.8036H13.8108H13.818H13.8252H13.8325H13.8398H13.8471H13.8544H13.8618H13.8691H13.8765H13.8839H13.8914H13.8988H13.9063H13.9138H13.9214H13.9289H13.9365H13.9441H13.9517H13.9594H13.967H13.9747H13.9825H13.9902H13.998H14.0058H14.0136H14.0215H14.0293H14.0373H14.0452H14.0531H14.0611H14.0691H14.0772H14.0852H14.0933H14.1014H14.1096H14.1178H14.126H14.1342H14.1424H14.1507H14.159H14.1674H14.1758H14.1842H14.1926H14.201H14.2095H14.2181H14.2266H14.2352H14.2438H14.2524H14.2611H14.2698H14.2785H14.2873H14.2961H14.3049H14.3138H14.3227H14.3316H14.3406H14.3495H14.3586H14.3676H14.3767H14.3858H14.395H14.4042H14.4134H14.4226H14.4319H14.4412H14.4506H14.46H14.4694H14.4789H14.4884H14.4979H14.5074H14.517H14.5267H14.5364H14.5461H14.5558H14.5656H14.5754H14.5853H14.5951H14.6051H14.615H14.625H14.6351H14.6452H14.6553H14.6654H14.6756H14.6858H14.6961H14.7064H14.7168H14.7271H14.7376H14.748H14.7585H14.7691H14.7797H14.7903H14.801H14.8117H14.8224H14.8332H14.844H14.8549H14.8658H14.8767H14.8877H14.8988H14.9099H14.921H14.9321H14.9433H14.9546H14.9659H14.9772H14.9886H15C15.8929 10 16.5385 10.468 16.9563 11.025C17.3529 11.5538 17.5811 12.2014 17.7201 12.7575C17.8627 13.3277 17.9314 13.8853 17.9653 14.292C17.9824 14.4975 17.9911 14.6697 17.9955 14.7924C17.9977 14.8539 17.9988 14.9032 17.9994 14.9384L17.9999 14.9805L18 14.9931L18 14.9973L18 14.9988L18 14.9995C18 14.9997 18 15 17 15H18C18 15.5523 17.5523 16 17 16H15V18H19.4872L19.4932 17.9996C19.5076 17.9986 19.5348 17.996 19.57 17.9902C19.6451 17.9776 19.73 17.9545 19.8028 17.9181C19.8717 17.8836 19.9101 17.8477 19.9336 17.8125C19.9529 17.7835 20 17.7 20 17.5C20 17.3 19.9529 17.2165 19.9336 17.1875C19.9101 17.1523 19.8717 17.1164 19.8028 17.0819C19.73 17.0455 19.6451 17.0224 19.57 17.0098C19.5348 17.004 19.5076 17.0014 19.4932 17.0004L19.4853 16.9999C18.9398 16.992 18.5 16.5474 18.5 16C18.5 15.4477 18.9477 15 19.5 15V16C19.5 15 19.5005 15 19.501 15L19.502 15L19.5042 15L19.509 15L19.5204 15.0002L19.5502 15.0009C19.5729 15.0017 19.6017 15.003 19.6357 15.0055C19.7033 15.0103 19.7933 15.0195 19.8988 15.037C20.1049 15.0714 20.395 15.142 20.6972 15.2931C21.0033 15.4461 21.3399 15.6914 21.5977 16.0781C21.8596 16.471 22 16.95 22 17.5C22 18.05 21.8596 18.529 21.5977 18.9219C21.3399 19.3086 21.0033 19.5539 20.6972 19.7069C20.395 19.858 20.1049 19.9286 19.8988 19.963C19.7933 19.9805 19.7033 19.9897 19.6357 19.9945C19.6017 19.997 19.5729 19.9983 19.5502 19.9991L19.5204 19.9998L19.509 20L19.5042 20L19.502 20L19.501 20C19.5005 20 19.5 20 19.5 19V20H3C2.44772 20 2 19.5523 2 19C2 18.4477 2.44772 18 3 18H6V16C4.34315 16 3 14.6569 3 13V5ZM8 18H13V16H8V18ZM15.9223 14H14H7H6C5.44772 14 5 13.5523 5 13V6H8.93238C8.90607 6.56524 8.88791 7.29731 8.91488 8.03647C8.94306 8.80861 9.02233 9.66064 9.22608 10.3471C9.3269 10.6867 9.48034 11.0644 9.73434 11.3751C10.0084 11.7104 10.4337 12 11 12H11.0117H11.0233H11.035H11.0465H11.058H11.0695H11.0809H11.0923H11.1037H11.115H11.1262H11.1375H11.1486H11.1598H11.1709H11.1819H11.1929H11.2039H11.2148H11.2257H11.2365H11.2473H11.2581H11.2688H11.2795H11.2901H11.3007H11.3112H11.3218H11.3322H11.3427H11.3531H11.3634H11.3737H11.384H11.3943H11.4045H11.4146H11.4247H11.4348H11.4449H11.4549H11.4649H11.4748H11.4847H11.4946H11.5044H11.5142H11.5239H11.5337H11.5433H11.553H11.5626H11.5722H11.5817H11.5912H11.6007H11.6101H11.6195H11.6289H11.6382H11.6475H11.6568H11.666H11.6752H11.6844H11.6935H11.7026H11.7116H11.7207H11.7297H11.7386H11.7476H11.7565H11.7653H11.7742H11.783H11.7917H11.8005H11.8092H11.8179H11.8265H11.8351H11.8437H11.8523H11.8608H11.8693H11.8778H11.8862H11.8946H11.903H11.9114H11.9197H11.928H11.9363H11.9445H11.9527H11.9609H11.969H11.9772H11.9853H11.9933H12.0014H12.0094H12.0174H12.0253H12.0333H12.0412H12.0491H12.0569H12.0648H12.0726H12.0804H12.0881H12.0958H12.1036H12.1112H12.1189H12.1265H12.1341H12.1417H12.1493H12.1568H12.1643H12.1718H12.1793H12.1867H12.1942H12.2016H12.2089H12.2163H12.2236H12.2309H12.2382H12.2455H12.2527H12.26H12.2672H12.2744H12.2815H12.2887H12.2958H12.3029H12.31H12.317H12.3241H12.3311H12.3381H12.3451H12.352H12.359H12.3659H12.3728H12.3797H12.3866H12.3934H12.4003H12.4071H12.4139H12.4207H12.4274H12.4342H12.4409H12.4476H12.4543H12.461H12.4677H12.4743H12.481H12.4876H12.4942H12.5008H12.5074H12.5139H12.5205H12.527H12.5335H12.54H12.5465H12.553H12.5595H12.5659H12.5723H12.5788H12.5852H12.5916H12.5979H12.6043H12.6107H12.617H12.6234H12.6297H12.636H12.6423H12.6486H12.6549H12.6611H12.6674H12.6736H12.6799H12.6861H12.6923H12.6985H12.7047H12.7109H12.7171H12.7232H12.7294H12.7355H12.7417H12.7478H12.7539H12.76H12.7662H12.7723H12.7783H12.7844H12.7905H12.7966H12.8026H12.8087H12.8147H12.8208H12.8268H12.8329H12.8389H12.8449H12.8509H12.8569H12.8629H12.8689H12.8749H12.8809H12.8869H12.8929H12.8989H12.9048H12.9108H12.9168H12.9227H12.9287H12.9346H12.9406H12.9465H12.9525H12.9584H12.9644H12.9703H12.9762H12.9822H12.9881H12.994H13H13.0059H13.0118H13.0178H13.0237H13.0296H13.0356H13.0415H13.0474H13.0533H13.0593H13.0652H13.0711H13.0771H13.083H13.0889H13.0949H13.1008H13.1067H13.1127H13.1186H13.1246H13.1305H13.1365H13.1424H13.1484H13.1543H13.1603H13.1663H13.1722H13.1782H13.1842H13.1902H13.1962H13.2022H13.2082H13.2142H13.2202H13.2262H13.2322H13.2382H13.2442H13.2503H13.2563H13.2624H13.2684H13.2745H13.2806H13.2866H13.2927H13.2988H13.3049H13.311H13.3171H13.3232H13.3294H13.3355H13.3417H13.3478H13.354H13.3601H13.3663H13.3725H13.3787H13.3849H13.3912H13.3974H13.4036H13.4099H13.4161H13.4224H13.4287H13.435H13.4413H13.4476H13.454H13.4603H13.4667H13.473H13.4794H13.4858H13.4922H13.4986H13.5051H13.5115H13.518H13.5244H13.5309H13.5374H13.5439H13.5504H13.557H13.5635H13.5701H13.5767H13.5833H13.5899H13.5965H13.6032H13.6099H13.6165H13.6232H13.6299H13.6367H13.6434H13.6502H13.657H13.6638H13.6706H13.6774H13.6843H13.6911H13.698H13.7049H13.7118H13.7188H13.7257H13.7327H13.7397H13.7467H13.7538H13.7608H13.7679H13.775H13.7821H13.7892H13.7964H13.8036H13.8108H13.818H13.8252H13.8325H13.8398H13.8471H13.8544H13.8618H13.8691H13.8765H13.8839H13.8914H13.8988H13.9063H13.9138H13.9214H13.9289H13.9365H13.9441H13.9517H13.9594H13.967H13.9747H13.9825H13.9902H13.998H14.0058H14.0136H14.0215H14.0293H14.0373H14.0452H14.0531H14.0611H14.0691H14.0772H14.0852H14.0933H14.1014H14.1096H14.1178H14.126H14.1342H14.1424H14.1507H14.159H14.1674H14.1758H14.1842H14.1926H14.201H14.2095H14.2181H14.2266H14.2352H14.2438H14.2524H14.2611H14.2698H14.2785H14.2873H14.2961H14.3049H14.3138H14.3227H14.3316H14.3406H14.3495H14.3586H14.3676H14.3767H14.3858H14.395H14.4042H14.4134H14.4226H14.4319H14.4412H14.4506H14.46H14.4694H14.4789H14.4884H14.4979H14.5074H14.517H14.5267H14.5364H14.5461H14.5558H14.5656H14.5754H14.5853H14.5951H14.6051H14.615H14.625H14.6351H14.6452H14.6553H14.6654H14.6756H14.6858H14.6961H14.7064H14.7168H14.7271H14.7376H14.748H14.7585H14.7691H14.7797H14.7903H14.801H14.8117H14.8224H14.8332H14.844H14.8549H14.8658H14.8767H14.8877H14.8988H14.9099H14.921H14.9321H14.9433H14.9546H14.9659H14.9772H14.9886H15C15.1071 12 15.2115 12.032 15.3562 12.225C15.5221 12.4462 15.6689 12.7986 15.7799 13.2425C15.8438 13.4984 15.8897 13.7588 15.9223 14Z" fill="#222222"/>
</svg>
