<svg width="24" height="24" viewBox="0 0 24 24" fill="none" xmlns="http://www.w3.org/2000/svg">
<path fill-rule="evenodd" clip-rule="evenodd" d="M8 4.21085C7.35829 4.93841 7 5.87834 7 6.85662V8.52992C7.30932 8.3989 7.64791 8.32724 8 8.32724C8.35209 8.32724 8.69068 8.3989 9 8.52992V6.85662C9 5.87834 8.64171 4.93841 8 4.21085ZM7 20.0014V16.0697C7.30932 16.2007 7.64791 16.2724 8 16.2724C8.35209 16.2724 8.69068 16.2007 9 16.0697V20.0014H7ZM6.96857 2.4109C7.54706 1.86303 8.45294 1.86304 9.03143 2.4109L9.12573 2.50021C10.3222 3.63334 11 5.20871 11 6.85662V20.5014C11 21.3298 10.3284 22.0014 9.5 22.0014H6.5C5.67157 22.0014 5 21.3298 5 20.5014V6.85662C5 5.20871 5.67777 3.63334 6.87427 2.50021L6.96857 2.4109ZM7.18361 12.7813L7.45127 13.8447C7.51457 14.0961 7.7407 14.2724 8 14.2724C8.25931 14.2724 8.48543 14.0961 8.54873 13.8447L8.81639 12.7813C8.89596 12.4653 8.89596 12.1344 8.81639 11.8183L8.54873 10.755C8.48543 10.5035 8.2593 10.3272 8 10.3272C7.74069 10.3272 7.51457 10.5035 7.45127 10.755L7.18361 11.8183C7.10404 12.1344 7.10404 12.4653 7.18361 12.7813ZM16 4.21085C15.3583 4.93841 15 5.87834 15 6.85662V8.52992C15.3093 8.3989 15.6479 8.32724 16 8.32724C16.3521 8.32724 16.6907 8.3989 17 8.52992V6.85662C17 5.87834 16.6417 4.93841 16 4.21085ZM15 20.0014V16.0697C15.3093 16.2007 15.6479 16.2724 16 16.2724C16.3521 16.2724 16.6907 16.2007 17 16.0697V20.0014H15ZM14.9686 2.4109C15.5471 1.86303 16.4529 1.86304 17.0314 2.4109L17.1257 2.50021C18.3222 3.63334 19 5.20871 19 6.85662V20.5014C19 21.3298 18.3284 22.0014 17.5 22.0014H14.5C13.6716 22.0014 13 21.3298 13 20.5014V6.85662C13 5.20871 13.6778 3.63334 14.8743 2.50021L14.9686 2.4109ZM15.1836 12.7813L15.4513 13.8447C15.5146 14.0961 15.7407 14.2724 16 14.2724C16.2593 14.2724 16.4854 14.0961 16.5487 13.8447L16.8164 12.7813C16.896 12.4653 16.896 12.1344 16.8164 11.8183L16.5487 10.755C16.4854 10.5035 16.2593 10.3272 16 10.3272C15.7407 10.3272 15.5146 10.5035 15.4513 10.755L15.1836 11.8183C15.104 12.1344 15.104 12.4653 15.1836 12.7813Z" fill="#222222"/>
</svg>
