<svg width="24" height="24" viewBox="0 0 24 24" fill="none" xmlns="http://www.w3.org/2000/svg">
<path d="M1 18C1.15 16.1642 1.69583 14.4741 2.6375 12.93C3.57917 11.3858 4.83333 10.159 6.4 9.24969L4.55 5.95546C4.45 5.80104 4.425 5.63804 4.475 5.46647C4.525 5.29489 4.63333 5.16621 4.8 5.08043C4.93333 4.99464 5.08333 4.97748 5.25 5.02895C5.41667 5.08043 5.55 5.18337 5.65 5.33779L7.5 8.63202C8.93333 8.01435 10.4333 7.70552 12 7.70552C13.5667 7.70552 15.0667 8.01435 16.5 8.63202L18.35 5.33779C18.45 5.18337 18.5833 5.08043 18.75 5.02895C18.9167 4.97748 19.0667 4.99464 19.2 5.08043C19.3667 5.16621 19.475 5.29489 19.525 5.46647C19.575 5.63804 19.55 5.80104 19.45 5.95546L17.6 9.24969C19.1667 10.159 20.4208 11.3858 21.3625 12.93C22.3042 14.4741 22.85 16.1642 23 18H1ZM7 15.169C7.35 15.169 7.64583 15.0446 7.8875 14.7958C8.12917 14.5471 8.25 14.2425 8.25 13.8822C8.25 13.5219 8.12917 13.2174 7.8875 12.9686C7.64583 12.7198 7.35 12.5954 7 12.5954C6.65 12.5954 6.35417 12.7198 6.1125 12.9686C5.87083 13.2174 5.75 13.5219 5.75 13.8822C5.75 14.2425 5.87083 14.5471 6.1125 14.7958C6.35417 15.0446 6.65 15.169 7 15.169ZM17 15.169C17.35 15.169 17.6458 15.0446 17.8875 14.7958C18.1292 14.5471 18.25 14.2425 18.25 13.8822C18.25 13.5219 18.1292 13.2174 17.8875 12.9686C17.6458 12.7198 17.35 12.5954 17 12.5954C16.65 12.5954 16.3542 12.7198 16.1125 12.9686C15.8708 13.2174 15.75 13.5219 15.75 13.8822C15.75 14.2425 15.8708 14.5471 16.1125 14.7958C16.3542 15.0446 16.65 15.169 17 15.169Z" fill="#222222"/>
</svg>
