<svg width="24" height="24" viewBox="0 0 24 24" fill="none" xmlns="http://www.w3.org/2000/svg">
<path d="M15.537 5.8125C16.9942 5.8125 18.4736 6.59393 19.5068 7.89258C19.6728 8.10164 19.7391 8.37363 19.6874 8.63574C19.6356 8.89824 19.4709 9.12506 19.2372 9.25488C18.6162 9.59948 18.1721 10.1141 17.9462 10.749C17.4389 12.17 18.1144 13.8578 19.6152 14.4277C19.8488 14.5166 20.036 14.698 20.1318 14.9297C20.2269 15.1604 20.2226 15.4203 20.121 15.6484L19.8925 16.1543C19.5767 16.8367 19.3629 17.2181 18.9511 17.8535C17.7634 19.6717 16.7359 20.643 15.412 20.7383L15.1913 20.7451C14.6752 20.7451 14.3383 20.6604 13.8222 20.4346L13.5419 20.3066C13.15 20.127 12.894 20.0474 12.5273 20.0283L12.3124 20.0244C11.891 20.0266 11.6215 20.0814 11.2548 20.2305L10.9804 20.3506C10.4044 20.6098 10.0583 20.7222 9.58099 20.7441L9.36224 20.749C7.92593 20.7366 6.87259 19.8025 5.68841 17.9893C4.18248 15.6784 3.51632 12.9098 3.91302 10.5635C4.05667 9.72335 4.32189 8.99306 4.70599 8.39355C5.72862 6.80577 7.3803 5.81269 9.03411 5.8125C9.60319 5.8125 10.078 5.90612 10.6835 6.10547L11.4589 6.37695C11.8476 6.50798 12.0497 6.54883 12.2919 6.54883C12.4968 6.54878 12.6648 6.51432 12.9775 6.4043L13.4658 6.22168C14.2118 5.94199 14.7773 5.81254 15.537 5.8125ZM15.2411 0C15.5901 0.0239014 15.8838 0.290148 15.9365 0.646484C16.1017 1.76871 15.7438 2.99085 14.9599 4.00391C14.1917 4.99791 12.9653 5.63957 11.8193 5.63965L11.7206 5.6377C11.3644 5.62642 11.0649 5.36704 11.0009 5.01562C10.8049 3.93813 11.1849 2.69791 12.0087 1.6875C12.7688 0.754451 14.0162 0.0800195 15.1357 0.000976562L15.2411 0Z" fill="#222222"/>
</svg>
