<svg width="16" height="16" viewBox="0 0 16 16" fill="none" xmlns="http://www.w3.org/2000/svg">
<path fill-rule="evenodd" clip-rule="evenodd" d="M4.53033 13.5303C4.23744 13.8232 3.76256 13.8232 3.46967 13.5303L0.46967 10.5303C0.176777 10.2374 0.176777 9.76256 0.46967 9.46967C0.762563 9.17678 1.23744 9.17678 1.53033 9.46967L3.25 11.1893V3V2.25H4.75V3V11.1893L6.46967 9.46967C6.76256 9.17678 7.23744 9.17678 7.53033 9.46967C7.82322 9.76256 7.82322 10.2374 7.53033 10.5303L4.53033 13.5303ZM12.5303 2.46967C12.2374 2.17678 11.7625 2.17678 11.4696 2.46967L8.46961 5.46967C8.17672 5.76256 8.17672 6.23744 8.46961 6.53033C8.7625 6.82322 9.23738 6.82322 9.53027 6.53033L11.2499 4.81066V13V13.75H12.7499V13V4.81066L14.4696 6.53033C14.7625 6.82322 15.2374 6.82322 15.5303 6.53033C15.8232 6.23744 15.8232 5.76256 15.5303 5.46967L12.5303 2.46967Z" fill="#222222"/>
</svg>
