<svg width="24" height="24" viewBox="0 0 24 24" fill="none" xmlns="http://www.w3.org/2000/svg">
<path fill-rule="evenodd" clip-rule="evenodd" d="M6.66667 3H5.66667V4V5.66667H4H3V6.66667V17.3333V18.3333H4H5.66667V20V21H6.66667H17.3333H18.3333V20V18.3333H20H21V17.3333V6.66667V5.66667H20H18.3333V4V3H17.3333H6.66667ZM7.66667 6.66667V5H16.3333V6.66667V7.66667H17.3333H19V16.3333H17.3333H16.3333V17.3333V19H7.66667V17.3333V16.3333H6.66667H5V7.66667H6.66667H7.66667V6.66667ZM15 9H10V10H9V14H10V15H15V13H11V10.5H15V9Z" fill="#222222"/>
</svg>
