<svg width="24" height="24" viewBox="0 0 24 24" fill="none" xmlns="http://www.w3.org/2000/svg">
<path fill-rule="evenodd" clip-rule="evenodd" d="M12.1421 3.68629L3.82843 12L12.1421 20.3137L20.4558 12L12.1421 3.68629ZM2.41421 10.5858C1.63317 11.3668 1.63317 12.6332 2.41421 13.4142L10.7279 21.7279C11.509 22.509 12.7753 22.509 13.5563 21.7279L21.8701 13.4142C22.6511 12.6332 22.6511 11.3668 21.8701 10.5858L13.5563 2.27208C12.7753 1.49103 11.509 1.49103 10.7279 2.27208L2.41421 10.5858Z" fill="#222222"/>
<path d="M13 14L13 7H11L11 14H13Z" fill="#222222"/>
<path d="M13 15V17H11V15H13Z" fill="#222222"/>
</svg>
