<svg width="24" height="24" viewBox="0 0 24 24" fill="none" xmlns="http://www.w3.org/2000/svg">
<path fill-rule="evenodd" clip-rule="evenodd" d="M5 5.5C5 4.39543 5.89543 3.5 7 3.5H20C21.1046 3.5 22 4.39543 22 5.5V16.5C22 17.6046 21.1046 18.5 20 18.5H19C19 19.6046 18.1046 20.5 17 20.5H4C2.89543 20.5 2 19.6046 2 18.5V8.5C2 7.39543 2.89543 6.5 4 6.5H5V5.5ZM20 16C20 16.2761 19.7761 16.5 19.5 16.5H19V8.5C19 7.39543 18.1046 6.5 17 6.5H7V6C7 5.72386 7.22386 5.5 7.5 5.5L19.5 5.5C19.7761 5.5 20 5.72386 20 6V16ZM17 9C17 8.72386 16.7761 8.5 16.5 8.5H4.5C4.22386 8.5 4 8.72386 4 9L4 18C4 18.2761 4.22386 18.5 4.5 18.5H16.5C16.7761 18.5 17 18.2761 17 18V9ZM6.304 11.9453H6.52861L7.80332 15.3951V11.9453H9.22178C9.50661 11.9453 9.75156 11.9974 9.95664 12.1016C10.1633 12.2057 10.322 12.349 10.4327 12.5312C10.5434 12.7119 10.5987 12.9186 10.5987 13.1514C10.5987 13.3809 10.5434 13.5811 10.4327 13.752C10.322 13.9229 10.1633 14.0563 9.95664 14.1523C9.75156 14.2467 9.50661 14.2939 9.22178 14.2939H8.66025V15.5H7.84209H7.80332H6.91924L6.71367 14.8359H5.53976L5.33477 15.5H4.41436L5.72051 11.9453H5.93779H6.304ZM5.744 14.1743H6.50885L6.12589 12.9372L5.744 14.1743ZM8.66025 13.6323H9.22178C9.34222 13.6323 9.43988 13.612 9.51475 13.5713C9.58962 13.5306 9.64414 13.4744 9.67832 13.4028C9.71413 13.3296 9.73203 13.2474 9.73203 13.1562C9.73203 13.0586 9.71413 12.9683 9.67832 12.8853C9.64414 12.8022 9.58962 12.7355 9.51475 12.6851C9.43988 12.633 9.34222 12.6069 9.22178 12.6069H8.66025V13.6323ZM11.6171 14.2939H12.1786C12.4634 14.2939 12.7084 14.2467 12.9135 14.1523C13.1202 14.0563 13.2789 13.9229 13.3896 13.752C13.5002 13.5811 13.5556 13.3809 13.5556 13.1514C13.5556 12.9186 13.5002 12.7119 13.3896 12.5312C13.2789 12.349 13.1202 12.2057 12.9135 12.1016C12.7084 11.9974 12.4634 11.9453 12.1786 11.9453H10.7602V15.5H11.6171V14.2939ZM11.6171 13.6323V12.6069H12.1786C12.2991 12.6069 12.3967 12.633 12.4716 12.6851C12.5465 12.7355 12.601 12.8022 12.6352 12.8853C12.671 12.9683 12.6889 13.0586 12.6889 13.1562C12.6889 13.2474 12.671 13.3296 12.6352 13.4028C12.601 13.4744 12.5465 13.5306 12.4716 13.5713C12.3967 13.612 12.2991 13.6323 12.1786 13.6323H11.6171ZM15.5236 14.4062C15.5399 14.4502 15.548 14.4998 15.548 14.5552C15.548 14.6187 15.5326 14.6772 15.5017 14.731C15.4707 14.783 15.4219 14.8254 15.3552 14.8579C15.2884 14.8888 15.2006 14.9043 15.0915 14.9043C14.9906 14.9043 14.9011 14.8953 14.8229 14.8774C14.7448 14.8579 14.6789 14.827 14.6252 14.7847C14.5715 14.7407 14.5308 14.6829 14.5031 14.6113C14.4755 14.5397 14.4616 14.4518 14.4616 14.3477H13.6022C13.6022 14.5576 13.6446 14.7391 13.7292 14.8921C13.8155 15.0435 13.9302 15.168 14.0734 15.2656C14.2167 15.3617 14.3762 15.4333 14.552 15.4805C14.7294 15.526 14.9092 15.5488 15.0915 15.5488C15.2901 15.5488 15.4699 15.5269 15.6311 15.4829C15.7922 15.439 15.9305 15.3747 16.0461 15.29C16.1617 15.2038 16.2504 15.0988 16.3122 14.9751C16.3741 14.8514 16.405 14.7098 16.405 14.5503C16.405 14.4006 16.3781 14.2663 16.3244 14.1475C16.2723 14.0286 16.195 13.9229 16.0925 13.8301C15.9916 13.7357 15.8671 13.6519 15.7189 13.5786C15.5725 13.5037 15.4048 13.4362 15.216 13.376C15.1151 13.3434 15.024 13.3101 14.9426 13.2759C14.8628 13.2417 14.7945 13.2059 14.7375 13.1685C14.6822 13.131 14.639 13.0911 14.6081 13.0488C14.5788 13.0049 14.5642 12.9561 14.5642 12.9023C14.5642 12.8372 14.5829 12.7778 14.6203 12.7241C14.6577 12.6688 14.7131 12.6248 14.7863 12.5923C14.8596 12.5597 14.9499 12.5435 15.0573 12.5435C15.168 12.5435 15.26 12.563 15.3332 12.6021C15.4064 12.6411 15.461 12.6948 15.4968 12.7632C15.5342 12.8315 15.5529 12.9105 15.5529 13H16.405C16.405 12.7754 16.348 12.5809 16.2341 12.4165C16.1218 12.2505 15.9655 12.1227 15.7653 12.0332C15.5668 11.9421 15.3373 11.8965 15.0769 11.8965C14.8799 11.8965 14.6984 11.9201 14.5324 11.9673C14.3664 12.0129 14.2215 12.0796 14.0979 12.1675C13.9758 12.2537 13.8806 12.3587 13.8122 12.4824C13.7438 12.6045 13.7097 12.742 13.7097 12.895C13.7097 13.0545 13.743 13.1945 13.8098 13.3149C13.8765 13.4338 13.9668 13.5379 14.0808 13.6274C14.1947 13.7153 14.3241 13.7926 14.4689 13.8594C14.6138 13.9245 14.7644 13.9831 14.9206 14.0352C15.0541 14.0791 15.1615 14.1214 15.2429 14.1621C15.3259 14.2012 15.3894 14.2402 15.4333 14.2793C15.4772 14.3184 15.5074 14.3607 15.5236 14.4062Z" fill="#222222"/>
</svg>
