<svg width="24" height="24" viewBox="0 0 24 24" fill="none" xmlns="http://www.w3.org/2000/svg">
<path d="M16.8563 4.75H13.1295V9.10146H12.8943C12.1492 7.73647 10.3211 7.04318 7.94174 7.04318C4.45395 7.04318 2.21799 8.3358 2.21799 10.7058C2.21799 15.6128 11.0662 13.1469 11.0662 15.6845C11.0662 16.5943 10.0566 16.9048 8.0125 16.9048C5.84856 16.9048 4.8861 16.3543 4.8861 15.1569V14.917H2V15.2528C2 18.2444 4.50112 19.25 8.08452 19.25C11.6679 19.25 13.951 18.0533 13.951 15.6121C13.951 10.7052 5.10281 13.0739 5.10281 10.6569C5.10281 9.843 6.01683 9.38779 7.84486 9.38779C10.0572 9.38779 10.8266 10.2741 10.8266 11.0163V11.0397H13.1288V11.0417H14.6732L17.0271 6.38418H17.3298V11.0417H18.873L22 4.75H16.8563Z" fill="#222222"/>
</svg>
