<svg width="24" height="24" viewBox="0 0 24 24" fill="none" xmlns="http://www.w3.org/2000/svg">
<path d="M12 7.13L12.97 9.42L13.44 10.53L14.64 10.63L17.11 10.84L15.23 12.47L14.32 13.26L14.59 14.44L15.15 16.85L13.03 15.57L12 14.93L10.97 15.55L8.85 16.83L9.41 14.42L9.68 13.24L8.77 12.45L6.89 10.82L9.36 10.61L10.56 10.51L11.03 9.4L12 7.13ZM12.9207 4.17237C12.5761 3.35934 11.4239 3.35934 11.0793 4.17237L9.19 8.63L4.36163 9.03964C3.4802 9.11442 3.1228 10.2127 3.79139 10.7919L7.46 13.97L6.35841 18.692C6.15745 19.5535 7.09168 20.2325 7.849 19.7754L12 17.27L16.151 19.7754C16.9083 20.2325 17.8425 19.5535 17.6416 18.692L16.54 13.97L20.2086 10.7919C20.8772 10.2127 20.5198 9.11442 19.6384 9.03964L14.81 8.63L12.9207 4.17237Z" fill="#222222"/>
</svg>
