<svg width="24" height="24" viewBox="0 0 24 24" fill="none" xmlns="http://www.w3.org/2000/svg">
<path fill-rule="evenodd" clip-rule="evenodd" d="M15.0139 8.4879C14.943 7.82471 14.6443 7.30834 14.1178 6.93878C13.5964 6.56921 12.918 6.38443 12.0827 6.38443C11.4954 6.38443 10.9917 6.47303 10.5715 6.65021C10.1513 6.8274 9.82987 7.06787 9.60712 7.37162C9.38437 7.67537 9.27046 8.02215 9.2654 8.41196C9.2654 8.73596 9.33881 9.01693 9.48562 9.25487C9.63749 9.4928 9.84252 9.6953 10.1007 9.86236C10.3589 10.0244 10.6449 10.1611 10.9588 10.2724C11.087 10.3179 11.2156 10.3604 11.3446 10.4H6.83403C6.55145 9.87973 6.41016 9.27527 6.41016 8.58662C6.41016 7.67031 6.65822 6.8679 7.15434 6.1794C7.65553 5.4909 8.33643 4.95681 9.19706 4.57712C10.0577 4.19237 11.0322 4 12.1206 4C13.2243 4 14.1912 4.19237 15.0215 4.57712C15.8568 4.95681 16.5124 5.48584 16.9882 6.16421C17.4641 6.83753 17.7096 7.61209 17.7248 8.4879H15.0139Z" fill="#222222"/>
<path d="M14.3366 14H3V11.7H6H8.07278H15.539H18H21V14H17.7137C17.8628 14.4154 17.9374 14.8814 17.9374 15.3982C17.9374 16.3094 17.7045 17.1118 17.2387 17.8054C16.773 18.4939 16.0997 19.0331 15.2188 19.4229C14.343 19.8076 13.2824 20 12.037 20C10.8271 20 9.77662 19.8127 8.88562 19.4381C7.99968 19.0634 7.30612 18.5167 6.80494 17.7978C6.30881 17.0789 6.05142 16.3205 6.01092 15.2878H8.78263C8.82313 15.8295 8.97928 16.1626 9.2729 16.5221C9.56652 16.8815 9.94874 17.1498 10.4196 17.327C10.8954 17.5042 11.427 17.5928 12.0142 17.5928C12.6268 17.5928 13.1634 17.5017 13.6241 17.3194C14.0899 17.1321 14.4544 16.8739 14.7176 16.5448C14.9809 16.2107 15.115 15.8209 15.1201 15.3754C15.115 14.9704 14.996 14.6363 14.7632 14.373C14.6451 14.237 14.5029 14.1126 14.3366 14Z" fill="#222222"/>
</svg>
