<svg width="24" height="24" viewBox="0 0 24 24" fill="none" xmlns="http://www.w3.org/2000/svg">
<path fill-rule="evenodd" clip-rule="evenodd" d="M11 8C11 7.44772 11.4477 7 12 7C12.5523 7 13 7.44772 13 8H15C15 6.34315 13.6569 5 12 5C10.3431 5 9 6.34315 9 8C9 9.30622 9.83481 10.4175 11 10.8293V11.382L4.23607 14.7639C3.47852 15.1427 3 15.917 3 16.7639C3 17.9989 4.00112 19 5.23607 19H18.7639C19.9989 19 21 17.9989 21 16.7639C21 15.917 20.5215 15.1427 19.7639 14.7639L13 11.382V10C13 9.44772 12.5523 9 12 9C11.4477 9 11 8.55228 11 8ZM19 16.7639C19 16.6745 18.9495 16.5928 18.8695 16.5528L12 13.118L5.1305 16.5528C5.05052 16.5928 5 16.6745 5 16.7639C5 16.8943 5.10569 17 5.23607 17H18.7639C18.8943 17 19 16.8943 19 16.7639Z" fill="#222222"/>
</svg>
