<svg width="24" height="24" viewBox="0 0 24 24" fill="none" xmlns="http://www.w3.org/2000/svg">
<path fill-rule="evenodd" clip-rule="evenodd" d="M2 6C2 4.89543 2.89543 4 4 4H20C21.1046 4 22 4.89543 22 6L22 11L22 19C22 20.1046 21.1046 21 20 21H4C2.89543 21 2 20.1046 2 19V6ZM4 6H20V10H4V6ZM20 12V19H4V12H20Z" fill="#222222"/>
<path fill-rule="evenodd" clip-rule="evenodd" d="M5 8C5 7.44772 5.44772 7 6 7L12 7C12.5523 7 13 7.44772 13 8C13 8.55229 12.5523 9 12 9L6 9C5.44772 9 5 8.55228 5 8Z" fill="#222222"/>
<path d="M13 14C13 14.5523 12.5523 15 12 15C11.4477 15 11 14.5523 11 14C11 13.4477 11.4477 13 12 13C12.5523 13 13 13.4477 13 14Z" fill="#222222"/>
<path d="M8 14C8 14.5523 7.55228 15 7 15C6.44772 15 6 14.5523 6 14C6 13.4477 6.44772 13 7 13C7.55228 13 8 13.4477 8 14Z" fill="#222222"/>
<path d="M18 14C18 14.5523 17.5523 15 17 15C16.4477 15 16 14.5523 16 14C16 13.4477 16.4477 13 17 13C17.5523 13 18 13.4477 18 14Z" fill="#222222"/>
<path fill-rule="evenodd" clip-rule="evenodd" d="M10 17C10 16.4477 10.4477 16 11 16H13C13.5523 16 14 16.4477 14 17C14 17.5523 13.5523 18 13 18H11C10.4477 18 10 17.5523 10 17Z" fill="#222222"/>
<path fill-rule="evenodd" clip-rule="evenodd" d="M5 17C5 16.4477 5.44772 16 6 16H8C8.55228 16 9 16.4477 9 17C9 17.5523 8.55228 18 8 18H6C5.44772 18 5 17.5523 5 17Z" fill="#222222"/>
<path fill-rule="evenodd" clip-rule="evenodd" d="M15 17C15 16.4477 15.4477 16 16 16H18C18.5523 16 19 16.4477 19 17C19 17.5523 18.5523 18 18 18H16C15.4477 18 15 17.5523 15 17Z" fill="#222222"/>
<path d="M19 8C19 8.55228 18.5523 9 18 9C17.4477 9 17 8.55228 17 8C17 7.44772 17.4477 7 18 7C18.5523 7 19 7.44772 19 8Z" fill="#222222"/>
</svg>
