<svg width="16" height="16" viewBox="0 0 16 16" fill="none" xmlns="http://www.w3.org/2000/svg">
<path fill-rule="evenodd" clip-rule="evenodd" d="M6.5 1C6.08579 1 5.75 1.33579 5.75 1.75C5.75 2.16421 6.08579 2.5 6.5 2.5H9.5C9.91421 2.5 10.25 2.16421 10.25 1.75C10.25 1.33579 9.91421 1 9.5 1H6.5ZM12.5 9C12.5 11.4853 10.4853 13.5 8 13.5C5.51472 13.5 3.5 11.4853 3.5 9C3.5 6.51472 5.51472 4.5 8 4.5C10.4853 4.5 12.5 6.51472 12.5 9ZM14 9C14 12.3137 11.3137 15 8 15C4.68629 15 2 12.3137 2 9C2 5.68629 4.68629 3 8 3C9.38653 3 10.6632 3.47031 11.6792 4.26011L11.9697 3.96967L12.5 3.43934L13.5607 4.5L13.0303 5.03033L12.7399 5.32077C13.5297 6.33678 14 7.61347 14 9ZM8.75 6.5C8.75 6.08579 8.41421 5.75 8 5.75C7.58579 5.75 7.25 6.08579 7.25 6.5V9C7.25 9.41421 7.58579 9.75 8 9.75C8.41421 9.75 8.75 9.41421 8.75 9V6.5Z" fill="#222222"/>
</svg>
