<svg width="24" height="24" viewBox="0 0 24 24" fill="none" xmlns="http://www.w3.org/2000/svg">
<path fill-rule="evenodd" clip-rule="evenodd" d="M3 3.5C3 2.67157 3.67157 2 4.5 2H18.5C19.3284 2 20 2.67157 20 3.5V11H18V4H5V20H10V22H4.5C3.67157 22 3 21.3284 3 20.5V3.5ZM7 7C7 6.44772 7.44772 6 8 6H15C15.5523 6 16 6.44772 16 7C16 7.55228 15.5523 8 15 8H8C7.44772 8 7 7.55228 7 7ZM8 10C7.44772 10 7 10.4477 7 11C7 11.5523 7.44772 12 8 12H15C15.5523 12 16 11.5523 16 11C16 10.4477 15.5523 10 15 10H8ZM7 15C7 14.4477 7.44772 14 8 14H11C11.5523 14 12 14.4477 12 15C12 15.5523 11.5523 16 11 16H8C7.44772 16 7 15.5523 7 15ZM17.1919 13.6575C18.0615 12.7807 19.4773 12.7807 20.3474 13.6581C21.2175 14.5355 21.2175 15.9631 20.3474 16.8405L16.2719 20.9421C16.1812 21.0335 16.0686 21.0996 15.945 21.1341L12.9425 21.9727C12.8769 21.9911 12.8101 22 12.744 22C12.5462 22 12.3534 21.9204 12.2114 21.7737C12.022 21.5779 11.9533 21.2937 12.0321 21.0319L12.9216 18.0794C12.9572 17.9612 13.0212 17.8537 13.1079 17.7664L17.1919 13.6575ZM13.8488 20.163L15.3593 19.7411L18.0988 16.984L17.0465 15.923L14.2909 18.6955L13.8488 20.163ZM19.1518 15.9243L19.2959 15.7793C19.5855 15.4872 19.5855 15.0114 19.2954 14.7189C19.0054 14.4265 18.5335 14.4265 18.2434 14.7189L18.0998 14.8635L19.1518 15.9243Z" fill="#222222"/>
</svg>
