<svg width="24" height="24" viewBox="0 0 24 24" fill="none" xmlns="http://www.w3.org/2000/svg">
<path fill-rule="evenodd" clip-rule="evenodd" d="M11 5V2H13V5H11ZM12 15C13.6569 15 15 13.6569 15 12C15 10.3431 13.6569 9 12 9C10.3431 9 9 10.3431 9 12C9 13.6569 10.3431 15 12 15ZM12 17C14.7614 17 17 14.7614 17 12C17 9.23858 14.7614 7 12 7C9.23858 7 7 9.23858 7 12C7 14.7614 9.23858 17 12 17ZM4.22185 5.63606L6.34317 7.75738L7.75738 6.34317L5.63606 4.22185L4.22185 5.63606ZM5 13H2V11H5V13ZM5.63606 20.2782L7.75738 18.1568L6.34317 16.7426L4.22185 18.8639L5.63606 20.2782ZM11 22V19H13V22H11ZM16.2427 17.6569L18.364 19.7782L19.7782 18.364L17.6569 16.2427L16.2427 17.6569ZM22 13H19V11H22V13ZM17.6569 8.25734L19.7782 6.13602L18.364 4.7218L16.2427 6.84313L17.6569 8.25734Z" fill="#222222"/>
</svg>
