<svg width="24" height="24" viewBox="0 0 24 24" fill="none" xmlns="http://www.w3.org/2000/svg">
<path fill-rule="evenodd" clip-rule="evenodd" d="M10.5 5C8.01472 5 6 7.01472 6 9.5C6 10.0174 6.0863 10.5234 6.24396 11H14.756C14.9137 10.5234 15 10.0174 15 9.5C15 7.01472 12.9853 5 10.5 5ZM13.5005 13H7.49948C8.00106 13.4822 8.60043 13.8441 9.25323 14.0323C9.6829 14.1445 10 14.5352 10 15V19H11V15C11 14.5352 11.3171 14.1445 11.7468 14.0323C12.3996 13.8441 12.9989 13.4822 13.5005 13ZM4 9.5C4 12.1686 5.62158 14.6827 8 15.7041V20C8 20.5523 8.44772 21 9 21H12C12.5523 21 13 20.5523 13 20V15.7041C15.3784 14.6827 17 12.1686 17 9.5C17 5.91015 14.0899 3 10.5 3C6.91015 3 4 5.91015 4 9.5ZM18 21C19.1046 21 20 20.1046 20 19C20 17.8954 19.1046 17 18 17C16.8954 17 16 17.8954 16 19C16 20.1046 16.8954 21 18 21Z" fill="#222222"/>
</svg>
