<svg width="24" height="24" viewBox="0 0 24 24" fill="none" xmlns="http://www.w3.org/2000/svg">
<path fill-rule="evenodd" clip-rule="evenodd" d="M3 4.5C3 3.67157 3.67157 3 4.5 3H15.5C16.3284 3 17 3.67157 17 4.5V6H15V5H5V15H6V17H4.5C3.67157 17 3 16.3284 3 15.5V4.5ZM9 17V19H11V17H9ZM7 17V15V13V11V8C7 7.44772 7.44772 7 8 7H20C20.5523 7 21 7.44772 21 8V11V13V15V17V20C21 20.5523 20.5523 21 20 21H17H15H13H11H8C7.44772 21 7 20.5523 7 20V17ZM19 15V13H17V15H19ZM17 17H19V19H17V17ZM15 15V13H13V15H15ZM13 17H15V19H13V17ZM11 15V13H9V15H11ZM19 11H17H15H13H11H9V9H19V11Z" fill="#222222"/>
</svg>
