<svg width="24" height="24" viewBox="0 0 24 24" fill="none" xmlns="http://www.w3.org/2000/svg">
<path d="M18.0524 14.7345C17.571 14.8088 17.0442 14.5957 16.8669 14.3473C16.6349 14.0225 16.5188 13.5662 16.5188 12.9785V8.52407C16.5188 7.97313 16.0722 7.52651 15.5213 7.52651C14.9703 7.52651 14.5237 7.97313 14.5237 8.52407V9.08092H14.4076C14.1602 8.60143 13.7968 8.22252 13.3173 7.94411C12.8533 7.6657 12.3196 7.52651 11.7165 7.52651C10.9895 7.52651 10.3322 7.72759 9.74441 8.12972C9.15677 8.53185 8.70047 9.08864 8.37564 9.8001C8.05081 10.4961 7.88846 11.2849 7.88846 12.1665C7.88846 13.0481 8.05081 13.8447 8.37564 14.5561C8.71597 15.2521 9.18765 15.8012 9.7908 16.2033C10.3941 16.6054 11.0823 16.8065 11.8556 16.8065C12.5362 16.8065 13.1471 16.6441 13.6885 16.3193C14.1436 16.0462 14.5276 15.6583 14.8406 15.1557C15.0153 15.4969 15.2691 15.8517 15.6195 16.148C16.2659 16.6944 17.1785 16.9835 18.2943 16.7046C19.5409 16.393 20.4252 15.725 20.9467 14.6822C21.4304 13.7147 21.5522 12.5177 21.5522 11.2349C21.5522 8.43859 19.4358 4.37029 15.1576 3.34136L14.7367 3.25151C10.4456 2.44692 7.32535 3.64498 5.37149 5.81597C3.46329 7.93648 2.78287 10.8597 3.05899 13.3453L3.06094 13.3667C3.61734 17.5391 6.16568 19.821 8.97208 20.8032C11.6935 21.7558 14.7419 21.1903 16.514 20.3042C17.0079 20.0573 17.2081 19.4573 16.9613 18.9634C16.7144 18.4694 16.1135 18.2691 15.6195 18.5162C14.3916 19.13 11.9114 19.7128 9.63321 18.9156C7.44314 18.149 5.49295 16.4353 5.04532 13.1177C4.82352 11.105 5.39322 8.78154 6.85782 7.15386C8.27884 5.57488 10.6591 4.52208 14.3676 5.21733L14.6859 5.28569C17.9153 6.06539 19.5522 9.18761 19.5522 11.2349C19.5522 12.4517 19.4239 13.2553 19.1576 13.7876C18.9292 14.2444 18.6141 14.6479 18.0524 14.7345ZM13.3173 14.5793C12.9925 14.7959 12.6057 14.9041 12.1573 14.9041C11.7088 14.9041 11.3221 14.7959 10.9972 14.5793C10.6879 14.3473 10.4481 14.0302 10.2781 13.6281C10.1079 13.2105 10.0229 12.7233 10.0229 12.1665C10.0229 11.6097 10.1079 11.1302 10.2781 10.7281C10.4481 10.3105 10.6879 9.99343 10.9972 9.7769C11.3221 9.54491 11.7088 9.42891 12.1573 9.42891C12.6057 9.42891 12.9925 9.54491 13.3173 9.7769C13.6575 9.99343 13.9204 10.3105 14.1061 10.7281C14.3072 11.1457 14.4076 11.6252 14.4076 12.1665C14.4076 12.7078 14.3072 13.1873 14.1061 13.6049C13.9204 14.0225 13.6575 14.3473 13.3173 14.5793Z" fill="#222222"/>
</svg>
