<svg width="24" height="24" viewBox="0 0 24 24" fill="none" xmlns="http://www.w3.org/2000/svg">
<path d="M12 3L20 5.04827L19.6243 8.97765C18.5268 16.0298 12 21 12 21L11.8709 20.8981C10.9499 20.1572 5.38175 15.4421 4.37567 8.97765L4 5.04827L12 3ZM11 5.32L6.153 6.561L6.359 8.717L6.42318 9.0799C6.84286 11.2627 7.89005 13.3979 9.39849 15.4185L9.68668 15.796C10.1106 16.3392 10.5518 16.8532 11.0005 17.335L11 5.32ZM13 5.32L13.0011 17.3332C13.3309 16.979 13.6567 16.6075 13.9745 16.2196L14.3133 15.796C15.9766 13.6646 17.1309 11.3991 17.5768 9.0799L17.64 8.717L17.846 6.561L13 5.32Z" fill="#222222"/>
</svg>
