<svg width="24" height="24" viewBox="0 0 24 24" fill="none" xmlns="http://www.w3.org/2000/svg">
<path d="M12 3C16.9706 3 21 7.02944 21 12C21 16.9706 16.9706 21 12 21C7.02944 21 3 16.9706 3 12C3 7.02944 7.02944 3 12 3ZM4.95578 12.3608L4.96157 12.4732C5.19707 16.0288 8.06709 18.8641 11.6374 19.0449C11.417 17.3693 10.6563 15.8014 9.42749 14.5725C8.19817 13.3432 6.62963 12.5828 4.95578 12.3608ZM10.4204 5.12349L10.3826 5.13225C7.77273 5.74453 5.72117 7.80602 5.12326 10.4214C7.24919 10.6829 9.24621 11.6392 10.8035 13.1965C12.3601 14.7531 13.3169 16.7496 13.5795 18.8762C16.2069 18.2759 18.2759 16.2069 18.8767 13.5786C16.7504 13.317 14.7536 12.3606 13.1965 10.8035C11.6389 9.24583 10.6826 7.24838 10.4204 5.12349ZM12.3616 4.95506L12.3625 4.96844C12.5866 6.63711 13.3461 8.20108 14.5725 9.42749C15.8019 10.6569 17.3706 11.4173 19.0448 11.6393C18.8628 8.03036 15.9696 5.13725 12.3616 4.95506Z" fill="#222222"/>
</svg>
