<svg width="24" height="24" viewBox="0 0 24 24" fill="none" xmlns="http://www.w3.org/2000/svg">
<path fill-rule="evenodd" clip-rule="evenodd" d="M13.125 3V10.3125H21V17.625C21 19.489 19.489 21 17.625 21H6.375C4.51104 21 3 19.489 3 17.625V6.375C3 4.51104 4.51104 3 6.375 3H13.125ZM13.125 12.5625V18.75H17.625C18.2463 18.75 18.75 18.2463 18.75 17.625V12.5625H13.125ZM5.25 17.625C5.25 18.2463 5.75368 18.75 6.375 18.75H10.875V12.5625H5.25V17.625ZM6.375 5.25C5.75368 5.25 5.25 5.75368 5.25 6.375V10.3125H10.875V5.25H6.375Z" fill="#222222"/>
<path fill-rule="evenodd" clip-rule="evenodd" d="M18.8231 9L18.8231 4.74193H21V3H15V4.74193H17.1534L17.1534 9H18.8231Z" fill="#222222"/>
</svg>
