<svg width="24" height="24" viewBox="0 0 24 24" fill="none" xmlns="http://www.w3.org/2000/svg">
<path fill-rule="evenodd" clip-rule="evenodd" d="M12.5876 4.24912C12.9906 3.907 13.5854 3.9185 13.9749 4.27595C15.1182 5.32519 16.8672 5.34806 18.0376 4.32908L18.0745 4.297L17.4199 3.54515L18.0745 4.29699C18.4958 3.93014 19.1249 3.93627 19.5391 4.31125L20.3288 5.02637C20.7382 5.39706 21.3706 5.36569 21.7413 4.9563C22.112 4.54691 22.0806 3.91452 21.6712 3.54382L20.8815 2.82871C19.7164 1.77377 17.9466 1.75654 16.7612 2.7886L16.7243 2.82068L17.381 3.57488L16.7243 2.82068C16.3218 3.17111 15.7203 3.16324 15.3271 2.80241C14.1945 1.76301 12.4652 1.72957 11.2933 2.72441L10.3529 3.52274C9.93183 3.88015 9.88025 4.51121 10.2377 4.93225C10.5951 5.35329 11.2261 5.40487 11.6472 5.04745L12.5876 4.24912ZM12.5876 8.18595C12.9906 7.84383 13.5854 7.85533 13.9749 8.21277C15.1182 9.26201 16.8672 9.28489 18.0376 8.26591L18.0745 8.23382L17.4199 7.48197L18.0745 8.23382C18.4958 7.86697 19.1249 7.87309 19.5391 8.24808L20.3288 8.96319C20.7382 9.33389 21.3706 9.30252 21.7413 8.89313C22.112 8.48373 22.0806 7.85135 21.6712 7.48065L20.8815 6.76554C19.7164 5.71059 17.9466 5.69336 16.7612 6.72542L16.7243 6.75751L17.381 7.51171L16.7243 6.75751C16.3218 7.10793 15.7203 7.10007 15.3271 6.73924C14.1945 5.69984 12.4652 5.6664 11.2933 6.66123L10.3529 7.45956C9.93183 7.81698 9.88025 8.44804 10.2377 8.86908C10.5951 9.29011 11.2261 9.34169 11.6472 8.98428L12.5876 8.18595ZM7.01195 8.34698C6.91343 8.28815 6.80394 8.24579 6.68727 8.22369C6.6172 8.21025 6.54684 8.20457 6.47726 8.20618H4.00003C3.62356 8.20618 3.27899 8.41762 3.10848 8.75326L2.10848 10.7217C1.85834 11.2141 2.05472 11.816 2.5471 12.0662C3.03949 12.3163 3.64143 12.1199 3.89158 11.6275L4.61365 10.2062H5.02932L4.11945 12.5074L1.20003 16.4C0.868657 16.8418 0.958201 17.4686 1.40003 17.8C1.84186 18.1314 2.46866 18.0418 2.80003 17.6L5.50003 14H7.38199L7.1056 14.5528C6.85861 15.0468 7.05883 15.6474 7.55281 15.8944C8.04679 16.1414 8.64746 15.9412 8.89445 15.4472L9.89445 13.4472C10.0494 13.1372 10.0329 12.7691 9.85068 12.4743C9.66847 12.1795 9.3466 12 9.00003 12H6.47073L7.42161 9.59502C7.44868 9.53096 7.46926 9.46349 7.48253 9.39343C7.5051 9.27571 7.50578 9.15719 7.48676 9.04294C7.46277 8.89682 7.40711 8.76136 7.32705 8.64385C7.24665 8.52537 7.14022 8.42319 7.01195 8.34698ZM7.50003 8.22193C8.32845 8.22193 9.00003 7.56096 9.00003 6.74561C9.00003 5.93025 8.32845 5.26928 7.50003 5.26928C6.6716 5.26928 6.00003 5.93025 6.00003 6.74561C6.00003 7.56096 6.6716 8.22193 7.50003 8.22193ZM13 19.0483C13 19.5446 12.5824 20.001 12 20.001C11.4176 20.001 11 19.5446 11 19.0483C11 18.5521 11.4176 18.0957 12 18.0957C12.5824 18.0957 13 18.5521 13 19.0483ZM15 19.0483C15 20.679 13.6569 22.001 12 22.001C10.3432 22.001 9.00003 20.679 9.00003 19.0483C9.00003 17.4176 10.3432 16.0957 12 16.0957C12.7915 16.0957 13.5113 16.3973 14.0474 16.8902L16.008 15.7875L15.5048 15.1273H13.5C12.9477 15.1273 12.5 14.6795 12.5 14.1273C12.5 13.575 12.9477 13.1273 13.5 13.1273H16C16.3121 13.1273 16.6063 13.2729 16.7954 13.5212L18.2954 15.4896C18.3067 15.5044 18.3175 15.5195 18.328 15.5349L18.8579 16.3172C19.2099 16.1744 19.5956 16.0957 20 16.0957C21.6569 16.0957 23 17.4176 23 19.0483C23 20.679 21.6569 22.001 20 22.001C18.3432 22.001 17 20.679 17 19.0483C17 18.5464 17.1273 18.0738 17.3517 17.6599L17.1882 17.4184L14.9747 18.6632C14.9914 18.7893 15 18.9178 15 19.0483ZM20 20.001C20.5824 20.001 21 19.5446 21 19.0483C21 18.5521 20.5824 18.0957 20 18.0957C19.4176 18.0957 19 18.5521 19 19.0483C19 19.5446 19.4176 20.001 20 20.001Z" fill="#222222"/>
</svg>
