<svg width="24" height="24" viewBox="0 0 24 24" fill="none" xmlns="http://www.w3.org/2000/svg">
<path fill-rule="evenodd" clip-rule="evenodd" d="M8 4H7C6.45 4 6 3.55 6 3C6 2.45 6.45 2 7 2H17C17.55 2 18 2.45 18 3C18 3.55 17.55 4 17 4H16V9C16 10.66 17.34 12 19 12V14C19 14 18.08 14.13 17.22 13.87C16.36 13.55 15.39 12.55 15 12C14.61 11.45 14 10.12 14 9V4H10V6.85L8 4.82V4ZM4.54692 2.95795L3.1214 4.36076L7.98552 9.30751C7.83671 10.8272 6.55958 12.01 5 12.01V14.01H10.97V21.01L11.97 22.01L12.97 21.01V14.3767L18.4995 20.0001L19.925 18.5972L4.54692 2.95795ZM9 12.01C9.24706 11.6831 9.45077 11.3303 9.6084 10.958L10.6429 12.01H9Z" fill="#222222"/>
</svg>
