<svg width="24" height="24" viewBox="0 0 24 24" fill="none" xmlns="http://www.w3.org/2000/svg">
<path d="M7.17671 8.14035H8.8092L5.65162 16H5.16832L2 8.14035H3.64323L5.41534 12.8187L7.17671 8.14035Z" fill="#222222"/>
<path d="M13.4924 15.8596L13.0951 14.8538H10.1953L9.79787 15.8596H8.24056L11.4089 8H11.8922L15.0498 15.8596H13.4924ZM12.5903 13.5556L11.6452 10.9474L10.7 13.5556H12.5903Z" fill="#222222"/>
<path d="M22 15.8596H20.3675L18.531 13.1345H17.4677V15.8596H16.0178V8.14035H18.6813C20.1742 8.14035 21.2375 9.1462 21.2375 10.6316C21.2375 11.6023 20.7756 12.4094 19.9916 12.8304L22 15.8596ZM17.4677 9.53216V11.7427H18.6813C19.3579 11.7427 19.7553 11.2982 19.7553 10.6316C19.7553 9.97661 19.3257 9.53216 18.6813 9.53216H17.4677Z" fill="#222222"/>
</svg>
