<svg width="24" height="24" viewBox="0 0 24 24" fill="none" xmlns="http://www.w3.org/2000/svg">
<path fill-rule="evenodd" clip-rule="evenodd" d="M4 6H20V18H4V6ZM2 6C2 4.89543 2.89543 4 4 4H20C21.1046 4 22 4.89543 22 6V18C22 19.1046 21.1046 20 20 20H4C2.89543 20 2 19.1046 2 18V6ZM12.7864 14.4123H14.1595L11.9329 9.5H11.5247L9.2981 14.4123H10.6712L10.8493 14.0102H12.6083L12.7864 14.4123ZM12.1556 13.0015H11.302L11.7325 11.883L12.1556 13.0015ZM8.41412 9.58772L7.43442 11.9561L6.44729 9.58772H5L7.2266 14.5H7.63481L9.86142 9.58772H8.41412ZM17.7086 12.6213L19 14.4123H17.575L16.4691 12.9137H15.9421V14.4123H14.6655V9.58772H16.5878C17.6863 9.58772 18.4805 10.2529 18.4805 11.2471C18.4805 11.8538 18.2207 12.307 17.7086 12.6213ZM16.5953 10.6842H15.9421V11.8173H16.5953C17.382 11.8173 17.382 10.6842 16.5953 10.6842Z" fill="#222222"/>
</svg>
