<svg width="16" height="16" viewBox="0 0 16 16" fill="none" xmlns="http://www.w3.org/2000/svg">
<g clip-path="url(#clip0_1563_1876)">
<path fill-rule="evenodd" clip-rule="evenodd" d="M14.9295 3.99884L14.6987 6.20491L16 8L14.6987 9.79542L14.9292 12.0012L12.9027 12.903L12.0012 14.9292L9.79542 14.6987L8 16L6.20425 14.6987L3.99818 14.9292L3.09701 12.9027L1.07052 12.0012L1.30126 9.79509L0 8L1.30126 6.20458L1.07085 3.99884L3.09734 3.09701L3.99884 1.07085L6.20458 1.30126L8 0L9.79575 1.30126L12.0018 1.07085L12.903 3.09734L14.9295 3.99884ZM6.84644 11L12 6.0622L10.8914 5L6.84644 8.8756L5.10861 7.21053L4 8.27273L6.84644 11Z" fill="#222222"/>
</g>
<defs>
<clipPath id="clip0_1563_1876">
<rect width="16" height="16" fill="white"/>
</clipPath>
</defs>
</svg>
