<svg width="24" height="24" viewBox="0 0 24 24" fill="none" xmlns="http://www.w3.org/2000/svg">
<path d="M12 1C18.0751 1 23 5.92487 23 12C23 18.0751 18.0751 23 12 23C5.92487 23 1 18.0751 1 12C1 5.92487 5.92487 1 12 1ZM12 3C7.02944 3 3 7.02944 3 12C3 16.9706 7.02944 21 12 21C16.9706 21 21 16.9706 21 12C21 7.02944 16.9706 3 12 3ZM9.5 9.05566C9.5 8.43983 10.1669 8.05441 10.7002 8.3623L15.7998 11.3076C16.3331 11.6155 16.3331 12.3845 15.7998 12.6924L10.7002 15.6377C10.1669 15.9456 9.5 15.5602 9.5 14.9443V9.05566Z" fill="#222222"/>
</svg>
