<svg width="24" height="24" viewBox="0 0 24 24" fill="none" xmlns="http://www.w3.org/2000/svg">
<path d="M19.0529 9.64186C18.6058 8.30051 17.8233 7.1683 16.7056 6.24522C15.5878 5.32215 14.2789 4.77407 12.7789 4.60099V6.02888L19.0529 9.64186ZM8.12743 13.2548L11.1995 11.4375V4.60099C10.6515 4.67311 10.1178 4.78849 9.59858 4.94715C9.07935 5.1058 8.58897 5.33657 8.12743 5.63945V13.2548ZM5.20675 15.0072L6.5481 14.1801V6.9159C5.89906 7.59378 5.40868 8.37623 5.07695 9.26325C4.74522 10.1503 4.57935 11.0604 4.57935 11.9938C4.57935 12.546 4.63344 13.0637 4.74161 13.5469C4.84978 14.0301 5.00483 14.5169 5.20675 15.0072ZM8.45195 18.5337L15.1587 14.6611L12 12.8005L5.96397 16.3702C6.2957 16.8029 6.6707 17.2068 7.08897 17.5818C7.50723 17.9568 7.96156 18.2741 8.45195 18.5337ZM12 19.4207C13.2197 19.4207 14.354 19.1503 15.4028 18.6094C16.4516 18.0685 17.3294 17.3221 18.0361 16.3702L16.6947 15.5914L10.3991 19.2476C10.6587 19.3053 10.9255 19.3486 11.1995 19.3774C11.4736 19.4063 11.7404 19.4207 12 19.4207ZM18.7933 14.9856C19.0241 14.4808 19.1863 13.9652 19.2801 13.4387C19.3738 12.9123 19.4279 12.3534 19.4423 11.762L12.7789 7.88945V11.4375L18.7933 14.9856ZM11.9959 21C10.749 21 9.57863 20.7638 8.4847 20.2913C7.39075 19.8188 6.43918 19.1775 5.62997 18.3675C4.82075 17.5575 4.18012 16.605 3.70808 15.51C3.23604 14.415 3.00002 13.245 3.00002 12C3.00002 10.755 3.23604 9.58503 3.70808 8.49003C4.18012 7.39503 4.82075 6.44253 5.62997 5.63253C6.43918 4.82253 7.39075 4.18128 8.4847 3.70878C9.57863 3.23628 10.7492 3.00003 11.9965 3.00003C13.2438 3.00003 14.4159 3.23607 15.5129 3.70815C16.6099 4.18022 17.5642 4.82089 18.3757 5.63017C19.1872 6.43944 19.8274 7.39238 20.2965 8.48899C20.7655 9.58562 21 10.7574 21 12.0042C21 13.251 20.764 14.4223 20.2919 15.5179C19.8198 16.6136 19.1792 17.5667 18.3699 18.3772C17.5606 19.1877 16.6077 19.8274 15.5111 20.2965C14.4144 20.7655 13.2427 21 11.9959 21Z" fill="#222222"/>
</svg>
