<svg width="16" height="16" viewBox="0 0 16 16" fill="none" xmlns="http://www.w3.org/2000/svg">
<path d="M10 2C11.4762 2.32 12.6789 3.03708 13.6074 4.15137C14.5359 5.26563 15 6.54862 15 8C15 9.45138 14.5359 10.7344 13.6074 11.8486C12.6789 12.9629 11.4762 13.68 10 14V12.5947C11.0714 12.2976 11.9341 11.7255 12.5889 10.8799C13.2436 10.0342 13.5713 9.07429 13.5713 8C13.5713 6.92571 13.2436 5.96583 12.5889 5.12012C11.9341 4.27447 11.0714 3.7024 10 3.40527V2ZM7.21973 2.46973C7.43421 2.25525 7.75687 2.1906 8.03711 2.30664C8.31727 2.42277 8.5 2.69672 8.5 3V13C8.4998 13.3032 8.31721 13.5773 8.03711 13.6934C7.75702 13.8093 7.43416 13.7445 7.21973 13.5303L4.43945 10.75H1.75C1.33595 10.75 1.00026 10.414 1 10V6C1 5.58579 1.33579 5.25 1.75 5.25H4.43945L7.21973 2.46973ZM5.28027 6.53027C5.13964 6.67077 4.9488 6.75 4.75 6.75H2.5V9.25H4.75C4.94891 9.25 5.13962 9.32907 5.28027 9.46973L7 11.1895V4.81055L5.28027 6.53027ZM10 5.24023C10.5594 5.49162 10.9971 5.86838 11.3125 6.37109C11.628 6.87395 11.7861 7.42329 11.7861 8.01758C11.7861 8.60015 11.6278 9.13978 11.3125 9.63672C10.997 10.1338 10.5595 10.5083 10 10.7598V5.24023Z" fill="#222222"/>
</svg>
