<svg width="16" height="16" viewBox="0 0 16 16" fill="none" xmlns="http://www.w3.org/2000/svg">
<path d="M1.46973 1.46973C1.76262 1.17684 2.23738 1.17684 2.53027 1.46973L14.5303 13.4698L14.582 13.5264C14.8223 13.821 14.8049 14.2557 14.5303 14.5303C14.2557 14.8049 13.8209 14.8223 13.5264 14.5821L13.4697 14.5303L12.1025 13.1631C11.4775 13.552 10.7771 13.8316 10 14V12.5948C10.393 12.4858 10.756 12.3364 11.0928 12.1533L8.5 9.56057V13C8.49978 13.3032 8.3172 13.5774 8.03711 13.6934C7.75703 13.8093 7.43416 13.7445 7.21973 13.5303L4.43945 10.75H1.75C1.33597 10.75 1.00029 10.414 1 10V6.00001C1 5.5858 1.33579 5.25001 1.75 5.25001H4.18945L1.46973 2.53028C1.17684 2.2374 1.17686 1.76263 1.46973 1.46973ZM5.28027 6.53029C5.13965 6.67077 4.94878 6.75001 4.75 6.75001H2.5V9.25002H4.75C4.94891 9.25002 5.13962 9.32909 5.28027 9.46975L7 11.1895V8.06056L5.375 6.43556L5.28027 6.53029ZM10 2.00001C11.4762 2.32001 12.6789 3.03709 13.6074 4.15138C14.5359 5.26563 15 6.54864 15 8.00002C15 9.13285 14.716 10.1624 14.1504 11.0899L13.1084 10.0479C13.4162 9.41883 13.5713 8.73653 13.5713 8.00002C13.5713 6.92574 13.2436 5.96584 12.5889 5.12013C11.9341 4.27449 11.0714 3.70241 10 3.40528V2.00001ZM10 5.24025C10.5594 5.49163 10.9971 5.8684 11.3125 6.37111C11.628 6.87395 11.7861 7.42332 11.7861 8.01759C11.7861 8.23721 11.7637 8.4508 11.7188 8.65822L10 6.93947V5.24025ZM7.21973 2.46973C7.43421 2.25525 7.75687 2.1906 8.03711 2.30665C8.31726 2.42278 8.5 2.69673 8.5 3.00001V5.43947L6.375 3.31446L7.21973 2.46973Z" fill="#222222"/>
</svg>
