<svg width="24" height="24" viewBox="0 0 24 24" fill="none" xmlns="http://www.w3.org/2000/svg">
<path fill-rule="evenodd" clip-rule="evenodd" d="M6.55469 7.36796C6.21879 7.14403 5.78118 7.14403 5.44529 7.36796L3.55468 8.62836C3.09516 8.93471 2.47429 8.81054 2.16793 8.35101C1.86158 7.89148 1.98576 7.27061 2.44528 6.96426L4.33588 5.70386C5.34358 5.03206 6.65639 5.03206 7.66409 5.70386L8.44529 6.22466C8.78118 6.44859 9.21879 6.44859 9.55469 6.22466L10.3359 5.70386C11.3436 5.03206 12.6564 5.03206 13.6641 5.70386L14.4453 6.22466C14.7812 6.44859 15.2188 6.44859 15.5547 6.22466L16.3359 5.70386C17.3436 5.03206 18.6564 5.03206 19.6641 5.70386L21.5547 6.96426C22.0142 7.27061 22.1384 7.89148 21.832 8.35101C21.5257 8.81054 20.9048 8.93471 20.4453 8.62836L18.5547 7.36796C18.2188 7.14403 17.7812 7.14403 17.4453 7.36796L16.6641 7.88876C15.6564 8.56056 14.3436 8.56056 13.3359 7.88876L12.5547 7.36796C12.2188 7.14403 11.7812 7.14403 11.4453 7.36796L10.6641 7.88876C9.65639 8.56056 8.34358 8.56056 7.33589 7.88876L6.55469 7.36796ZM6.55469 12.368C6.21879 12.144 5.78118 12.144 5.44529 12.368L3.55468 13.6284C3.09516 13.9347 2.47429 13.8105 2.16793 13.351C1.86158 12.8915 1.98576 12.2706 2.44528 11.9643L4.33588 10.7039C5.34358 10.0321 6.65639 10.0321 7.66409 10.7039L8.44529 11.2247C8.78118 11.4486 9.21879 11.4486 9.55469 11.2247L10.3359 10.7039C11.3436 10.0321 12.6564 10.0321 13.6641 10.7039L14.4453 11.2247C14.7812 11.4486 15.2188 11.4486 15.5547 11.2247L16.3359 10.7039C17.3436 10.0321 18.6564 10.0321 19.6641 10.7039L21.5547 11.9643C22.0142 12.2706 22.1384 12.8915 21.832 13.351C21.5257 13.8105 20.9048 13.9347 20.4453 13.6284L18.5547 12.368C18.2188 12.144 17.7812 12.144 17.4453 12.368L16.6641 12.8888C15.6564 13.5606 14.3436 13.5606 13.3359 12.8888L12.5547 12.368C12.2188 12.144 11.7812 12.144 11.4453 12.368L10.6641 12.8888C9.65639 13.5606 8.34358 13.5606 7.33589 12.8888L6.55469 12.368ZM5.44529 17.368C5.78118 17.144 6.21879 17.144 6.55469 17.368L7.33589 17.8887C8.34358 18.5605 9.65639 18.5605 10.6641 17.8887L11.4453 17.368C11.7812 17.144 12.2188 17.144 12.5547 17.368L13.3359 17.8887C14.3436 18.5605 15.6564 18.5605 16.6641 17.8887L17.4453 17.368C17.7812 17.144 18.2188 17.144 18.5547 17.368L20.4453 18.6283C20.9048 18.9347 21.5257 18.8105 21.832 18.351C22.1384 17.8915 22.0142 17.2706 21.5547 16.9642L19.6641 15.7039C18.6564 15.0321 17.3436 15.0321 16.3359 15.7039L15.5547 16.2247C15.2188 16.4486 14.7812 16.4486 14.4453 16.2247L13.6641 15.7039C12.6564 15.0321 11.3436 15.0321 10.3359 15.7039L9.55469 16.2247C9.21879 16.4486 8.78118 16.4486 8.44529 16.2247L7.66409 15.7039C6.65639 15.0321 5.34358 15.0321 4.33588 15.7039L2.44528 16.9642C1.98576 17.2706 1.86158 17.8915 2.16793 18.351C2.47429 18.8105 3.09516 18.9347 3.55468 18.6283L5.44529 17.368Z" fill="#222222"/>
</svg>
