<svg width="24" height="24" viewBox="0 0 24 24" fill="none" xmlns="http://www.w3.org/2000/svg">
<path fill-rule="evenodd" clip-rule="evenodd" d="M6 7.4C6 7.17909 6.17909 7 6.4 7H7.6C7.82091 7 8 7.17909 8 7.4V11H16V7.4C16 7.17909 16.1791 7 16.4 7H17.6C17.8209 7 18 7.17909 18 7.4V9H19.6C19.8209 9 20 9.17909 20 9.4V11H22V13H20V14.6C20 14.8209 19.8209 15 19.6 15H18V16.6C18 16.8209 17.8209 17 17.6 17H16.4C16.1791 17 16 16.8209 16 16.6V13H8V16.6C8 16.8209 7.82091 17 7.6 17H6.4C6.17909 17 6 16.8209 6 16.6V15H4.4C4.17909 15 4 14.8209 4 14.6V13H2V11H4V9.4C4 9.17909 4.17909 9 4.4 9H6V7.4Z" fill="#222222"/>
</svg>
