<svg width="24" height="24" viewBox="0 0 24 24" fill="none" xmlns="http://www.w3.org/2000/svg">
<path fill-rule="evenodd" clip-rule="evenodd" d="M5.4143 8.0109C6.29945 6.99638 7.52977 6.34852 8.86485 6.19154L12.0893 6.15918H20.0788V8.93118L15.0096 10.8204L14.894 12.0717C14.7673 13.4429 14.1232 14.7145 13.0927 15.6282C12.0622 16.5418 10.7224 17.0288 9.34587 16.9901C7.96928 16.9515 6.65882 16.3902 5.68118 15.4202C4.70364 14.4506 4.13196 13.1449 4.08232 11.7682C4.03268 10.392 4.50896 9.0485 5.4143 8.0109ZM16.8855 12.2557L22.0788 10.3202V4.15918H12.0793L8.8535 4.19155H8.75675C6.88068 4.37988 5.14678 5.27537 3.90727 6.69604C2.6677 8.11671 2.01565 9.95614 2.08362 11.8403C2.15157 13.7247 2.93416 15.5124 4.27269 16.8401C5.61122 18.1681 7.4052 18.9365 9.28984 18.9893C11.1745 19.0422 13.0087 18.3755 14.4195 17.1247C15.8303 15.8739 16.7121 14.1331 16.8855 12.2557ZM11.4466 11.9542C11.4712 11.7179 11.4538 11.4732 11.3887 11.2301C11.2647 10.7673 10.9881 10.3862 10.6277 10.1262C10.157 9.78681 9.54319 9.65401 8.939 9.8159C7.87208 10.1018 7.23905 11.1983 7.52495 12.2653C7.81086 13.3324 8.90736 13.9655 9.97427 13.6796C10.798 13.4589 11.3634 12.7548 11.4466 11.9542Z" fill="#222222"/>
</svg>
