<svg width="24" height="24" viewBox="0 0 24 24" fill="none" xmlns="http://www.w3.org/2000/svg">
<path fill-rule="evenodd" clip-rule="evenodd" d="M2 4.21152L3.41 2.79999L20.38 19.7885L18.97 21.2L11.89 14.1123C10.11 14.1323 8.35 14.8231 7 16.1745L5 14.1723C6.27 12.911 7.79 12.0601 9.41 11.6296L7.17 9.38715C5.65 10.0078 4.23 10.9388 3 12.1702L1 10.168C2.22 8.95668 3.59 7.99564 5.05 7.26484L2 4.21152ZM23 10.168L21 12.1702C18.49 9.65744 15.18 8.41609 11.88 8.43611L9.3 5.85331C14.13 5.01239 19.27 6.43394 23 10.168ZM15.28 11.8398C16.64 12.3203 17.92 13.0912 19 14.1723L18.3 14.8631L15.28 11.8398ZM9 18.1767L12 21.18L15 18.1767C13.35 16.5149 10.66 16.5149 9 18.1767Z" fill="#222222"/>
</svg>
