<svg width="24" height="24" viewBox="0 0 24 24" fill="none" xmlns="http://www.w3.org/2000/svg">
<path fill-rule="evenodd" clip-rule="evenodd" d="M3 4C3 2.89543 3.89543 2 5 2H15H18C18.5523 2 19 2.44772 19 3V6H21L20 8L21 10H19V21C19 21.5523 18.5523 22 18 22H15H5C3.89543 22 3 21.1046 3 20V4ZM17 4V6H16V4H17ZM16 20V10H17V20H16ZM14 20V4H5V20H14ZM12.17 12.53C11.95 12.2367 11.6333 12.0133 11.22 11.86C11.5667 11.7133 11.8333 11.51 12.02 11.25C12.2067 10.9833 12.3 10.6833 12.3 10.35C12.3 10.0033 12.2067 9.69 12.02 9.41C11.8333 9.12333 11.5667 8.9 11.22 8.74C10.88 8.58 10.49 8.5 10.05 8.5H6.5V15.5H10.25C10.6833 15.5 11.07 15.4167 11.41 15.25C11.7567 15.0767 12.0233 14.8433 12.21 14.55C12.4033 14.25 12.5 13.9167 12.5 13.55C12.5 13.1567 12.39 12.8167 12.17 12.53ZM8.35 11.3V10H9.65C9.89 10 10.0833 10.06 10.23 10.18C10.3767 10.2933 10.45 10.45 10.45 10.65C10.45 10.85 10.3767 11.01 10.23 11.13C10.0833 11.2433 9.89 11.3 9.65 11.3H8.35ZM10.36 13.82C10.2067 13.94 9.98667 14 9.7 14H8.35V12.6H9.7C9.98667 12.6 10.2067 12.6633 10.36 12.79C10.52 12.91 10.6 13.08 10.6 13.3C10.6 13.52 10.52 13.6933 10.36 13.82Z" fill="#222222"/>
</svg>
