<svg width="24" height="24" viewBox="0 0 24 24" fill="none" xmlns="http://www.w3.org/2000/svg">
<path fill-rule="evenodd" clip-rule="evenodd" d="M6 4C6 3.44772 6.44772 3 7 3H10C10.5523 3 11 3.44772 11 4V4.8636C11 5.55172 11.0331 6.19752 11.1734 6.75064C11.3109 7.29325 11.5317 7.66879 11.8537 7.91224C11.9156 7.959 11.9606 7.98258 11.9875 7.99346C11.9926 7.99552 11.9968 7.99701 12 7.99808C12.0032 7.99701 12.0074 7.99552 12.0125 7.99346C12.0394 7.98258 12.0844 7.959 12.1463 7.91224C12.4683 7.66879 12.6891 7.29325 12.8266 6.75064C12.9669 6.19752 13 5.55172 13 4.8636V4C13 3.44772 13.4477 3 14 3H17C17.5523 3 18 3.44772 18 4V6.58579L19.7071 8.29289C19.9697 8.55553 20.0652 8.9421 19.9549 9.29678L19.953 9.30303L19.946 9.32594C19.9397 9.34665 19.9302 9.37803 19.9179 9.41911C19.8934 9.50131 19.8579 9.62217 19.8149 9.77391C19.7288 10.0778 19.6134 10.5033 19.4961 10.9886C19.2569 11.9781 19.0281 13.145 18.9995 14.0322C18.9654 15.0902 19.1922 16.4899 19.4488 17.6795C19.5746 18.2627 19.7029 18.7748 19.7997 19.1406C19.8481 19.3233 19.8883 19.4689 19.9163 19.568C19.9303 19.6175 19.9411 19.6553 19.9484 19.6803L19.9564 19.7079L19.9586 19.7154C19.9586 19.7153 19.9586 19.7154 19.9586 19.7154C20.0484 20.0179 19.9902 20.3452 19.8014 20.5981C19.6127 20.851 19.3156 21 19 21H13.5C13.0832 21 12.71 20.7414 12.5637 20.3511L12 18.848L11.4363 20.3511C11.29 20.7414 10.9168 21 10.5 21H5C4.68439 21 4.3873 20.851 4.19855 20.5981C4.00983 20.3452 3.95155 20.018 4.04132 19.7155C4.04132 19.7155 4.04132 19.7155 4.04132 19.7155L4.0417 19.7142L4.04356 19.7079L4.05162 19.6803C4.05886 19.6553 4.06973 19.6175 4.0837 19.568C4.11166 19.4689 4.15195 19.3233 4.20027 19.1406C4.29706 18.7748 4.42539 18.2627 4.55121 17.6795C4.80783 16.4899 5.03465 15.0902 5.00052 14.0322C4.9719 13.145 4.74306 11.9781 4.50391 10.9886C4.38664 10.5033 4.27115 10.0778 4.18508 9.77391C4.1421 9.62217 4.1066 9.50131 4.08208 9.41911C4.06982 9.37803 4.06031 9.34665 4.054 9.32594L4.04699 9.30303L4.04538 9.29782L4.04507 9.29682C3.93484 8.94214 4.03026 8.55553 4.29289 8.29289L6 6.58579V4ZM6.6795 8.73471L6.1261 9.28811C6.21543 9.60572 6.3307 10.0336 6.44794 10.5187C6.69274 11.5317 6.9639 12.8647 6.99948 13.9678C7.04194 15.284 6.76876 16.8843 6.50623 18.1012C6.43624 18.4257 6.36562 18.7289 6.29949 19H7.2534C7.33327 18.7087 7.4285 18.337 7.52381 17.9081C7.76545 16.8207 8 15.3992 8 14C8 12.6809 7.55082 11.0659 7.06021 9.71674C6.93022 9.35928 6.80012 9.02788 6.6795 8.73471ZM9.32078 19H9.807L11.0637 15.6489C11.21 15.2586 11.5832 15 12 15C12.4168 15 12.79 15.2586 12.9363 15.6489L14.193 19H14.6792C14.6288 18.7985 14.5763 18.5781 14.5238 18.3419C14.2655 17.1793 14 15.6008 14 14C14 12.3191 14.5508 10.4341 15.0602 9.03326C15.3198 8.31924 15.5791 7.70358 15.7737 7.26574C15.8653 7.05959 15.9429 6.8921 16 6.77144V5H14.9996C14.9955 5.69013 14.9568 6.48682 14.7653 7.24212C14.5584 8.05823 14.1539 8.90165 13.3525 9.50758C13.0213 9.75797 12.56 10 12 10C11.44 10 10.9787 9.75797 10.6475 9.50758C9.8461 8.90165 9.44159 8.05823 9.23469 7.24212C9.04321 6.48682 9.00448 5.69013 9.00039 5H8V6.77144C8.05706 6.8921 8.13469 7.05959 8.22631 7.26574C8.42091 7.70358 8.68015 8.31924 8.93979 9.03326C9.44918 10.4341 10 12.3191 10 14C10 15.6008 9.73455 17.1793 9.47619 18.3419C9.4237 18.5781 9.3712 18.7985 9.32078 19ZM17.3205 8.73471C17.1999 9.02788 17.0698 9.35928 16.9398 9.71674C16.4492 11.0659 16 12.6809 16 14C16 15.3992 16.2345 16.8207 16.4762 17.9081C16.5715 18.337 16.6667 18.7087 16.7466 19H17.7005C17.6344 18.7289 17.5638 18.4257 17.4938 18.1012C17.2312 16.8843 16.9581 15.284 17.0005 13.9678C17.0361 12.8647 17.3073 11.5317 17.5521 10.5187C17.6693 10.0336 17.7846 9.60572 17.8739 9.28811L17.3205 8.73471ZM12.0091 8.0006C12.0091 8.0006 12.0095 8.00067 12.0091 8.0006V8.0006Z" fill="#222222"/>
</svg>
