<svg width="102" height="26" viewBox="0 0 102 26" fill="none" xmlns="http://www.w3.org/2000/svg">
<path d="M85.5238 19.5114C88.3622 19.5114 90.1267 18.3591 91.1239 17.3603C92.2747 16.2078 92.8118 14.825 92.8118 13.903H89.5129C89.206 14.9786 88.0553 16.592 85.5238 16.592C82.9922 16.592 81.2277 14.9018 81.2277 12.4433C81.2277 9.98482 82.9922 8.29462 85.5238 8.29462C87.9019 8.29462 89.206 9.75434 89.5129 10.9836H93.6556L96.2639 5.68248H96.6474V10.9836H98.4119L101.941 3.76257H91.8911V8.21856H91.5076C90.6636 6.75884 88.6691 5.37595 85.5238 5.37595C80.9208 5.37595 78.0058 8.21856 78.0058 12.4441C78.0058 16.6696 81.151 19.5121 85.5238 19.5121V19.5114Z" fill="#00C78B"/>
<path d="M7.55575 5.37048C5.39146 5.37048 3.53713 6.01226 2.19577 7.22365C0.800961 8.48161 0.0655823 10.2758 0.0655823 12.4107C0.0655823 14.5455 0.800961 16.3397 2.19577 17.5977C3.53868 18.8091 5.39146 19.4508 7.55575 19.4508C10.4523 19.4508 12.2121 18.3038 13.1776 17.3424C14.3392 16.1861 14.8577 14.7892 14.8577 13.9154V13.8526H11.5728L11.5604 13.8991C11.5535 13.9263 10.8049 16.5345 7.55575 16.5345C5.01719 16.5345 3.3124 14.8761 3.3124 12.4107C3.3124 9.94521 5.01719 8.28682 7.55575 8.28682C10.8049 8.28682 11.5527 10.8958 11.5604 10.9222L11.5728 10.9688H14.8577V10.9059C14.8577 10.0337 14.3377 8.63526 13.1776 7.47897C12.2121 6.51747 10.4539 5.37048 7.55575 5.37048Z" fill="#00C78B"/>
<path d="M16.4369 19.1769H19.5753V8.50488H26.7702V19.1776H29.9085V5.64441H16.4369V19.1776V19.1769Z" fill="#00C78B"/>
<path d="M44.4518 7.22365C43.1089 6.01226 41.2561 5.37048 39.0919 5.37048C36.9275 5.37048 35.0748 6.01226 33.7318 7.22365C32.3386 8.48161 31.6017 10.2758 31.6017 12.4107C31.6017 14.5455 32.337 16.3397 33.7318 17.5977C35.0748 18.8091 36.9275 19.4508 39.0919 19.4508C41.2561 19.4508 43.1089 18.8091 44.4518 17.5977C45.8451 16.3397 46.582 14.5455 46.582 12.4107C46.582 10.2758 45.8466 8.48161 44.4518 7.22365ZM43.3351 12.4107C43.3351 14.8761 41.6304 16.5345 39.0919 16.5345C36.5532 16.5345 34.8484 14.8761 34.8484 12.4107C34.8484 9.94521 36.5532 8.28682 39.0919 8.28682C41.6304 8.28682 43.3351 9.94521 43.3351 12.4107Z" fill="#00C78B"/>
<path d="M64.1737 8.50487H69.3679V19.1754L72.5063 19.2041V8.50487H77.7004V5.64441H64.173V8.50487H64.1737Z" fill="#00C78B"/>
<path d="M56.9099 5.37052C54.4644 5.37052 52.806 6.35143 51.7723 7.93298H51.4996V5.64212H48.3465V24.2375H51.4996V16.876H51.7723C52.8053 18.4576 54.4635 19.2756 56.9099 19.2756C60.7969 19.2756 63.5966 16.4127 63.5966 12.3766C63.5966 8.3404 60.796 5.36896 56.9099 5.36896V5.37052ZM56.0677 16.3304C53.5135 16.3304 51.7995 14.8583 51.7995 12.4053C51.7995 9.95223 53.5112 8.31557 56.0677 8.31557C58.624 8.31557 60.3358 9.86997 60.3358 12.323C60.3358 14.7761 58.5953 16.3304 56.0677 16.3304Z" fill="#00C78B"/>
</svg>
