<svg width="24" height="16" viewBox="0 0 24 16" fill="none" xmlns="http://www.w3.org/2000/svg">
<path d="M7.51824 15.7492C10.3568 15.7492 12.1212 14.5968 13.1186 13.598C14.2693 12.4456 14.8063 11.0626 14.8063 10.1407H11.5075C11.2007 11.2163 10.0499 12.8297 7.51824 12.8297C4.98659 12.8297 3.22211 11.1395 3.22211 8.68093C3.22211 6.22239 4.98659 4.53215 7.51824 4.53215C9.89646 4.53215 11.2007 5.99191 11.5075 7.22118H15.6502L18.2586 1.91996H18.6422V7.22118H20.4067L23.9356 0H13.8857V4.4561H13.5022C12.6583 2.99634 10.6636 1.61341 7.51824 1.61341C2.91523 1.61341 0 4.4561 0 8.68171C0 12.9073 3.14538 15.75 7.51824 15.75V15.7492Z" fill="#00C78B"/>
</svg>
